<svg width="1024" height="1471" viewBox="0 0 1024 1471" fill="none" xmlns="http://www.w3.org/2000/svg">
<g opacity="0.4">
<line y1="57.3853" x2="8.87988" y2="57.3853" stroke="#2BFFE8" stroke-width="0.554993"/>
<line x1="4.36063" y1="53" x2="4.36063" y2="61.8799" stroke="#2BFFE8" stroke-width="0.554993"/>
<line y1="142.268" x2="8.87988" y2="142.268" stroke="#2BFFE8" stroke-width="0.554993"/>
<line x1="4.36063" y1="137.883" x2="4.36063" y2="146.762" stroke="#2BFFE8" stroke-width="0.554993"/>
<line y1="227.15" x2="8.87988" y2="227.15" stroke="#2BFFE8" stroke-width="0.554993"/>
<line x1="4.36063" y1="222.765" x2="4.36063" y2="231.645" stroke="#2BFFE8" stroke-width="0.554993"/>
<line y1="312.033" x2="8.87988" y2="312.033" stroke="#2BFFE8" stroke-width="0.554993"/>
<line x1="4.36063" y1="307.647" x2="4.36063" y2="316.527" stroke="#2BFFE8" stroke-width="0.554993"/>
<line y1="396.915" x2="8.87988" y2="396.915" stroke="#2BFFE8" stroke-width="0.554993"/>
<line x1="4.36063" y1="392.53" x2="4.36063" y2="401.41" stroke="#2BFFE8" stroke-width="0.554993"/>
<line y1="481.798" x2="8.87988" y2="481.798" stroke="#2BFFE8" stroke-width="0.554993"/>
<line x1="4.36063" y1="477.413" x2="4.36063" y2="486.292" stroke="#2BFFE8" stroke-width="0.554993"/>
<line y1="566.68" x2="8.87988" y2="566.68" stroke="#2BFFE8" stroke-width="0.554993"/>
<line x1="4.36063" y1="562.295" x2="4.36063" y2="571.175" stroke="#2BFFE8" stroke-width="0.554993"/>
<line y1="651.563" x2="8.87988" y2="651.563" stroke="#2BFFE8" stroke-width="0.554993"/>
<line x1="4.36063" y1="647.177" x2="4.36063" y2="656.057" stroke="#2BFFE8" stroke-width="0.554993"/>
<line y1="736.445" x2="8.87988" y2="736.445" stroke="#2BFFE8" stroke-width="0.554993"/>
<line x1="4.36063" y1="732.06" x2="4.36063" y2="740.94" stroke="#2BFFE8" stroke-width="0.554993"/>
<line y1="821.328" x2="8.87988" y2="821.328" stroke="#2BFFE8" stroke-width="0.554993"/>
<line x1="4.36063" y1="816.943" x2="4.36063" y2="825.822" stroke="#2BFFE8" stroke-width="0.554993"/>
<line y1="906.21" x2="8.87988" y2="906.21" stroke="#2BFFE8" stroke-width="0.554993"/>
<line x1="4.36063" y1="901.825" x2="4.36063" y2="910.705" stroke="#2BFFE8" stroke-width="0.554993"/>
<line y1="991.093" x2="8.87988" y2="991.093" stroke="#2BFFE8" stroke-width="0.554993"/>
<line x1="4.36063" y1="986.708" x2="4.36063" y2="995.587" stroke="#2BFFE8" stroke-width="0.554993"/>
<line y1="1075.98" x2="8.87988" y2="1075.98" stroke="#2BFFE8" stroke-width="0.554993"/>
<line x1="4.36063" y1="1071.59" x2="4.36063" y2="1080.47" stroke="#2BFFE8" stroke-width="0.554993"/>
<line y1="1160.86" x2="8.87988" y2="1160.86" stroke="#2BFFE8" stroke-width="0.554993"/>
<line x1="4.36063" y1="1156.47" x2="4.36063" y2="1165.35" stroke="#2BFFE8" stroke-width="0.554993"/>
<line y1="1245.74" x2="8.87988" y2="1245.74" stroke="#2BFFE8" stroke-width="0.554993"/>
<line x1="4.36063" y1="1241.36" x2="4.36063" y2="1250.24" stroke="#2BFFE8" stroke-width="0.554993"/>
<line y1="1330.62" x2="8.87988" y2="1330.62" stroke="#2BFFE8" stroke-width="0.554993"/>
<line x1="4.36063" y1="1326.24" x2="4.36063" y2="1335.12" stroke="#2BFFE8" stroke-width="0.554993"/>
<line y1="1415.51" x2="8.87988" y2="1415.51" stroke="#2BFFE8" stroke-width="0.554993"/>
<line x1="4.36063" y1="1411.12" x2="4.36063" y2="1420" stroke="#2BFFE8" stroke-width="0.554993"/>
<line x1="78.0769" y1="57.3853" x2="86.9568" y2="57.3853" stroke="#2BFFE8" stroke-width="0.554993"/>
<line x1="82.4375" y1="53" x2="82.4375" y2="61.8799" stroke="#2BFFE8" stroke-width="0.554993"/>
<line x1="78.0769" y1="142.268" x2="86.9568" y2="142.268" stroke="#2BFFE8" stroke-width="0.554993"/>
<line x1="82.4375" y1="137.883" x2="82.4375" y2="146.762" stroke="#2BFFE8" stroke-width="0.554993"/>
<line x1="78.0769" y1="227.15" x2="86.9568" y2="227.15" stroke="#2BFFE8" stroke-width="0.554993"/>
<line x1="82.4375" y1="222.765" x2="82.4375" y2="231.645" stroke="#2BFFE8" stroke-width="0.554993"/>
<line x1="78.0769" y1="312.033" x2="86.9568" y2="312.033" stroke="#2BFFE8" stroke-width="0.554993"/>
<line x1="82.4375" y1="307.647" x2="82.4375" y2="316.527" stroke="#2BFFE8" stroke-width="0.554993"/>
<line x1="78.0769" y1="396.915" x2="86.9568" y2="396.915" stroke="#2BFFE8" stroke-width="0.554993"/>
<line x1="82.4375" y1="392.53" x2="82.4375" y2="401.41" stroke="#2BFFE8" stroke-width="0.554993"/>
<line x1="78.0769" y1="481.798" x2="86.9568" y2="481.798" stroke="#2BFFE8" stroke-width="0.554993"/>
<line x1="82.4375" y1="477.413" x2="82.4375" y2="486.292" stroke="#2BFFE8" stroke-width="0.554993"/>
<line x1="78.0769" y1="566.68" x2="86.9568" y2="566.68" stroke="#2BFFE8" stroke-width="0.554993"/>
<line x1="82.4375" y1="562.295" x2="82.4375" y2="571.175" stroke="#2BFFE8" stroke-width="0.554993"/>
<line x1="78.0769" y1="651.563" x2="86.9568" y2="651.563" stroke="#2BFFE8" stroke-width="0.554993"/>
<line x1="82.4375" y1="647.177" x2="82.4375" y2="656.057" stroke="#2BFFE8" stroke-width="0.554993"/>
<line x1="78.0769" y1="736.445" x2="86.9568" y2="736.445" stroke="#2BFFE8" stroke-width="0.554993"/>
<line x1="82.4375" y1="732.06" x2="82.4375" y2="740.94" stroke="#2BFFE8" stroke-width="0.554993"/>
<line x1="78.0769" y1="821.328" x2="86.9568" y2="821.328" stroke="#2BFFE8" stroke-width="0.554993"/>
<line x1="82.4375" y1="816.943" x2="82.4375" y2="825.822" stroke="#2BFFE8" stroke-width="0.554993"/>
<line x1="78.0769" y1="906.21" x2="86.9568" y2="906.21" stroke="#2BFFE8" stroke-width="0.554993"/>
<line x1="82.4375" y1="901.825" x2="82.4375" y2="910.705" stroke="#2BFFE8" stroke-width="0.554993"/>
<line x1="78.0769" y1="991.093" x2="86.9568" y2="991.093" stroke="#2BFFE8" stroke-width="0.554993"/>
<line x1="82.4375" y1="986.708" x2="82.4375" y2="995.587" stroke="#2BFFE8" stroke-width="0.554993"/>
<line x1="78.0769" y1="1075.98" x2="86.9568" y2="1075.98" stroke="#2BFFE8" stroke-width="0.554993"/>
<line x1="82.4375" y1="1071.59" x2="82.4375" y2="1080.47" stroke="#2BFFE8" stroke-width="0.554993"/>
<line x1="78.0769" y1="1160.86" x2="86.9568" y2="1160.86" stroke="#2BFFE8" stroke-width="0.554993"/>
<line x1="82.4375" y1="1156.47" x2="82.4375" y2="1165.35" stroke="#2BFFE8" stroke-width="0.554993"/>
<line x1="78.0769" y1="1245.74" x2="86.9568" y2="1245.74" stroke="#2BFFE8" stroke-width="0.554993"/>
<line x1="82.4375" y1="1241.36" x2="82.4375" y2="1250.24" stroke="#2BFFE8" stroke-width="0.554993"/>
<line x1="78.0769" y1="1330.62" x2="86.9568" y2="1330.62" stroke="#2BFFE8" stroke-width="0.554993"/>
<line x1="82.4375" y1="1326.24" x2="82.4375" y2="1335.12" stroke="#2BFFE8" stroke-width="0.554993"/>
<line x1="78.0769" y1="1415.51" x2="86.9568" y2="1415.51" stroke="#2BFFE8" stroke-width="0.554993"/>
<line x1="82.4375" y1="1411.12" x2="82.4375" y2="1420" stroke="#2BFFE8" stroke-width="0.554993"/>
<line x1="156.154" y1="57.3853" x2="165.034" y2="57.3853" stroke="#2BFFE8" stroke-width="0.554993"/>
<line x1="160.514" y1="53" x2="160.514" y2="61.8799" stroke="#2BFFE8" stroke-width="0.554993"/>
<line x1="156.154" y1="142.268" x2="165.034" y2="142.268" stroke="#2BFFE8" stroke-width="0.554993"/>
<line x1="160.514" y1="137.883" x2="160.514" y2="146.762" stroke="#2BFFE8" stroke-width="0.554993"/>
<line x1="156.154" y1="227.15" x2="165.034" y2="227.15" stroke="#2BFFE8" stroke-width="0.554993"/>
<line x1="160.514" y1="222.765" x2="160.514" y2="231.645" stroke="#2BFFE8" stroke-width="0.554993"/>
<line x1="156.154" y1="312.033" x2="165.034" y2="312.033" stroke="#2BFFE8" stroke-width="0.554993"/>
<line x1="160.514" y1="307.647" x2="160.514" y2="316.527" stroke="#2BFFE8" stroke-width="0.554993"/>
<line x1="156.154" y1="396.915" x2="165.034" y2="396.915" stroke="#2BFFE8" stroke-width="0.554993"/>
<line x1="160.514" y1="392.53" x2="160.514" y2="401.41" stroke="#2BFFE8" stroke-width="0.554993"/>
<line x1="156.154" y1="481.798" x2="165.034" y2="481.798" stroke="#2BFFE8" stroke-width="0.554993"/>
<line x1="160.514" y1="477.413" x2="160.514" y2="486.292" stroke="#2BFFE8" stroke-width="0.554993"/>
<line x1="156.154" y1="566.68" x2="165.034" y2="566.68" stroke="#2BFFE8" stroke-width="0.554993"/>
<line x1="160.514" y1="562.295" x2="160.514" y2="571.175" stroke="#2BFFE8" stroke-width="0.554993"/>
<line x1="156.154" y1="651.563" x2="165.034" y2="651.563" stroke="#2BFFE8" stroke-width="0.554993"/>
<line x1="160.514" y1="647.177" x2="160.514" y2="656.057" stroke="#2BFFE8" stroke-width="0.554993"/>
<line x1="156.154" y1="736.445" x2="165.034" y2="736.445" stroke="#2BFFE8" stroke-width="0.554993"/>
<line x1="160.514" y1="732.06" x2="160.514" y2="740.94" stroke="#2BFFE8" stroke-width="0.554993"/>
<line x1="156.154" y1="821.328" x2="165.034" y2="821.328" stroke="#2BFFE8" stroke-width="0.554993"/>
<line x1="160.514" y1="816.943" x2="160.514" y2="825.822" stroke="#2BFFE8" stroke-width="0.554993"/>
<line x1="156.154" y1="906.21" x2="165.034" y2="906.21" stroke="#2BFFE8" stroke-width="0.554993"/>
<line x1="160.514" y1="901.825" x2="160.514" y2="910.705" stroke="#2BFFE8" stroke-width="0.554993"/>
<line x1="156.154" y1="991.093" x2="165.034" y2="991.093" stroke="#2BFFE8" stroke-width="0.554993"/>
<line x1="160.514" y1="986.708" x2="160.514" y2="995.587" stroke="#2BFFE8" stroke-width="0.554993"/>
<line x1="156.154" y1="1075.98" x2="165.034" y2="1075.98" stroke="#2BFFE8" stroke-width="0.554993"/>
<line x1="160.514" y1="1071.59" x2="160.514" y2="1080.47" stroke="#2BFFE8" stroke-width="0.554993"/>
<line x1="156.154" y1="1160.86" x2="165.034" y2="1160.86" stroke="#2BFFE8" stroke-width="0.554993"/>
<line x1="160.514" y1="1156.47" x2="160.514" y2="1165.35" stroke="#2BFFE8" stroke-width="0.554993"/>
<line x1="156.154" y1="1245.74" x2="165.034" y2="1245.74" stroke="#2BFFE8" stroke-width="0.554993"/>
<line x1="160.514" y1="1241.36" x2="160.514" y2="1250.24" stroke="#2BFFE8" stroke-width="0.554993"/>
<line x1="156.154" y1="1330.62" x2="165.034" y2="1330.62" stroke="#2BFFE8" stroke-width="0.554993"/>
<line x1="160.514" y1="1326.24" x2="160.514" y2="1335.12" stroke="#2BFFE8" stroke-width="0.554993"/>
<line x1="156.154" y1="1415.51" x2="165.034" y2="1415.51" stroke="#2BFFE8" stroke-width="0.554993"/>
<line x1="160.514" y1="1411.12" x2="160.514" y2="1420" stroke="#2BFFE8" stroke-width="0.554993"/>
<line x1="234.231" y1="57.3853" x2="243.111" y2="57.3853" stroke="#2BFFE8" stroke-width="0.554993"/>
<line x1="238.591" y1="53" x2="238.591" y2="61.8799" stroke="#2BFFE8" stroke-width="0.554993"/>
<line x1="234.231" y1="142.268" x2="243.111" y2="142.268" stroke="#2BFFE8" stroke-width="0.554993"/>
<line x1="238.591" y1="137.883" x2="238.591" y2="146.762" stroke="#2BFFE8" stroke-width="0.554993"/>
<line x1="234.231" y1="227.15" x2="243.111" y2="227.15" stroke="#2BFFE8" stroke-width="0.554993"/>
<line x1="238.591" y1="222.765" x2="238.591" y2="231.645" stroke="#2BFFE8" stroke-width="0.554993"/>
<line x1="234.231" y1="312.033" x2="243.111" y2="312.033" stroke="#2BFFE8" stroke-width="0.554993"/>
<line x1="238.591" y1="307.647" x2="238.591" y2="316.527" stroke="#2BFFE8" stroke-width="0.554993"/>
<line x1="234.231" y1="396.915" x2="243.111" y2="396.915" stroke="#2BFFE8" stroke-width="0.554993"/>
<line x1="238.591" y1="392.53" x2="238.591" y2="401.41" stroke="#2BFFE8" stroke-width="0.554993"/>
<line x1="234.231" y1="481.798" x2="243.111" y2="481.798" stroke="#2BFFE8" stroke-width="0.554993"/>
<line x1="238.591" y1="477.413" x2="238.591" y2="486.292" stroke="#2BFFE8" stroke-width="0.554993"/>
<line x1="234.231" y1="566.68" x2="243.111" y2="566.68" stroke="#2BFFE8" stroke-width="0.554993"/>
<line x1="238.591" y1="562.295" x2="238.591" y2="571.175" stroke="#2BFFE8" stroke-width="0.554993"/>
<line x1="234.231" y1="651.563" x2="243.111" y2="651.563" stroke="#2BFFE8" stroke-width="0.554993"/>
<line x1="238.591" y1="647.177" x2="238.591" y2="656.057" stroke="#2BFFE8" stroke-width="0.554993"/>
<line x1="234.231" y1="736.445" x2="243.111" y2="736.445" stroke="#2BFFE8" stroke-width="0.554993"/>
<line x1="238.591" y1="732.06" x2="238.591" y2="740.94" stroke="#2BFFE8" stroke-width="0.554993"/>
<line x1="234.231" y1="821.328" x2="243.111" y2="821.328" stroke="#2BFFE8" stroke-width="0.554993"/>
<line x1="238.591" y1="816.943" x2="238.591" y2="825.822" stroke="#2BFFE8" stroke-width="0.554993"/>
<line x1="234.231" y1="906.21" x2="243.111" y2="906.21" stroke="#2BFFE8" stroke-width="0.554993"/>
<line x1="238.591" y1="901.825" x2="238.591" y2="910.705" stroke="#2BFFE8" stroke-width="0.554993"/>
<line x1="234.231" y1="991.093" x2="243.111" y2="991.093" stroke="#2BFFE8" stroke-width="0.554993"/>
<line x1="238.591" y1="986.708" x2="238.591" y2="995.587" stroke="#2BFFE8" stroke-width="0.554993"/>
<line x1="234.231" y1="1075.98" x2="243.111" y2="1075.98" stroke="#2BFFE8" stroke-width="0.554993"/>
<line x1="238.591" y1="1071.59" x2="238.591" y2="1080.47" stroke="#2BFFE8" stroke-width="0.554993"/>
<line x1="234.231" y1="1160.86" x2="243.111" y2="1160.86" stroke="#2BFFE8" stroke-width="0.554993"/>
<line x1="238.591" y1="1156.47" x2="238.591" y2="1165.35" stroke="#2BFFE8" stroke-width="0.554993"/>
<line x1="234.231" y1="1245.74" x2="243.111" y2="1245.74" stroke="#2BFFE8" stroke-width="0.554993"/>
<line x1="238.591" y1="1241.36" x2="238.591" y2="1250.24" stroke="#2BFFE8" stroke-width="0.554993"/>
<line x1="234.231" y1="1330.62" x2="243.111" y2="1330.62" stroke="#2BFFE8" stroke-width="0.554993"/>
<line x1="238.591" y1="1326.24" x2="238.591" y2="1335.12" stroke="#2BFFE8" stroke-width="0.554993"/>
<line x1="234.231" y1="1415.51" x2="243.111" y2="1415.51" stroke="#2BFFE8" stroke-width="0.554993"/>
<line x1="238.591" y1="1411.12" x2="238.591" y2="1420" stroke="#2BFFE8" stroke-width="0.554993"/>
<line x1="312.308" y1="57.3853" x2="321.188" y2="57.3853" stroke="#2BFFE8" stroke-width="0.554993"/>
<line x1="316.668" y1="53" x2="316.668" y2="61.8799" stroke="#2BFFE8" stroke-width="0.554993"/>
<line x1="312.308" y1="142.268" x2="321.188" y2="142.268" stroke="#2BFFE8" stroke-width="0.554993"/>
<line x1="316.668" y1="137.883" x2="316.668" y2="146.762" stroke="#2BFFE8" stroke-width="0.554993"/>
<line x1="312.308" y1="227.15" x2="321.188" y2="227.15" stroke="#2BFFE8" stroke-width="0.554993"/>
<line x1="316.668" y1="222.765" x2="316.668" y2="231.645" stroke="#2BFFE8" stroke-width="0.554993"/>
<line x1="312.308" y1="312.033" x2="321.188" y2="312.033" stroke="#2BFFE8" stroke-width="0.554993"/>
<line x1="316.668" y1="307.647" x2="316.668" y2="316.527" stroke="#2BFFE8" stroke-width="0.554993"/>
<line x1="312.308" y1="396.915" x2="321.188" y2="396.915" stroke="#2BFFE8" stroke-width="0.554993"/>
<line x1="316.668" y1="392.53" x2="316.668" y2="401.41" stroke="#2BFFE8" stroke-width="0.554993"/>
<line x1="312.308" y1="481.798" x2="321.188" y2="481.798" stroke="#2BFFE8" stroke-width="0.554993"/>
<line x1="316.668" y1="477.413" x2="316.668" y2="486.292" stroke="#2BFFE8" stroke-width="0.554993"/>
<line x1="312.308" y1="566.68" x2="321.188" y2="566.68" stroke="#2BFFE8" stroke-width="0.554993"/>
<line x1="316.668" y1="562.295" x2="316.668" y2="571.175" stroke="#2BFFE8" stroke-width="0.554993"/>
<line x1="312.308" y1="651.563" x2="321.188" y2="651.563" stroke="#2BFFE8" stroke-width="0.554993"/>
<line x1="316.668" y1="647.177" x2="316.668" y2="656.057" stroke="#2BFFE8" stroke-width="0.554993"/>
<line x1="312.308" y1="736.445" x2="321.188" y2="736.445" stroke="#2BFFE8" stroke-width="0.554993"/>
<line x1="316.668" y1="732.06" x2="316.668" y2="740.94" stroke="#2BFFE8" stroke-width="0.554993"/>
<line x1="312.308" y1="821.328" x2="321.188" y2="821.328" stroke="#2BFFE8" stroke-width="0.554993"/>
<line x1="316.668" y1="816.943" x2="316.668" y2="825.822" stroke="#2BFFE8" stroke-width="0.554993"/>
<line x1="312.308" y1="906.21" x2="321.188" y2="906.21" stroke="#2BFFE8" stroke-width="0.554993"/>
<line x1="316.668" y1="901.825" x2="316.668" y2="910.705" stroke="#2BFFE8" stroke-width="0.554993"/>
<line x1="312.308" y1="991.093" x2="321.188" y2="991.093" stroke="#2BFFE8" stroke-width="0.554993"/>
<line x1="316.668" y1="986.708" x2="316.668" y2="995.587" stroke="#2BFFE8" stroke-width="0.554993"/>
<line x1="312.308" y1="1075.98" x2="321.188" y2="1075.98" stroke="#2BFFE8" stroke-width="0.554993"/>
<line x1="316.668" y1="1071.59" x2="316.668" y2="1080.47" stroke="#2BFFE8" stroke-width="0.554993"/>
<line x1="312.308" y1="1160.86" x2="321.188" y2="1160.86" stroke="#2BFFE8" stroke-width="0.554993"/>
<line x1="316.668" y1="1156.47" x2="316.668" y2="1165.35" stroke="#2BFFE8" stroke-width="0.554993"/>
<line x1="312.308" y1="1245.74" x2="321.188" y2="1245.74" stroke="#2BFFE8" stroke-width="0.554993"/>
<line x1="316.668" y1="1241.36" x2="316.668" y2="1250.24" stroke="#2BFFE8" stroke-width="0.554993"/>
<line x1="312.308" y1="1330.62" x2="321.188" y2="1330.62" stroke="#2BFFE8" stroke-width="0.554993"/>
<line x1="316.668" y1="1326.24" x2="316.668" y2="1335.12" stroke="#2BFFE8" stroke-width="0.554993"/>
<line x1="312.308" y1="1415.51" x2="321.188" y2="1415.51" stroke="#2BFFE8" stroke-width="0.554993"/>
<line x1="316.668" y1="1411.12" x2="316.668" y2="1420" stroke="#2BFFE8" stroke-width="0.554993"/>
<line x1="390.385" y1="57.3853" x2="399.264" y2="57.3853" stroke="#2BFFE8" stroke-width="0.554993"/>
<line x1="394.745" y1="53" x2="394.745" y2="61.8799" stroke="#2BFFE8" stroke-width="0.554993"/>
<line x1="390.385" y1="142.268" x2="399.264" y2="142.268" stroke="#2BFFE8" stroke-width="0.554993"/>
<line x1="394.745" y1="137.883" x2="394.745" y2="146.762" stroke="#2BFFE8" stroke-width="0.554993"/>
<line x1="390.385" y1="227.15" x2="399.264" y2="227.15" stroke="#2BFFE8" stroke-width="0.554993"/>
<line x1="394.745" y1="222.765" x2="394.745" y2="231.645" stroke="#2BFFE8" stroke-width="0.554993"/>
<line x1="390.385" y1="312.033" x2="399.264" y2="312.033" stroke="#2BFFE8" stroke-width="0.554993"/>
<line x1="394.745" y1="307.647" x2="394.745" y2="316.527" stroke="#2BFFE8" stroke-width="0.554993"/>
<line x1="390.385" y1="396.915" x2="399.264" y2="396.915" stroke="#2BFFE8" stroke-width="0.554993"/>
<line x1="394.745" y1="392.53" x2="394.745" y2="401.41" stroke="#2BFFE8" stroke-width="0.554993"/>
<line x1="390.385" y1="481.798" x2="399.264" y2="481.798" stroke="#2BFFE8" stroke-width="0.554993"/>
<line x1="394.745" y1="477.413" x2="394.745" y2="486.292" stroke="#2BFFE8" stroke-width="0.554993"/>
<line x1="390.385" y1="566.68" x2="399.264" y2="566.68" stroke="#2BFFE8" stroke-width="0.554993"/>
<line x1="394.745" y1="562.295" x2="394.745" y2="571.175" stroke="#2BFFE8" stroke-width="0.554993"/>
<line x1="390.385" y1="651.563" x2="399.264" y2="651.563" stroke="#2BFFE8" stroke-width="0.554993"/>
<line x1="394.745" y1="647.177" x2="394.745" y2="656.057" stroke="#2BFFE8" stroke-width="0.554993"/>
<line x1="390.385" y1="736.445" x2="399.264" y2="736.445" stroke="#2BFFE8" stroke-width="0.554993"/>
<line x1="394.745" y1="732.06" x2="394.745" y2="740.94" stroke="#2BFFE8" stroke-width="0.554993"/>
<line x1="390.385" y1="821.328" x2="399.264" y2="821.328" stroke="#2BFFE8" stroke-width="0.554993"/>
<line x1="394.745" y1="816.943" x2="394.745" y2="825.822" stroke="#2BFFE8" stroke-width="0.554993"/>
<line x1="390.385" y1="906.21" x2="399.264" y2="906.21" stroke="#2BFFE8" stroke-width="0.554993"/>
<line x1="394.745" y1="901.825" x2="394.745" y2="910.705" stroke="#2BFFE8" stroke-width="0.554993"/>
<line x1="390.385" y1="991.093" x2="399.264" y2="991.093" stroke="#2BFFE8" stroke-width="0.554993"/>
<line x1="394.745" y1="986.708" x2="394.745" y2="995.587" stroke="#2BFFE8" stroke-width="0.554993"/>
<line x1="390.385" y1="1075.98" x2="399.264" y2="1075.98" stroke="#2BFFE8" stroke-width="0.554993"/>
<line x1="394.745" y1="1071.59" x2="394.745" y2="1080.47" stroke="#2BFFE8" stroke-width="0.554993"/>
<line x1="390.385" y1="1160.86" x2="399.264" y2="1160.86" stroke="#2BFFE8" stroke-width="0.554993"/>
<line x1="394.745" y1="1156.47" x2="394.745" y2="1165.35" stroke="#2BFFE8" stroke-width="0.554993"/>
<line x1="390.385" y1="1245.74" x2="399.264" y2="1245.74" stroke="#2BFFE8" stroke-width="0.554993"/>
<line x1="394.745" y1="1241.36" x2="394.745" y2="1250.24" stroke="#2BFFE8" stroke-width="0.554993"/>
<line x1="390.385" y1="1330.62" x2="399.264" y2="1330.62" stroke="#2BFFE8" stroke-width="0.554993"/>
<line x1="394.745" y1="1326.24" x2="394.745" y2="1335.12" stroke="#2BFFE8" stroke-width="0.554993"/>
<line x1="390.385" y1="1415.51" x2="399.264" y2="1415.51" stroke="#2BFFE8" stroke-width="0.554993"/>
<line x1="394.745" y1="1411.12" x2="394.745" y2="1420" stroke="#2BFFE8" stroke-width="0.554993"/>
<line x1="468.461" y1="57.3853" x2="477.341" y2="57.3853" stroke="#2BFFE8" stroke-width="0.554993"/>
<line x1="472.822" y1="53" x2="472.822" y2="61.8799" stroke="#2BFFE8" stroke-width="0.554993"/>
<line x1="468.461" y1="142.268" x2="477.341" y2="142.268" stroke="#2BFFE8" stroke-width="0.554993"/>
<line x1="472.822" y1="137.883" x2="472.822" y2="146.762" stroke="#2BFFE8" stroke-width="0.554993"/>
<line x1="468.461" y1="227.15" x2="477.341" y2="227.15" stroke="#2BFFE8" stroke-width="0.554993"/>
<line x1="472.822" y1="222.765" x2="472.822" y2="231.645" stroke="#2BFFE8" stroke-width="0.554993"/>
<line x1="468.461" y1="312.033" x2="477.341" y2="312.033" stroke="#2BFFE8" stroke-width="0.554993"/>
<line x1="472.822" y1="307.647" x2="472.822" y2="316.527" stroke="#2BFFE8" stroke-width="0.554993"/>
<line x1="468.461" y1="396.915" x2="477.341" y2="396.915" stroke="#2BFFE8" stroke-width="0.554993"/>
<line x1="472.822" y1="392.53" x2="472.822" y2="401.41" stroke="#2BFFE8" stroke-width="0.554993"/>
<line x1="468.461" y1="481.798" x2="477.341" y2="481.798" stroke="#2BFFE8" stroke-width="0.554993"/>
<line x1="472.822" y1="477.413" x2="472.822" y2="486.292" stroke="#2BFFE8" stroke-width="0.554993"/>
<line x1="468.461" y1="566.68" x2="477.341" y2="566.68" stroke="#2BFFE8" stroke-width="0.554993"/>
<line x1="472.822" y1="562.295" x2="472.822" y2="571.175" stroke="#2BFFE8" stroke-width="0.554993"/>
<line x1="468.461" y1="651.563" x2="477.341" y2="651.563" stroke="#2BFFE8" stroke-width="0.554993"/>
<line x1="472.822" y1="647.177" x2="472.822" y2="656.057" stroke="#2BFFE8" stroke-width="0.554993"/>
<line x1="468.461" y1="736.445" x2="477.341" y2="736.445" stroke="#2BFFE8" stroke-width="0.554993"/>
<line x1="472.822" y1="732.06" x2="472.822" y2="740.94" stroke="#2BFFE8" stroke-width="0.554993"/>
<line x1="468.461" y1="821.328" x2="477.341" y2="821.328" stroke="#2BFFE8" stroke-width="0.554993"/>
<line x1="472.822" y1="816.943" x2="472.822" y2="825.822" stroke="#2BFFE8" stroke-width="0.554993"/>
<line x1="468.461" y1="906.21" x2="477.341" y2="906.21" stroke="#2BFFE8" stroke-width="0.554993"/>
<line x1="472.822" y1="901.825" x2="472.822" y2="910.705" stroke="#2BFFE8" stroke-width="0.554993"/>
<line x1="468.461" y1="991.093" x2="477.341" y2="991.093" stroke="#2BFFE8" stroke-width="0.554993"/>
<line x1="472.822" y1="986.708" x2="472.822" y2="995.587" stroke="#2BFFE8" stroke-width="0.554993"/>
<line x1="468.461" y1="1075.98" x2="477.341" y2="1075.98" stroke="#2BFFE8" stroke-width="0.554993"/>
<line x1="472.822" y1="1071.59" x2="472.822" y2="1080.47" stroke="#2BFFE8" stroke-width="0.554993"/>
<line x1="468.461" y1="1160.86" x2="477.341" y2="1160.86" stroke="#2BFFE8" stroke-width="0.554993"/>
<line x1="472.822" y1="1156.47" x2="472.822" y2="1165.35" stroke="#2BFFE8" stroke-width="0.554993"/>
<line x1="468.461" y1="1245.74" x2="477.341" y2="1245.74" stroke="#2BFFE8" stroke-width="0.554993"/>
<line x1="472.822" y1="1241.36" x2="472.822" y2="1250.24" stroke="#2BFFE8" stroke-width="0.554993"/>
<line x1="468.461" y1="1330.62" x2="477.341" y2="1330.62" stroke="#2BFFE8" stroke-width="0.554993"/>
<line x1="472.822" y1="1326.24" x2="472.822" y2="1335.12" stroke="#2BFFE8" stroke-width="0.554993"/>
<line x1="468.461" y1="1415.51" x2="477.341" y2="1415.51" stroke="#2BFFE8" stroke-width="0.554993"/>
<line x1="472.822" y1="1411.12" x2="472.822" y2="1420" stroke="#2BFFE8" stroke-width="0.554993"/>
<line x1="546.538" y1="57.3853" x2="555.418" y2="57.3853" stroke="#2BFFE8" stroke-width="0.554993"/>
<line x1="550.899" y1="53" x2="550.899" y2="61.8799" stroke="#2BFFE8" stroke-width="0.554993"/>
<line x1="546.538" y1="142.268" x2="555.418" y2="142.268" stroke="#2BFFE8" stroke-width="0.554993"/>
<line x1="550.899" y1="137.883" x2="550.899" y2="146.762" stroke="#2BFFE8" stroke-width="0.554993"/>
<line x1="546.538" y1="227.15" x2="555.418" y2="227.15" stroke="#2BFFE8" stroke-width="0.554993"/>
<line x1="550.899" y1="222.765" x2="550.899" y2="231.645" stroke="#2BFFE8" stroke-width="0.554993"/>
<line x1="546.538" y1="312.033" x2="555.418" y2="312.033" stroke="#2BFFE8" stroke-width="0.554993"/>
<line x1="550.899" y1="307.647" x2="550.899" y2="316.527" stroke="#2BFFE8" stroke-width="0.554993"/>
<line x1="546.538" y1="396.915" x2="555.418" y2="396.915" stroke="#2BFFE8" stroke-width="0.554993"/>
<line x1="550.899" y1="392.53" x2="550.899" y2="401.41" stroke="#2BFFE8" stroke-width="0.554993"/>
<line x1="546.538" y1="481.798" x2="555.418" y2="481.798" stroke="#2BFFE8" stroke-width="0.554993"/>
<line x1="550.899" y1="477.413" x2="550.899" y2="486.292" stroke="#2BFFE8" stroke-width="0.554993"/>
<line x1="546.538" y1="566.68" x2="555.418" y2="566.68" stroke="#2BFFE8" stroke-width="0.554993"/>
<line x1="550.899" y1="562.295" x2="550.899" y2="571.175" stroke="#2BFFE8" stroke-width="0.554993"/>
<line x1="546.538" y1="651.563" x2="555.418" y2="651.563" stroke="#2BFFE8" stroke-width="0.554993"/>
<line x1="550.899" y1="647.177" x2="550.899" y2="656.057" stroke="#2BFFE8" stroke-width="0.554993"/>
<line x1="546.538" y1="736.445" x2="555.418" y2="736.445" stroke="#2BFFE8" stroke-width="0.554993"/>
<line x1="550.899" y1="732.06" x2="550.899" y2="740.94" stroke="#2BFFE8" stroke-width="0.554993"/>
<line x1="546.538" y1="821.328" x2="555.418" y2="821.328" stroke="#2BFFE8" stroke-width="0.554993"/>
<line x1="550.899" y1="816.943" x2="550.899" y2="825.822" stroke="#2BFFE8" stroke-width="0.554993"/>
<line x1="546.538" y1="906.21" x2="555.418" y2="906.21" stroke="#2BFFE8" stroke-width="0.554993"/>
<line x1="550.899" y1="901.825" x2="550.899" y2="910.705" stroke="#2BFFE8" stroke-width="0.554993"/>
<line x1="546.538" y1="991.093" x2="555.418" y2="991.093" stroke="#2BFFE8" stroke-width="0.554993"/>
<line x1="550.899" y1="986.708" x2="550.899" y2="995.587" stroke="#2BFFE8" stroke-width="0.554993"/>
<line x1="546.538" y1="1075.98" x2="555.418" y2="1075.98" stroke="#2BFFE8" stroke-width="0.554993"/>
<line x1="550.899" y1="1071.59" x2="550.899" y2="1080.47" stroke="#2BFFE8" stroke-width="0.554993"/>
<line x1="546.538" y1="1160.86" x2="555.418" y2="1160.86" stroke="#2BFFE8" stroke-width="0.554993"/>
<line x1="550.899" y1="1156.47" x2="550.899" y2="1165.35" stroke="#2BFFE8" stroke-width="0.554993"/>
<line x1="546.538" y1="1245.74" x2="555.418" y2="1245.74" stroke="#2BFFE8" stroke-width="0.554993"/>
<line x1="550.899" y1="1241.36" x2="550.899" y2="1250.24" stroke="#2BFFE8" stroke-width="0.554993"/>
<line x1="546.538" y1="1330.62" x2="555.418" y2="1330.62" stroke="#2BFFE8" stroke-width="0.554993"/>
<line x1="550.899" y1="1326.24" x2="550.899" y2="1335.12" stroke="#2BFFE8" stroke-width="0.554993"/>
<line x1="546.538" y1="1415.51" x2="555.418" y2="1415.51" stroke="#2BFFE8" stroke-width="0.554993"/>
<line x1="550.899" y1="1411.12" x2="550.899" y2="1420" stroke="#2BFFE8" stroke-width="0.554993"/>
<line x1="624.615" y1="57.3853" x2="633.495" y2="57.3853" stroke="#2BFFE8" stroke-width="0.554993"/>
<line x1="628.976" y1="53" x2="628.976" y2="61.8799" stroke="#2BFFE8" stroke-width="0.554993"/>
<line x1="624.615" y1="142.268" x2="633.495" y2="142.268" stroke="#2BFFE8" stroke-width="0.554993"/>
<line x1="628.976" y1="137.883" x2="628.976" y2="146.762" stroke="#2BFFE8" stroke-width="0.554993"/>
<line x1="624.615" y1="227.15" x2="633.495" y2="227.15" stroke="#2BFFE8" stroke-width="0.554993"/>
<line x1="628.976" y1="222.765" x2="628.976" y2="231.645" stroke="#2BFFE8" stroke-width="0.554993"/>
<line x1="624.615" y1="312.033" x2="633.495" y2="312.033" stroke="#2BFFE8" stroke-width="0.554993"/>
<line x1="628.976" y1="307.647" x2="628.976" y2="316.527" stroke="#2BFFE8" stroke-width="0.554993"/>
<line x1="624.615" y1="396.915" x2="633.495" y2="396.915" stroke="#2BFFE8" stroke-width="0.554993"/>
<line x1="628.976" y1="392.53" x2="628.976" y2="401.41" stroke="#2BFFE8" stroke-width="0.554993"/>
<line x1="624.615" y1="481.798" x2="633.495" y2="481.798" stroke="#2BFFE8" stroke-width="0.554993"/>
<line x1="628.976" y1="477.413" x2="628.976" y2="486.292" stroke="#2BFFE8" stroke-width="0.554993"/>
<line x1="624.615" y1="566.68" x2="633.495" y2="566.68" stroke="#2BFFE8" stroke-width="0.554993"/>
<line x1="628.976" y1="562.295" x2="628.976" y2="571.175" stroke="#2BFFE8" stroke-width="0.554993"/>
<line x1="624.615" y1="651.563" x2="633.495" y2="651.563" stroke="#2BFFE8" stroke-width="0.554993"/>
<line x1="628.976" y1="647.177" x2="628.976" y2="656.057" stroke="#2BFFE8" stroke-width="0.554993"/>
<line x1="624.615" y1="736.445" x2="633.495" y2="736.445" stroke="#2BFFE8" stroke-width="0.554993"/>
<line x1="628.976" y1="732.06" x2="628.976" y2="740.94" stroke="#2BFFE8" stroke-width="0.554993"/>
<line x1="624.615" y1="821.328" x2="633.495" y2="821.328" stroke="#2BFFE8" stroke-width="0.554993"/>
<line x1="628.976" y1="816.943" x2="628.976" y2="825.822" stroke="#2BFFE8" stroke-width="0.554993"/>
<line x1="624.615" y1="906.21" x2="633.495" y2="906.21" stroke="#2BFFE8" stroke-width="0.554993"/>
<line x1="628.976" y1="901.825" x2="628.976" y2="910.705" stroke="#2BFFE8" stroke-width="0.554993"/>
<line x1="624.615" y1="991.093" x2="633.495" y2="991.093" stroke="#2BFFE8" stroke-width="0.554993"/>
<line x1="628.976" y1="986.708" x2="628.976" y2="995.587" stroke="#2BFFE8" stroke-width="0.554993"/>
<line x1="624.615" y1="1075.98" x2="633.495" y2="1075.98" stroke="#2BFFE8" stroke-width="0.554993"/>
<line x1="628.976" y1="1071.59" x2="628.976" y2="1080.47" stroke="#2BFFE8" stroke-width="0.554993"/>
<line x1="624.615" y1="1160.86" x2="633.495" y2="1160.86" stroke="#2BFFE8" stroke-width="0.554993"/>
<line x1="628.976" y1="1156.47" x2="628.976" y2="1165.35" stroke="#2BFFE8" stroke-width="0.554993"/>
<line x1="624.615" y1="1245.74" x2="633.495" y2="1245.74" stroke="#2BFFE8" stroke-width="0.554993"/>
<line x1="628.976" y1="1241.36" x2="628.976" y2="1250.24" stroke="#2BFFE8" stroke-width="0.554993"/>
<line x1="624.615" y1="1330.62" x2="633.495" y2="1330.62" stroke="#2BFFE8" stroke-width="0.554993"/>
<line x1="628.976" y1="1326.24" x2="628.976" y2="1335.12" stroke="#2BFFE8" stroke-width="0.554993"/>
<line x1="624.615" y1="1415.51" x2="633.495" y2="1415.51" stroke="#2BFFE8" stroke-width="0.554993"/>
<line x1="628.976" y1="1411.12" x2="628.976" y2="1420" stroke="#2BFFE8" stroke-width="0.554993"/>
<line x1="702.692" y1="57.3853" x2="711.572" y2="57.3853" stroke="#2BFFE8" stroke-width="0.554993"/>
<line x1="707.053" y1="53" x2="707.053" y2="61.8799" stroke="#2BFFE8" stroke-width="0.554993"/>
<line x1="702.692" y1="142.268" x2="711.572" y2="142.268" stroke="#2BFFE8" stroke-width="0.554993"/>
<line x1="707.053" y1="137.883" x2="707.053" y2="146.762" stroke="#2BFFE8" stroke-width="0.554993"/>
<line x1="702.692" y1="227.15" x2="711.572" y2="227.15" stroke="#2BFFE8" stroke-width="0.554993"/>
<line x1="707.053" y1="222.765" x2="707.053" y2="231.645" stroke="#2BFFE8" stroke-width="0.554993"/>
<line x1="702.692" y1="312.033" x2="711.572" y2="312.033" stroke="#2BFFE8" stroke-width="0.554993"/>
<line x1="707.053" y1="307.647" x2="707.053" y2="316.527" stroke="#2BFFE8" stroke-width="0.554993"/>
<line x1="702.692" y1="396.915" x2="711.572" y2="396.915" stroke="#2BFFE8" stroke-width="0.554993"/>
<line x1="707.053" y1="392.53" x2="707.053" y2="401.41" stroke="#2BFFE8" stroke-width="0.554993"/>
<line x1="702.692" y1="481.798" x2="711.572" y2="481.798" stroke="#2BFFE8" stroke-width="0.554993"/>
<line x1="707.053" y1="477.413" x2="707.053" y2="486.292" stroke="#2BFFE8" stroke-width="0.554993"/>
<line x1="702.692" y1="566.68" x2="711.572" y2="566.68" stroke="#2BFFE8" stroke-width="0.554993"/>
<line x1="707.053" y1="562.295" x2="707.053" y2="571.175" stroke="#2BFFE8" stroke-width="0.554993"/>
<line x1="702.692" y1="651.563" x2="711.572" y2="651.563" stroke="#2BFFE8" stroke-width="0.554993"/>
<line x1="707.053" y1="647.177" x2="707.053" y2="656.057" stroke="#2BFFE8" stroke-width="0.554993"/>
<line x1="702.692" y1="736.445" x2="711.572" y2="736.445" stroke="#2BFFE8" stroke-width="0.554993"/>
<line x1="707.053" y1="732.06" x2="707.053" y2="740.94" stroke="#2BFFE8" stroke-width="0.554993"/>
<line x1="702.692" y1="821.328" x2="711.572" y2="821.328" stroke="#2BFFE8" stroke-width="0.554993"/>
<line x1="707.053" y1="816.943" x2="707.053" y2="825.822" stroke="#2BFFE8" stroke-width="0.554993"/>
<line x1="702.692" y1="906.21" x2="711.572" y2="906.21" stroke="#2BFFE8" stroke-width="0.554993"/>
<line x1="707.053" y1="901.825" x2="707.053" y2="910.705" stroke="#2BFFE8" stroke-width="0.554993"/>
<line x1="702.692" y1="991.093" x2="711.572" y2="991.093" stroke="#2BFFE8" stroke-width="0.554993"/>
<line x1="707.053" y1="986.708" x2="707.053" y2="995.587" stroke="#2BFFE8" stroke-width="0.554993"/>
<line x1="702.692" y1="1075.98" x2="711.572" y2="1075.98" stroke="#2BFFE8" stroke-width="0.554993"/>
<line x1="707.053" y1="1071.59" x2="707.053" y2="1080.47" stroke="#2BFFE8" stroke-width="0.554993"/>
<line x1="702.692" y1="1160.86" x2="711.572" y2="1160.86" stroke="#2BFFE8" stroke-width="0.554993"/>
<line x1="707.053" y1="1156.47" x2="707.053" y2="1165.35" stroke="#2BFFE8" stroke-width="0.554993"/>
<line x1="702.692" y1="1245.74" x2="711.572" y2="1245.74" stroke="#2BFFE8" stroke-width="0.554993"/>
<line x1="707.053" y1="1241.36" x2="707.053" y2="1250.24" stroke="#2BFFE8" stroke-width="0.554993"/>
<line x1="702.692" y1="1330.62" x2="711.572" y2="1330.62" stroke="#2BFFE8" stroke-width="0.554993"/>
<line x1="707.053" y1="1326.24" x2="707.053" y2="1335.12" stroke="#2BFFE8" stroke-width="0.554993"/>
<line x1="702.692" y1="1415.51" x2="711.572" y2="1415.51" stroke="#2BFFE8" stroke-width="0.554993"/>
<line x1="707.053" y1="1411.12" x2="707.053" y2="1420" stroke="#2BFFE8" stroke-width="0.554993"/>
<line x1="780.769" y1="57.3853" x2="789.649" y2="57.3853" stroke="#2BFFE8" stroke-width="0.554993"/>
<line x1="785.13" y1="53" x2="785.13" y2="61.8799" stroke="#2BFFE8" stroke-width="0.554993"/>
<line x1="780.769" y1="142.268" x2="789.649" y2="142.268" stroke="#2BFFE8" stroke-width="0.554993"/>
<line x1="785.13" y1="137.883" x2="785.13" y2="146.762" stroke="#2BFFE8" stroke-width="0.554993"/>
<line x1="780.769" y1="227.15" x2="789.649" y2="227.15" stroke="#2BFFE8" stroke-width="0.554993"/>
<line x1="785.13" y1="222.765" x2="785.13" y2="231.645" stroke="#2BFFE8" stroke-width="0.554993"/>
<line x1="780.769" y1="312.033" x2="789.649" y2="312.033" stroke="#2BFFE8" stroke-width="0.554993"/>
<line x1="785.13" y1="307.647" x2="785.13" y2="316.527" stroke="#2BFFE8" stroke-width="0.554993"/>
<line x1="780.769" y1="396.915" x2="789.649" y2="396.915" stroke="#2BFFE8" stroke-width="0.554993"/>
<line x1="785.13" y1="392.53" x2="785.13" y2="401.41" stroke="#2BFFE8" stroke-width="0.554993"/>
<line x1="780.769" y1="481.798" x2="789.649" y2="481.798" stroke="#2BFFE8" stroke-width="0.554993"/>
<line x1="785.13" y1="477.413" x2="785.13" y2="486.292" stroke="#2BFFE8" stroke-width="0.554993"/>
<line x1="780.769" y1="566.68" x2="789.649" y2="566.68" stroke="#2BFFE8" stroke-width="0.554993"/>
<line x1="785.13" y1="562.295" x2="785.13" y2="571.175" stroke="#2BFFE8" stroke-width="0.554993"/>
<line x1="780.769" y1="651.563" x2="789.649" y2="651.563" stroke="#2BFFE8" stroke-width="0.554993"/>
<line x1="785.13" y1="647.177" x2="785.13" y2="656.057" stroke="#2BFFE8" stroke-width="0.554993"/>
<line x1="780.769" y1="736.445" x2="789.649" y2="736.445" stroke="#2BFFE8" stroke-width="0.554993"/>
<line x1="785.13" y1="732.06" x2="785.13" y2="740.94" stroke="#2BFFE8" stroke-width="0.554993"/>
<line x1="780.769" y1="821.328" x2="789.649" y2="821.328" stroke="#2BFFE8" stroke-width="0.554993"/>
<line x1="785.13" y1="816.943" x2="785.13" y2="825.822" stroke="#2BFFE8" stroke-width="0.554993"/>
<line x1="780.769" y1="906.21" x2="789.649" y2="906.21" stroke="#2BFFE8" stroke-width="0.554993"/>
<line x1="785.13" y1="901.825" x2="785.13" y2="910.705" stroke="#2BFFE8" stroke-width="0.554993"/>
<line x1="780.769" y1="991.093" x2="789.649" y2="991.093" stroke="#2BFFE8" stroke-width="0.554993"/>
<line x1="785.13" y1="986.708" x2="785.13" y2="995.587" stroke="#2BFFE8" stroke-width="0.554993"/>
<line x1="780.769" y1="1075.98" x2="789.649" y2="1075.98" stroke="#2BFFE8" stroke-width="0.554993"/>
<line x1="785.13" y1="1071.59" x2="785.13" y2="1080.47" stroke="#2BFFE8" stroke-width="0.554993"/>
<line x1="780.769" y1="1160.86" x2="789.649" y2="1160.86" stroke="#2BFFE8" stroke-width="0.554993"/>
<line x1="785.13" y1="1156.47" x2="785.13" y2="1165.35" stroke="#2BFFE8" stroke-width="0.554993"/>
<line x1="780.769" y1="1245.74" x2="789.649" y2="1245.74" stroke="#2BFFE8" stroke-width="0.554993"/>
<line x1="785.13" y1="1241.36" x2="785.13" y2="1250.24" stroke="#2BFFE8" stroke-width="0.554993"/>
<line x1="780.769" y1="1330.62" x2="789.649" y2="1330.62" stroke="#2BFFE8" stroke-width="0.554993"/>
<line x1="785.13" y1="1326.24" x2="785.13" y2="1335.12" stroke="#2BFFE8" stroke-width="0.554993"/>
<line x1="780.769" y1="1415.51" x2="789.649" y2="1415.51" stroke="#2BFFE8" stroke-width="0.554993"/>
<line x1="785.13" y1="1411.12" x2="785.13" y2="1420" stroke="#2BFFE8" stroke-width="0.554993"/>
<line x1="858.846" y1="57.3853" x2="867.726" y2="57.3853" stroke="#2BFFE8" stroke-width="0.554993"/>
<line x1="863.207" y1="53" x2="863.207" y2="61.8799" stroke="#2BFFE8" stroke-width="0.554993"/>
<line x1="858.846" y1="142.268" x2="867.726" y2="142.268" stroke="#2BFFE8" stroke-width="0.554993"/>
<line x1="863.207" y1="137.883" x2="863.207" y2="146.762" stroke="#2BFFE8" stroke-width="0.554993"/>
<line x1="858.846" y1="227.15" x2="867.726" y2="227.15" stroke="#2BFFE8" stroke-width="0.554993"/>
<line x1="863.207" y1="222.765" x2="863.207" y2="231.645" stroke="#2BFFE8" stroke-width="0.554993"/>
<line x1="858.846" y1="312.033" x2="867.726" y2="312.033" stroke="#2BFFE8" stroke-width="0.554993"/>
<line x1="863.207" y1="307.647" x2="863.207" y2="316.527" stroke="#2BFFE8" stroke-width="0.554993"/>
<line x1="858.846" y1="396.915" x2="867.726" y2="396.915" stroke="#2BFFE8" stroke-width="0.554993"/>
<line x1="863.207" y1="392.53" x2="863.207" y2="401.41" stroke="#2BFFE8" stroke-width="0.554993"/>
<line x1="858.846" y1="481.798" x2="867.726" y2="481.798" stroke="#2BFFE8" stroke-width="0.554993"/>
<line x1="863.207" y1="477.413" x2="863.207" y2="486.292" stroke="#2BFFE8" stroke-width="0.554993"/>
<line x1="858.846" y1="566.68" x2="867.726" y2="566.68" stroke="#2BFFE8" stroke-width="0.554993"/>
<line x1="863.207" y1="562.295" x2="863.207" y2="571.175" stroke="#2BFFE8" stroke-width="0.554993"/>
<line x1="858.846" y1="651.563" x2="867.726" y2="651.563" stroke="#2BFFE8" stroke-width="0.554993"/>
<line x1="863.207" y1="647.177" x2="863.207" y2="656.057" stroke="#2BFFE8" stroke-width="0.554993"/>
<line x1="858.846" y1="736.445" x2="867.726" y2="736.445" stroke="#2BFFE8" stroke-width="0.554993"/>
<line x1="863.207" y1="732.06" x2="863.207" y2="740.94" stroke="#2BFFE8" stroke-width="0.554993"/>
<line x1="858.846" y1="821.328" x2="867.726" y2="821.328" stroke="#2BFFE8" stroke-width="0.554993"/>
<line x1="863.207" y1="816.943" x2="863.207" y2="825.822" stroke="#2BFFE8" stroke-width="0.554993"/>
<line x1="858.846" y1="906.21" x2="867.726" y2="906.21" stroke="#2BFFE8" stroke-width="0.554993"/>
<line x1="863.207" y1="901.825" x2="863.207" y2="910.705" stroke="#2BFFE8" stroke-width="0.554993"/>
<line x1="858.846" y1="991.093" x2="867.726" y2="991.093" stroke="#2BFFE8" stroke-width="0.554993"/>
<line x1="863.207" y1="986.708" x2="863.207" y2="995.587" stroke="#2BFFE8" stroke-width="0.554993"/>
<line x1="858.846" y1="1075.98" x2="867.726" y2="1075.98" stroke="#2BFFE8" stroke-width="0.554993"/>
<line x1="863.207" y1="1071.59" x2="863.207" y2="1080.47" stroke="#2BFFE8" stroke-width="0.554993"/>
<line x1="858.846" y1="1160.86" x2="867.726" y2="1160.86" stroke="#2BFFE8" stroke-width="0.554993"/>
<line x1="863.207" y1="1156.47" x2="863.207" y2="1165.35" stroke="#2BFFE8" stroke-width="0.554993"/>
<line x1="858.846" y1="1245.74" x2="867.726" y2="1245.74" stroke="#2BFFE8" stroke-width="0.554993"/>
<line x1="863.207" y1="1241.36" x2="863.207" y2="1250.24" stroke="#2BFFE8" stroke-width="0.554993"/>
<line x1="858.846" y1="1330.62" x2="867.726" y2="1330.62" stroke="#2BFFE8" stroke-width="0.554993"/>
<line x1="863.207" y1="1326.24" x2="863.207" y2="1335.12" stroke="#2BFFE8" stroke-width="0.554993"/>
<line x1="858.846" y1="1415.51" x2="867.726" y2="1415.51" stroke="#2BFFE8" stroke-width="0.554993"/>
<line x1="863.207" y1="1411.12" x2="863.207" y2="1420" stroke="#2BFFE8" stroke-width="0.554993"/>
<line x1="936.923" y1="57.3853" x2="945.803" y2="57.3853" stroke="#2BFFE8" stroke-width="0.554993"/>
<line x1="941.284" y1="53" x2="941.284" y2="61.8799" stroke="#2BFFE8" stroke-width="0.554993"/>
<line x1="936.923" y1="142.268" x2="945.803" y2="142.268" stroke="#2BFFE8" stroke-width="0.554993"/>
<line x1="941.284" y1="137.883" x2="941.284" y2="146.762" stroke="#2BFFE8" stroke-width="0.554993"/>
<line x1="936.923" y1="227.15" x2="945.803" y2="227.15" stroke="#2BFFE8" stroke-width="0.554993"/>
<line x1="941.284" y1="222.765" x2="941.284" y2="231.645" stroke="#2BFFE8" stroke-width="0.554993"/>
<line x1="936.923" y1="312.033" x2="945.803" y2="312.033" stroke="#2BFFE8" stroke-width="0.554993"/>
<line x1="941.284" y1="307.647" x2="941.284" y2="316.527" stroke="#2BFFE8" stroke-width="0.554993"/>
<line x1="936.923" y1="396.915" x2="945.803" y2="396.915" stroke="#2BFFE8" stroke-width="0.554993"/>
<line x1="941.284" y1="392.53" x2="941.284" y2="401.41" stroke="#2BFFE8" stroke-width="0.554993"/>
<line x1="936.923" y1="481.798" x2="945.803" y2="481.798" stroke="#2BFFE8" stroke-width="0.554993"/>
<line x1="941.284" y1="477.413" x2="941.284" y2="486.292" stroke="#2BFFE8" stroke-width="0.554993"/>
<line x1="936.923" y1="566.68" x2="945.803" y2="566.68" stroke="#2BFFE8" stroke-width="0.554993"/>
<line x1="941.284" y1="562.295" x2="941.284" y2="571.175" stroke="#2BFFE8" stroke-width="0.554993"/>
<line x1="936.923" y1="651.563" x2="945.803" y2="651.563" stroke="#2BFFE8" stroke-width="0.554993"/>
<line x1="941.284" y1="647.177" x2="941.284" y2="656.057" stroke="#2BFFE8" stroke-width="0.554993"/>
<line x1="936.923" y1="736.445" x2="945.803" y2="736.445" stroke="#2BFFE8" stroke-width="0.554993"/>
<line x1="941.284" y1="732.06" x2="941.284" y2="740.94" stroke="#2BFFE8" stroke-width="0.554993"/>
<line x1="936.923" y1="821.328" x2="945.803" y2="821.328" stroke="#2BFFE8" stroke-width="0.554993"/>
<line x1="941.284" y1="816.943" x2="941.284" y2="825.822" stroke="#2BFFE8" stroke-width="0.554993"/>
<line x1="936.923" y1="906.21" x2="945.803" y2="906.21" stroke="#2BFFE8" stroke-width="0.554993"/>
<line x1="941.284" y1="901.825" x2="941.284" y2="910.705" stroke="#2BFFE8" stroke-width="0.554993"/>
<line x1="936.923" y1="991.093" x2="945.803" y2="991.093" stroke="#2BFFE8" stroke-width="0.554993"/>
<line x1="941.284" y1="986.708" x2="941.284" y2="995.587" stroke="#2BFFE8" stroke-width="0.554993"/>
<line x1="936.923" y1="1075.98" x2="945.803" y2="1075.98" stroke="#2BFFE8" stroke-width="0.554993"/>
<line x1="941.284" y1="1071.59" x2="941.284" y2="1080.47" stroke="#2BFFE8" stroke-width="0.554993"/>
<line x1="936.923" y1="1160.86" x2="945.803" y2="1160.86" stroke="#2BFFE8" stroke-width="0.554993"/>
<line x1="941.284" y1="1156.47" x2="941.284" y2="1165.35" stroke="#2BFFE8" stroke-width="0.554993"/>
<line x1="936.923" y1="1245.74" x2="945.803" y2="1245.74" stroke="#2BFFE8" stroke-width="0.554993"/>
<line x1="941.284" y1="1241.36" x2="941.284" y2="1250.24" stroke="#2BFFE8" stroke-width="0.554993"/>
<line x1="936.923" y1="1330.62" x2="945.803" y2="1330.62" stroke="#2BFFE8" stroke-width="0.554993"/>
<line x1="941.284" y1="1326.24" x2="941.284" y2="1335.12" stroke="#2BFFE8" stroke-width="0.554993"/>
<line x1="936.923" y1="1415.51" x2="945.803" y2="1415.51" stroke="#2BFFE8" stroke-width="0.554993"/>
<line x1="941.284" y1="1411.12" x2="941.284" y2="1420" stroke="#2BFFE8" stroke-width="0.554993"/>
<line x1="1015" y1="57.3853" x2="1023.88" y2="57.3853" stroke="#2BFFE8" stroke-width="0.554993"/>
<line x1="1019.36" y1="53" x2="1019.36" y2="61.8799" stroke="#2BFFE8" stroke-width="0.554993"/>
<line x1="1015" y1="142.268" x2="1023.88" y2="142.268" stroke="#2BFFE8" stroke-width="0.554993"/>
<line x1="1019.36" y1="137.883" x2="1019.36" y2="146.762" stroke="#2BFFE8" stroke-width="0.554993"/>
<line x1="1015" y1="227.15" x2="1023.88" y2="227.15" stroke="#2BFFE8" stroke-width="0.554993"/>
<line x1="1019.36" y1="222.765" x2="1019.36" y2="231.645" stroke="#2BFFE8" stroke-width="0.554993"/>
<line x1="1015" y1="312.033" x2="1023.88" y2="312.033" stroke="#2BFFE8" stroke-width="0.554993"/>
<line x1="1019.36" y1="307.647" x2="1019.36" y2="316.527" stroke="#2BFFE8" stroke-width="0.554993"/>
<line x1="1015" y1="396.915" x2="1023.88" y2="396.915" stroke="#2BFFE8" stroke-width="0.554993"/>
<line x1="1019.36" y1="392.53" x2="1019.36" y2="401.41" stroke="#2BFFE8" stroke-width="0.554993"/>
<line x1="1015" y1="481.798" x2="1023.88" y2="481.798" stroke="#2BFFE8" stroke-width="0.554993"/>
<line x1="1019.36" y1="477.413" x2="1019.36" y2="486.292" stroke="#2BFFE8" stroke-width="0.554993"/>
<line x1="1015" y1="566.68" x2="1023.88" y2="566.68" stroke="#2BFFE8" stroke-width="0.554993"/>
<line x1="1019.36" y1="562.295" x2="1019.36" y2="571.175" stroke="#2BFFE8" stroke-width="0.554993"/>
<line x1="1015" y1="651.563" x2="1023.88" y2="651.563" stroke="#2BFFE8" stroke-width="0.554993"/>
<line x1="1019.36" y1="647.177" x2="1019.36" y2="656.057" stroke="#2BFFE8" stroke-width="0.554993"/>
<line x1="1015" y1="736.445" x2="1023.88" y2="736.445" stroke="#2BFFE8" stroke-width="0.554993"/>
<line x1="1019.36" y1="732.06" x2="1019.36" y2="740.94" stroke="#2BFFE8" stroke-width="0.554993"/>
<line x1="1015" y1="821.328" x2="1023.88" y2="821.328" stroke="#2BFFE8" stroke-width="0.554993"/>
<line x1="1019.36" y1="816.943" x2="1019.36" y2="825.822" stroke="#2BFFE8" stroke-width="0.554993"/>
<line x1="1015" y1="906.21" x2="1023.88" y2="906.21" stroke="#2BFFE8" stroke-width="0.554993"/>
<line x1="1019.36" y1="901.825" x2="1019.36" y2="910.705" stroke="#2BFFE8" stroke-width="0.554993"/>
<line x1="1015" y1="991.093" x2="1023.88" y2="991.093" stroke="#2BFFE8" stroke-width="0.554993"/>
<line x1="1019.36" y1="986.708" x2="1019.36" y2="995.587" stroke="#2BFFE8" stroke-width="0.554993"/>
<line x1="1015" y1="1075.98" x2="1023.88" y2="1075.98" stroke="#2BFFE8" stroke-width="0.554993"/>
<line x1="1019.36" y1="1071.59" x2="1019.36" y2="1080.47" stroke="#2BFFE8" stroke-width="0.554993"/>
<line x1="1015" y1="1160.86" x2="1023.88" y2="1160.86" stroke="#2BFFE8" stroke-width="0.554993"/>
<line x1="1019.36" y1="1156.47" x2="1019.36" y2="1165.35" stroke="#2BFFE8" stroke-width="0.554993"/>
<line x1="1015" y1="1245.74" x2="1023.88" y2="1245.74" stroke="#2BFFE8" stroke-width="0.554993"/>
<line x1="1019.36" y1="1241.36" x2="1019.36" y2="1250.24" stroke="#2BFFE8" stroke-width="0.554993"/>
<line x1="1015" y1="1330.62" x2="1023.88" y2="1330.62" stroke="#2BFFE8" stroke-width="0.554993"/>
<line x1="1019.36" y1="1326.24" x2="1019.36" y2="1335.12" stroke="#2BFFE8" stroke-width="0.554993"/>
<line x1="1015" y1="1415.51" x2="1023.88" y2="1415.51" stroke="#2BFFE8" stroke-width="0.554993"/>
<line x1="1019.36" y1="1411.12" x2="1019.36" y2="1420" stroke="#2BFFE8" stroke-width="0.554993"/>
</g>
</svg>
