<svg width="1017" height="8" viewBox="0 0 1017 8" fill="none" xmlns="http://www.w3.org/2000/svg">
<rect width="5.99999" height="6.27782" rx="2.02703" transform="matrix(-1 1.40947e-09 -5.42242e-06 -1 7 7.27783)" fill="#2BFFE8"/>
<rect width="5.99999" height="6.27782" rx="2.02703" transform="matrix(-1 1.40947e-09 -5.42242e-06 -1 7 7.27783)" stroke="#2BFFE8" stroke-width="1.01351"/>
<rect width="6.08108" height="6.27782" rx="2.02703" transform="matrix(-1 1.89503e-09 -4.03304e-06 -1 84.6216 7.27783)" stroke="#2BFFE8" stroke-width="1.01351"/>
<rect width="6.08108" height="6.27782" rx="2.02703" transform="matrix(-1 1.89503e-09 -4.03304e-06 -1 162.243 7.27783)" stroke="#2BFFE8" stroke-width="1.01351"/>
<rect width="6.08108" height="6.27782" rx="2.02703" transform="matrix(-1 1.89503e-09 -4.03304e-06 -1 239.865 7.27783)" stroke="#2BFFE8" stroke-width="1.01351"/>
<rect width="6.08108" height="6.27782" rx="2.02703" transform="matrix(-1 1.89503e-09 -4.03304e-06 -1 317.487 7.27783)" stroke="#2BFFE8" stroke-width="1.01351"/>
<rect width="6.08108" height="6.27782" rx="2.02703" transform="matrix(-1 1.89503e-09 -4.03304e-06 -1 395.108 7.27783)" stroke="#2BFFE8" stroke-width="1.01351"/>
<rect width="6.08108" height="6.27782" rx="2.02703" transform="matrix(-1 1.89503e-09 -4.03304e-06 -1 472.73 7.27783)" stroke="#2BFFE8" stroke-width="1.01351"/>
<rect width="6.08108" height="6.27782" rx="2.02703" transform="matrix(-1 1.89503e-09 -4.03304e-06 -1 550.351 7.27783)" stroke="#2BFFE8" stroke-width="1.01351"/>
<rect width="6.08108" height="6.27782" rx="2.02703" transform="matrix(-1 1.89503e-09 -4.03304e-06 -1 627.973 7.27783)" stroke="#2BFFE8" stroke-width="1.01351"/>
<rect width="6.08108" height="6.27782" rx="2.02703" transform="matrix(-1 1.89503e-09 -4.03304e-06 -1 705.594 7.27783)" stroke="#2BFFE8" stroke-width="1.01351"/>
<rect width="6.08108" height="6.27782" rx="2.02703" transform="matrix(-1 1.89503e-09 -4.03304e-06 -1 783.216 7.27783)" stroke="#2BFFE8" stroke-width="1.01351"/>
<rect width="6.08108" height="6.27782" rx="2.02703" transform="matrix(-1 1.89503e-09 -4.03304e-06 -1 860.838 7.27783)" stroke="#2BFFE8" stroke-width="1.01351"/>
<rect width="6.08108" height="6.27782" rx="2.02703" transform="matrix(-1 1.89503e-09 -4.03304e-06 -1 938.459 7.27783)" stroke="#2BFFE8" stroke-width="1.01351"/>
<rect width="5.99999" height="6.27782" rx="2.02703" transform="matrix(-1 1.40947e-09 -5.42242e-06 -1 1016 7.27783)" fill="#2BFFE8"/>
<rect width="5.99999" height="6.27782" rx="2.02703" transform="matrix(-1 1.40947e-09 -5.42242e-06 -1 1016 7.27783)" stroke="#2BFFE8" stroke-width="1.01351"/>
</svg>
