<svg width="1024" height="1366" viewBox="0 0 1024 1366" fill="none" xmlns="http://www.w3.org/2000/svg">
<g opacity="0.4">
<line x1="-0.179688" y1="3.38535" x2="8.7002" y2="3.38535" stroke="#2BFFE8" stroke-width="0.554993"/>
<line x1="4.18094" y1="-1" x2="4.18094" y2="7.87988" stroke="#2BFFE8" stroke-width="0.554993"/>
<line x1="-0.179688" y1="88.2679" x2="8.7002" y2="88.2679" stroke="#2BFFE8" stroke-width="0.554993"/>
<line x1="4.18094" y1="83.8826" x2="4.18094" y2="92.7625" stroke="#2BFFE8" stroke-width="0.554993"/>
<line x1="-0.179688" y1="173.15" x2="8.7002" y2="173.15" stroke="#2BFFE8" stroke-width="0.554993"/>
<line x1="4.18094" y1="168.765" x2="4.18094" y2="177.645" stroke="#2BFFE8" stroke-width="0.554993"/>
<line x1="-0.179688" y1="258.033" x2="8.7002" y2="258.033" stroke="#2BFFE8" stroke-width="0.554993"/>
<line x1="4.18094" y1="253.647" x2="4.18094" y2="262.527" stroke="#2BFFE8" stroke-width="0.554993"/>
<line x1="-0.179688" y1="342.915" x2="8.7002" y2="342.915" stroke="#2BFFE8" stroke-width="0.554993"/>
<line x1="4.18094" y1="338.53" x2="4.18094" y2="347.41" stroke="#2BFFE8" stroke-width="0.554993"/>
<line x1="-0.179688" y1="427.798" x2="8.7002" y2="427.798" stroke="#2BFFE8" stroke-width="0.554993"/>
<line x1="4.18094" y1="423.413" x2="4.18094" y2="432.292" stroke="#2BFFE8" stroke-width="0.554993"/>
<line x1="-0.179688" y1="512.68" x2="8.7002" y2="512.68" stroke="#2BFFE8" stroke-width="0.554993"/>
<line x1="4.18094" y1="508.295" x2="4.18094" y2="517.175" stroke="#2BFFE8" stroke-width="0.554993"/>
<line x1="-0.179688" y1="597.563" x2="8.7002" y2="597.563" stroke="#2BFFE8" stroke-width="0.554993"/>
<line x1="4.18094" y1="593.177" x2="4.18094" y2="602.057" stroke="#2BFFE8" stroke-width="0.554993"/>
<line x1="-0.179688" y1="682.445" x2="8.7002" y2="682.445" stroke="#2BFFE8" stroke-width="0.554993"/>
<line x1="4.18094" y1="678.06" x2="4.18094" y2="686.94" stroke="#2BFFE8" stroke-width="0.554993"/>
<line x1="-0.179688" y1="767.328" x2="8.7002" y2="767.328" stroke="#2BFFE8" stroke-width="0.554993"/>
<line x1="4.18094" y1="762.943" x2="4.18094" y2="771.823" stroke="#2BFFE8" stroke-width="0.554993"/>
<line x1="-0.179688" y1="852.211" x2="8.7002" y2="852.211" stroke="#2BFFE8" stroke-width="0.554993"/>
<line x1="4.18094" y1="847.825" x2="4.18094" y2="856.705" stroke="#2BFFE8" stroke-width="0.554993"/>
<line x1="-0.179688" y1="937.093" x2="8.7002" y2="937.093" stroke="#2BFFE8" stroke-width="0.554993"/>
<line x1="4.18094" y1="932.708" x2="4.18094" y2="941.587" stroke="#2BFFE8" stroke-width="0.554993"/>
<line x1="-0.179688" y1="1021.98" x2="8.7002" y2="1021.98" stroke="#2BFFE8" stroke-width="0.554993"/>
<line x1="4.18094" y1="1017.59" x2="4.18094" y2="1026.47" stroke="#2BFFE8" stroke-width="0.554993"/>
<line x1="-0.179688" y1="1106.86" x2="8.7002" y2="1106.86" stroke="#2BFFE8" stroke-width="0.554993"/>
<line x1="4.18094" y1="1102.47" x2="4.18094" y2="1111.35" stroke="#2BFFE8" stroke-width="0.554993"/>
<line x1="-0.179688" y1="1191.74" x2="8.7002" y2="1191.74" stroke="#2BFFE8" stroke-width="0.554993"/>
<line x1="4.18094" y1="1187.36" x2="4.18094" y2="1196.24" stroke="#2BFFE8" stroke-width="0.554993"/>
<line x1="-0.179688" y1="1276.62" x2="8.7002" y2="1276.62" stroke="#2BFFE8" stroke-width="0.554993"/>
<line x1="4.18094" y1="1272.24" x2="4.18094" y2="1281.12" stroke="#2BFFE8" stroke-width="0.554993"/>
<line x1="-0.179688" y1="1361.51" x2="8.7002" y2="1361.51" stroke="#2BFFE8" stroke-width="0.554993"/>
<line x1="4.18094" y1="1357.12" x2="4.18094" y2="1366" stroke="#2BFFE8" stroke-width="0.554993"/>
<line x1="77.8972" y1="3.38535" x2="86.7771" y2="3.38535" stroke="#2BFFE8" stroke-width="0.554993"/>
<line x1="82.2578" y1="-1" x2="82.2578" y2="7.87988" stroke="#2BFFE8" stroke-width="0.554993"/>
<line x1="77.8972" y1="88.2679" x2="86.7771" y2="88.2679" stroke="#2BFFE8" stroke-width="0.554993"/>
<line x1="82.2578" y1="83.8826" x2="82.2578" y2="92.7625" stroke="#2BFFE8" stroke-width="0.554993"/>
<line x1="77.8972" y1="173.15" x2="86.7771" y2="173.15" stroke="#2BFFE8" stroke-width="0.554993"/>
<line x1="82.2578" y1="168.765" x2="82.2578" y2="177.645" stroke="#2BFFE8" stroke-width="0.554993"/>
<line x1="77.8972" y1="258.033" x2="86.7771" y2="258.033" stroke="#2BFFE8" stroke-width="0.554993"/>
<line x1="82.2578" y1="253.647" x2="82.2578" y2="262.527" stroke="#2BFFE8" stroke-width="0.554993"/>
<line x1="77.8972" y1="342.915" x2="86.7771" y2="342.915" stroke="#2BFFE8" stroke-width="0.554993"/>
<line x1="82.2578" y1="338.53" x2="82.2578" y2="347.41" stroke="#2BFFE8" stroke-width="0.554993"/>
<line x1="77.8972" y1="427.798" x2="86.7771" y2="427.798" stroke="#2BFFE8" stroke-width="0.554993"/>
<line x1="82.2578" y1="423.413" x2="82.2578" y2="432.292" stroke="#2BFFE8" stroke-width="0.554993"/>
<line x1="77.8972" y1="512.68" x2="86.7771" y2="512.68" stroke="#2BFFE8" stroke-width="0.554993"/>
<line x1="82.2578" y1="508.295" x2="82.2578" y2="517.175" stroke="#2BFFE8" stroke-width="0.554993"/>
<line x1="77.8972" y1="597.563" x2="86.7771" y2="597.563" stroke="#2BFFE8" stroke-width="0.554993"/>
<line x1="82.2578" y1="593.177" x2="82.2578" y2="602.057" stroke="#2BFFE8" stroke-width="0.554993"/>
<line x1="77.8972" y1="682.445" x2="86.7771" y2="682.445" stroke="#2BFFE8" stroke-width="0.554993"/>
<line x1="82.2578" y1="678.06" x2="82.2578" y2="686.94" stroke="#2BFFE8" stroke-width="0.554993"/>
<line x1="77.8972" y1="767.328" x2="86.7771" y2="767.328" stroke="#2BFFE8" stroke-width="0.554993"/>
<line x1="82.2578" y1="762.943" x2="82.2578" y2="771.823" stroke="#2BFFE8" stroke-width="0.554993"/>
<line x1="77.8972" y1="852.211" x2="86.7771" y2="852.211" stroke="#2BFFE8" stroke-width="0.554993"/>
<line x1="82.2578" y1="847.825" x2="82.2578" y2="856.705" stroke="#2BFFE8" stroke-width="0.554993"/>
<line x1="77.8972" y1="937.093" x2="86.7771" y2="937.093" stroke="#2BFFE8" stroke-width="0.554993"/>
<line x1="82.2578" y1="932.708" x2="82.2578" y2="941.587" stroke="#2BFFE8" stroke-width="0.554993"/>
<line x1="77.8972" y1="1021.98" x2="86.7771" y2="1021.98" stroke="#2BFFE8" stroke-width="0.554993"/>
<line x1="82.2578" y1="1017.59" x2="82.2578" y2="1026.47" stroke="#2BFFE8" stroke-width="0.554993"/>
<line x1="77.8972" y1="1106.86" x2="86.7771" y2="1106.86" stroke="#2BFFE8" stroke-width="0.554993"/>
<line x1="82.2578" y1="1102.47" x2="82.2578" y2="1111.35" stroke="#2BFFE8" stroke-width="0.554993"/>
<line x1="77.8972" y1="1191.74" x2="86.7771" y2="1191.74" stroke="#2BFFE8" stroke-width="0.554993"/>
<line x1="82.2578" y1="1187.36" x2="82.2578" y2="1196.24" stroke="#2BFFE8" stroke-width="0.554993"/>
<line x1="77.8972" y1="1276.62" x2="86.7771" y2="1276.62" stroke="#2BFFE8" stroke-width="0.554993"/>
<line x1="82.2578" y1="1272.24" x2="82.2578" y2="1281.12" stroke="#2BFFE8" stroke-width="0.554993"/>
<line x1="77.8972" y1="1361.51" x2="86.7771" y2="1361.51" stroke="#2BFFE8" stroke-width="0.554993"/>
<line x1="82.2578" y1="1357.12" x2="82.2578" y2="1366" stroke="#2BFFE8" stroke-width="0.554993"/>
<line x1="155.974" y1="3.38535" x2="164.854" y2="3.38535" stroke="#2BFFE8" stroke-width="0.554993"/>
<line x1="160.335" y1="-1" x2="160.335" y2="7.87988" stroke="#2BFFE8" stroke-width="0.554993"/>
<line x1="155.974" y1="88.2679" x2="164.854" y2="88.2679" stroke="#2BFFE8" stroke-width="0.554993"/>
<line x1="160.335" y1="83.8826" x2="160.335" y2="92.7625" stroke="#2BFFE8" stroke-width="0.554993"/>
<line x1="155.974" y1="173.15" x2="164.854" y2="173.15" stroke="#2BFFE8" stroke-width="0.554993"/>
<line x1="160.335" y1="168.765" x2="160.335" y2="177.645" stroke="#2BFFE8" stroke-width="0.554993"/>
<line x1="155.974" y1="258.033" x2="164.854" y2="258.033" stroke="#2BFFE8" stroke-width="0.554993"/>
<line x1="160.335" y1="253.647" x2="160.335" y2="262.527" stroke="#2BFFE8" stroke-width="0.554993"/>
<line x1="155.974" y1="342.915" x2="164.854" y2="342.915" stroke="#2BFFE8" stroke-width="0.554993"/>
<line x1="160.335" y1="338.53" x2="160.335" y2="347.41" stroke="#2BFFE8" stroke-width="0.554993"/>
<line x1="155.974" y1="427.798" x2="164.854" y2="427.798" stroke="#2BFFE8" stroke-width="0.554993"/>
<line x1="160.335" y1="423.413" x2="160.335" y2="432.292" stroke="#2BFFE8" stroke-width="0.554993"/>
<line x1="155.974" y1="512.68" x2="164.854" y2="512.68" stroke="#2BFFE8" stroke-width="0.554993"/>
<line x1="160.335" y1="508.295" x2="160.335" y2="517.175" stroke="#2BFFE8" stroke-width="0.554993"/>
<line x1="155.974" y1="597.563" x2="164.854" y2="597.563" stroke="#2BFFE8" stroke-width="0.554993"/>
<line x1="160.335" y1="593.177" x2="160.335" y2="602.057" stroke="#2BFFE8" stroke-width="0.554993"/>
<line x1="155.974" y1="682.445" x2="164.854" y2="682.445" stroke="#2BFFE8" stroke-width="0.554993"/>
<line x1="160.335" y1="678.06" x2="160.335" y2="686.94" stroke="#2BFFE8" stroke-width="0.554993"/>
<line x1="155.974" y1="767.328" x2="164.854" y2="767.328" stroke="#2BFFE8" stroke-width="0.554993"/>
<line x1="160.335" y1="762.943" x2="160.335" y2="771.823" stroke="#2BFFE8" stroke-width="0.554993"/>
<line x1="155.974" y1="852.211" x2="164.854" y2="852.211" stroke="#2BFFE8" stroke-width="0.554993"/>
<line x1="160.335" y1="847.825" x2="160.335" y2="856.705" stroke="#2BFFE8" stroke-width="0.554993"/>
<line x1="155.974" y1="937.093" x2="164.854" y2="937.093" stroke="#2BFFE8" stroke-width="0.554993"/>
<line x1="160.335" y1="932.708" x2="160.335" y2="941.587" stroke="#2BFFE8" stroke-width="0.554993"/>
<line x1="155.974" y1="1021.98" x2="164.854" y2="1021.98" stroke="#2BFFE8" stroke-width="0.554993"/>
<line x1="160.335" y1="1017.59" x2="160.335" y2="1026.47" stroke="#2BFFE8" stroke-width="0.554993"/>
<line x1="155.974" y1="1106.86" x2="164.854" y2="1106.86" stroke="#2BFFE8" stroke-width="0.554993"/>
<line x1="160.335" y1="1102.47" x2="160.335" y2="1111.35" stroke="#2BFFE8" stroke-width="0.554993"/>
<line x1="155.974" y1="1191.74" x2="164.854" y2="1191.74" stroke="#2BFFE8" stroke-width="0.554993"/>
<line x1="160.335" y1="1187.36" x2="160.335" y2="1196.24" stroke="#2BFFE8" stroke-width="0.554993"/>
<line x1="155.974" y1="1276.62" x2="164.854" y2="1276.62" stroke="#2BFFE8" stroke-width="0.554993"/>
<line x1="160.335" y1="1272.24" x2="160.335" y2="1281.12" stroke="#2BFFE8" stroke-width="0.554993"/>
<line x1="155.974" y1="1361.51" x2="164.854" y2="1361.51" stroke="#2BFFE8" stroke-width="0.554993"/>
<line x1="160.335" y1="1357.12" x2="160.335" y2="1366" stroke="#2BFFE8" stroke-width="0.554993"/>
<line x1="234.051" y1="3.38535" x2="242.931" y2="3.38535" stroke="#2BFFE8" stroke-width="0.554993"/>
<line x1="238.412" y1="-1" x2="238.412" y2="7.87988" stroke="#2BFFE8" stroke-width="0.554993"/>
<line x1="234.051" y1="88.2679" x2="242.931" y2="88.2679" stroke="#2BFFE8" stroke-width="0.554993"/>
<line x1="238.412" y1="83.8826" x2="238.412" y2="92.7625" stroke="#2BFFE8" stroke-width="0.554993"/>
<line x1="234.051" y1="173.15" x2="242.931" y2="173.15" stroke="#2BFFE8" stroke-width="0.554993"/>
<line x1="238.412" y1="168.765" x2="238.412" y2="177.645" stroke="#2BFFE8" stroke-width="0.554993"/>
<line x1="234.051" y1="258.033" x2="242.931" y2="258.033" stroke="#2BFFE8" stroke-width="0.554993"/>
<line x1="238.412" y1="253.647" x2="238.412" y2="262.527" stroke="#2BFFE8" stroke-width="0.554993"/>
<line x1="234.051" y1="342.915" x2="242.931" y2="342.915" stroke="#2BFFE8" stroke-width="0.554993"/>
<line x1="238.412" y1="338.53" x2="238.412" y2="347.41" stroke="#2BFFE8" stroke-width="0.554993"/>
<line x1="234.051" y1="427.798" x2="242.931" y2="427.798" stroke="#2BFFE8" stroke-width="0.554993"/>
<line x1="238.412" y1="423.413" x2="238.412" y2="432.292" stroke="#2BFFE8" stroke-width="0.554993"/>
<line x1="234.051" y1="512.68" x2="242.931" y2="512.68" stroke="#2BFFE8" stroke-width="0.554993"/>
<line x1="238.412" y1="508.295" x2="238.412" y2="517.175" stroke="#2BFFE8" stroke-width="0.554993"/>
<line x1="234.051" y1="597.563" x2="242.931" y2="597.563" stroke="#2BFFE8" stroke-width="0.554993"/>
<line x1="238.412" y1="593.177" x2="238.412" y2="602.057" stroke="#2BFFE8" stroke-width="0.554993"/>
<line x1="234.051" y1="682.445" x2="242.931" y2="682.445" stroke="#2BFFE8" stroke-width="0.554993"/>
<line x1="238.412" y1="678.06" x2="238.412" y2="686.94" stroke="#2BFFE8" stroke-width="0.554993"/>
<line x1="234.051" y1="767.328" x2="242.931" y2="767.328" stroke="#2BFFE8" stroke-width="0.554993"/>
<line x1="238.412" y1="762.943" x2="238.412" y2="771.823" stroke="#2BFFE8" stroke-width="0.554993"/>
<line x1="234.051" y1="852.211" x2="242.931" y2="852.211" stroke="#2BFFE8" stroke-width="0.554993"/>
<line x1="238.412" y1="847.825" x2="238.412" y2="856.705" stroke="#2BFFE8" stroke-width="0.554993"/>
<line x1="234.051" y1="937.093" x2="242.931" y2="937.093" stroke="#2BFFE8" stroke-width="0.554993"/>
<line x1="238.412" y1="932.708" x2="238.412" y2="941.587" stroke="#2BFFE8" stroke-width="0.554993"/>
<line x1="234.051" y1="1021.98" x2="242.931" y2="1021.98" stroke="#2BFFE8" stroke-width="0.554993"/>
<line x1="238.412" y1="1017.59" x2="238.412" y2="1026.47" stroke="#2BFFE8" stroke-width="0.554993"/>
<line x1="234.051" y1="1106.86" x2="242.931" y2="1106.86" stroke="#2BFFE8" stroke-width="0.554993"/>
<line x1="238.412" y1="1102.47" x2="238.412" y2="1111.35" stroke="#2BFFE8" stroke-width="0.554993"/>
<line x1="234.051" y1="1191.74" x2="242.931" y2="1191.74" stroke="#2BFFE8" stroke-width="0.554993"/>
<line x1="238.412" y1="1187.36" x2="238.412" y2="1196.24" stroke="#2BFFE8" stroke-width="0.554993"/>
<line x1="234.051" y1="1276.62" x2="242.931" y2="1276.62" stroke="#2BFFE8" stroke-width="0.554993"/>
<line x1="238.412" y1="1272.24" x2="238.412" y2="1281.12" stroke="#2BFFE8" stroke-width="0.554993"/>
<line x1="234.051" y1="1361.51" x2="242.931" y2="1361.51" stroke="#2BFFE8" stroke-width="0.554993"/>
<line x1="238.412" y1="1357.12" x2="238.412" y2="1366" stroke="#2BFFE8" stroke-width="0.554993"/>
<line x1="312.128" y1="3.38535" x2="321.008" y2="3.38535" stroke="#2BFFE8" stroke-width="0.554993"/>
<line x1="316.489" y1="-1" x2="316.489" y2="7.87988" stroke="#2BFFE8" stroke-width="0.554993"/>
<line x1="312.128" y1="88.2679" x2="321.008" y2="88.2679" stroke="#2BFFE8" stroke-width="0.554993"/>
<line x1="316.489" y1="83.8826" x2="316.489" y2="92.7625" stroke="#2BFFE8" stroke-width="0.554993"/>
<line x1="312.128" y1="173.15" x2="321.008" y2="173.15" stroke="#2BFFE8" stroke-width="0.554993"/>
<line x1="316.489" y1="168.765" x2="316.489" y2="177.645" stroke="#2BFFE8" stroke-width="0.554993"/>
<line x1="312.128" y1="258.033" x2="321.008" y2="258.033" stroke="#2BFFE8" stroke-width="0.554993"/>
<line x1="316.489" y1="253.647" x2="316.489" y2="262.527" stroke="#2BFFE8" stroke-width="0.554993"/>
<line x1="312.128" y1="342.915" x2="321.008" y2="342.915" stroke="#2BFFE8" stroke-width="0.554993"/>
<line x1="316.489" y1="338.53" x2="316.489" y2="347.41" stroke="#2BFFE8" stroke-width="0.554993"/>
<line x1="312.128" y1="427.798" x2="321.008" y2="427.798" stroke="#2BFFE8" stroke-width="0.554993"/>
<line x1="316.489" y1="423.413" x2="316.489" y2="432.292" stroke="#2BFFE8" stroke-width="0.554993"/>
<line x1="312.128" y1="512.68" x2="321.008" y2="512.68" stroke="#2BFFE8" stroke-width="0.554993"/>
<line x1="316.489" y1="508.295" x2="316.489" y2="517.175" stroke="#2BFFE8" stroke-width="0.554993"/>
<line x1="312.128" y1="597.563" x2="321.008" y2="597.563" stroke="#2BFFE8" stroke-width="0.554993"/>
<line x1="316.489" y1="593.177" x2="316.489" y2="602.057" stroke="#2BFFE8" stroke-width="0.554993"/>
<line x1="312.128" y1="682.445" x2="321.008" y2="682.445" stroke="#2BFFE8" stroke-width="0.554993"/>
<line x1="316.489" y1="678.06" x2="316.489" y2="686.94" stroke="#2BFFE8" stroke-width="0.554993"/>
<line x1="312.128" y1="767.328" x2="321.008" y2="767.328" stroke="#2BFFE8" stroke-width="0.554993"/>
<line x1="316.489" y1="762.943" x2="316.489" y2="771.823" stroke="#2BFFE8" stroke-width="0.554993"/>
<line x1="312.128" y1="852.211" x2="321.008" y2="852.211" stroke="#2BFFE8" stroke-width="0.554993"/>
<line x1="316.489" y1="847.825" x2="316.489" y2="856.705" stroke="#2BFFE8" stroke-width="0.554993"/>
<line x1="312.128" y1="937.093" x2="321.008" y2="937.093" stroke="#2BFFE8" stroke-width="0.554993"/>
<line x1="316.489" y1="932.708" x2="316.489" y2="941.587" stroke="#2BFFE8" stroke-width="0.554993"/>
<line x1="312.128" y1="1021.98" x2="321.008" y2="1021.98" stroke="#2BFFE8" stroke-width="0.554993"/>
<line x1="316.489" y1="1017.59" x2="316.489" y2="1026.47" stroke="#2BFFE8" stroke-width="0.554993"/>
<line x1="312.128" y1="1106.86" x2="321.008" y2="1106.86" stroke="#2BFFE8" stroke-width="0.554993"/>
<line x1="316.489" y1="1102.47" x2="316.489" y2="1111.35" stroke="#2BFFE8" stroke-width="0.554993"/>
<line x1="312.128" y1="1191.74" x2="321.008" y2="1191.74" stroke="#2BFFE8" stroke-width="0.554993"/>
<line x1="316.489" y1="1187.36" x2="316.489" y2="1196.24" stroke="#2BFFE8" stroke-width="0.554993"/>
<line x1="312.128" y1="1276.62" x2="321.008" y2="1276.62" stroke="#2BFFE8" stroke-width="0.554993"/>
<line x1="316.489" y1="1272.24" x2="316.489" y2="1281.12" stroke="#2BFFE8" stroke-width="0.554993"/>
<line x1="312.128" y1="1361.51" x2="321.008" y2="1361.51" stroke="#2BFFE8" stroke-width="0.554993"/>
<line x1="316.489" y1="1357.12" x2="316.489" y2="1366" stroke="#2BFFE8" stroke-width="0.554993"/>
<line x1="390.205" y1="3.38535" x2="399.085" y2="3.38535" stroke="#2BFFE8" stroke-width="0.554993"/>
<line x1="394.565" y1="-1" x2="394.565" y2="7.87988" stroke="#2BFFE8" stroke-width="0.554993"/>
<line x1="390.205" y1="88.2679" x2="399.085" y2="88.2679" stroke="#2BFFE8" stroke-width="0.554993"/>
<line x1="394.565" y1="83.8826" x2="394.565" y2="92.7625" stroke="#2BFFE8" stroke-width="0.554993"/>
<line x1="390.205" y1="173.15" x2="399.085" y2="173.15" stroke="#2BFFE8" stroke-width="0.554993"/>
<line x1="394.565" y1="168.765" x2="394.565" y2="177.645" stroke="#2BFFE8" stroke-width="0.554993"/>
<line x1="390.205" y1="258.033" x2="399.085" y2="258.033" stroke="#2BFFE8" stroke-width="0.554993"/>
<line x1="394.565" y1="253.647" x2="394.565" y2="262.527" stroke="#2BFFE8" stroke-width="0.554993"/>
<line x1="390.205" y1="342.915" x2="399.085" y2="342.915" stroke="#2BFFE8" stroke-width="0.554993"/>
<line x1="394.565" y1="338.53" x2="394.565" y2="347.41" stroke="#2BFFE8" stroke-width="0.554993"/>
<line x1="390.205" y1="427.798" x2="399.085" y2="427.798" stroke="#2BFFE8" stroke-width="0.554993"/>
<line x1="394.565" y1="423.413" x2="394.565" y2="432.292" stroke="#2BFFE8" stroke-width="0.554993"/>
<line x1="390.205" y1="512.68" x2="399.085" y2="512.68" stroke="#2BFFE8" stroke-width="0.554993"/>
<line x1="394.565" y1="508.295" x2="394.565" y2="517.175" stroke="#2BFFE8" stroke-width="0.554993"/>
<line x1="390.205" y1="597.563" x2="399.085" y2="597.563" stroke="#2BFFE8" stroke-width="0.554993"/>
<line x1="394.565" y1="593.177" x2="394.565" y2="602.057" stroke="#2BFFE8" stroke-width="0.554993"/>
<line x1="390.205" y1="682.445" x2="399.085" y2="682.445" stroke="#2BFFE8" stroke-width="0.554993"/>
<line x1="394.565" y1="678.06" x2="394.565" y2="686.94" stroke="#2BFFE8" stroke-width="0.554993"/>
<line x1="390.205" y1="767.328" x2="399.085" y2="767.328" stroke="#2BFFE8" stroke-width="0.554993"/>
<line x1="394.565" y1="762.943" x2="394.565" y2="771.823" stroke="#2BFFE8" stroke-width="0.554993"/>
<line x1="390.205" y1="852.211" x2="399.085" y2="852.211" stroke="#2BFFE8" stroke-width="0.554993"/>
<line x1="394.565" y1="847.825" x2="394.565" y2="856.705" stroke="#2BFFE8" stroke-width="0.554993"/>
<line x1="390.205" y1="937.093" x2="399.085" y2="937.093" stroke="#2BFFE8" stroke-width="0.554993"/>
<line x1="394.565" y1="932.708" x2="394.565" y2="941.587" stroke="#2BFFE8" stroke-width="0.554993"/>
<line x1="390.205" y1="1021.98" x2="399.085" y2="1021.98" stroke="#2BFFE8" stroke-width="0.554993"/>
<line x1="394.565" y1="1017.59" x2="394.565" y2="1026.47" stroke="#2BFFE8" stroke-width="0.554993"/>
<line x1="390.205" y1="1106.86" x2="399.085" y2="1106.86" stroke="#2BFFE8" stroke-width="0.554993"/>
<line x1="394.565" y1="1102.47" x2="394.565" y2="1111.35" stroke="#2BFFE8" stroke-width="0.554993"/>
<line x1="390.205" y1="1191.74" x2="399.085" y2="1191.74" stroke="#2BFFE8" stroke-width="0.554993"/>
<line x1="394.565" y1="1187.36" x2="394.565" y2="1196.24" stroke="#2BFFE8" stroke-width="0.554993"/>
<line x1="390.205" y1="1276.62" x2="399.085" y2="1276.62" stroke="#2BFFE8" stroke-width="0.554993"/>
<line x1="394.565" y1="1272.24" x2="394.565" y2="1281.12" stroke="#2BFFE8" stroke-width="0.554993"/>
<line x1="390.205" y1="1361.51" x2="399.085" y2="1361.51" stroke="#2BFFE8" stroke-width="0.554993"/>
<line x1="394.565" y1="1357.12" x2="394.565" y2="1366" stroke="#2BFFE8" stroke-width="0.554993"/>
<line x1="468.282" y1="3.38535" x2="477.162" y2="3.38535" stroke="#2BFFE8" stroke-width="0.554993"/>
<line x1="472.642" y1="-1" x2="472.642" y2="7.87988" stroke="#2BFFE8" stroke-width="0.554993"/>
<line x1="468.282" y1="88.2679" x2="477.162" y2="88.2679" stroke="#2BFFE8" stroke-width="0.554993"/>
<line x1="472.642" y1="83.8826" x2="472.642" y2="92.7625" stroke="#2BFFE8" stroke-width="0.554993"/>
<line x1="468.282" y1="173.15" x2="477.162" y2="173.15" stroke="#2BFFE8" stroke-width="0.554993"/>
<line x1="472.642" y1="168.765" x2="472.642" y2="177.645" stroke="#2BFFE8" stroke-width="0.554993"/>
<line x1="468.282" y1="258.033" x2="477.162" y2="258.033" stroke="#2BFFE8" stroke-width="0.554993"/>
<line x1="472.642" y1="253.647" x2="472.642" y2="262.527" stroke="#2BFFE8" stroke-width="0.554993"/>
<line x1="468.282" y1="342.915" x2="477.162" y2="342.915" stroke="#2BFFE8" stroke-width="0.554993"/>
<line x1="472.642" y1="338.53" x2="472.642" y2="347.41" stroke="#2BFFE8" stroke-width="0.554993"/>
<line x1="468.282" y1="427.798" x2="477.162" y2="427.798" stroke="#2BFFE8" stroke-width="0.554993"/>
<line x1="472.642" y1="423.413" x2="472.642" y2="432.292" stroke="#2BFFE8" stroke-width="0.554993"/>
<line x1="468.282" y1="512.68" x2="477.162" y2="512.68" stroke="#2BFFE8" stroke-width="0.554993"/>
<line x1="472.642" y1="508.295" x2="472.642" y2="517.175" stroke="#2BFFE8" stroke-width="0.554993"/>
<line x1="468.282" y1="597.563" x2="477.162" y2="597.563" stroke="#2BFFE8" stroke-width="0.554993"/>
<line x1="472.642" y1="593.177" x2="472.642" y2="602.057" stroke="#2BFFE8" stroke-width="0.554993"/>
<line x1="468.282" y1="682.445" x2="477.162" y2="682.445" stroke="#2BFFE8" stroke-width="0.554993"/>
<line x1="472.642" y1="678.06" x2="472.642" y2="686.94" stroke="#2BFFE8" stroke-width="0.554993"/>
<line x1="468.282" y1="767.328" x2="477.162" y2="767.328" stroke="#2BFFE8" stroke-width="0.554993"/>
<line x1="472.642" y1="762.943" x2="472.642" y2="771.823" stroke="#2BFFE8" stroke-width="0.554993"/>
<line x1="468.282" y1="852.211" x2="477.162" y2="852.211" stroke="#2BFFE8" stroke-width="0.554993"/>
<line x1="472.642" y1="847.825" x2="472.642" y2="856.705" stroke="#2BFFE8" stroke-width="0.554993"/>
<line x1="468.282" y1="937.093" x2="477.162" y2="937.093" stroke="#2BFFE8" stroke-width="0.554993"/>
<line x1="472.642" y1="932.708" x2="472.642" y2="941.587" stroke="#2BFFE8" stroke-width="0.554993"/>
<line x1="468.282" y1="1021.98" x2="477.162" y2="1021.98" stroke="#2BFFE8" stroke-width="0.554993"/>
<line x1="472.642" y1="1017.59" x2="472.642" y2="1026.47" stroke="#2BFFE8" stroke-width="0.554993"/>
<line x1="468.282" y1="1106.86" x2="477.162" y2="1106.86" stroke="#2BFFE8" stroke-width="0.554993"/>
<line x1="472.642" y1="1102.47" x2="472.642" y2="1111.35" stroke="#2BFFE8" stroke-width="0.554993"/>
<line x1="468.282" y1="1191.74" x2="477.162" y2="1191.74" stroke="#2BFFE8" stroke-width="0.554993"/>
<line x1="472.642" y1="1187.36" x2="472.642" y2="1196.24" stroke="#2BFFE8" stroke-width="0.554993"/>
<line x1="468.282" y1="1276.62" x2="477.162" y2="1276.62" stroke="#2BFFE8" stroke-width="0.554993"/>
<line x1="472.642" y1="1272.24" x2="472.642" y2="1281.12" stroke="#2BFFE8" stroke-width="0.554993"/>
<line x1="468.282" y1="1361.51" x2="477.162" y2="1361.51" stroke="#2BFFE8" stroke-width="0.554993"/>
<line x1="472.642" y1="1357.12" x2="472.642" y2="1366" stroke="#2BFFE8" stroke-width="0.554993"/>
<line x1="546.359" y1="3.38535" x2="555.239" y2="3.38535" stroke="#2BFFE8" stroke-width="0.554993"/>
<line x1="550.719" y1="-1" x2="550.719" y2="7.87988" stroke="#2BFFE8" stroke-width="0.554993"/>
<line x1="546.359" y1="88.2679" x2="555.239" y2="88.2679" stroke="#2BFFE8" stroke-width="0.554993"/>
<line x1="550.719" y1="83.8826" x2="550.719" y2="92.7625" stroke="#2BFFE8" stroke-width="0.554993"/>
<line x1="546.359" y1="173.15" x2="555.239" y2="173.15" stroke="#2BFFE8" stroke-width="0.554993"/>
<line x1="550.719" y1="168.765" x2="550.719" y2="177.645" stroke="#2BFFE8" stroke-width="0.554993"/>
<line x1="546.359" y1="258.033" x2="555.239" y2="258.033" stroke="#2BFFE8" stroke-width="0.554993"/>
<line x1="550.719" y1="253.647" x2="550.719" y2="262.527" stroke="#2BFFE8" stroke-width="0.554993"/>
<line x1="546.359" y1="342.915" x2="555.239" y2="342.915" stroke="#2BFFE8" stroke-width="0.554993"/>
<line x1="550.719" y1="338.53" x2="550.719" y2="347.41" stroke="#2BFFE8" stroke-width="0.554993"/>
<line x1="546.359" y1="427.798" x2="555.239" y2="427.798" stroke="#2BFFE8" stroke-width="0.554993"/>
<line x1="550.719" y1="423.413" x2="550.719" y2="432.292" stroke="#2BFFE8" stroke-width="0.554993"/>
<line x1="546.359" y1="512.68" x2="555.239" y2="512.68" stroke="#2BFFE8" stroke-width="0.554993"/>
<line x1="550.719" y1="508.295" x2="550.719" y2="517.175" stroke="#2BFFE8" stroke-width="0.554993"/>
<line x1="546.359" y1="597.563" x2="555.239" y2="597.563" stroke="#2BFFE8" stroke-width="0.554993"/>
<line x1="550.719" y1="593.177" x2="550.719" y2="602.057" stroke="#2BFFE8" stroke-width="0.554993"/>
<line x1="546.359" y1="682.445" x2="555.239" y2="682.445" stroke="#2BFFE8" stroke-width="0.554993"/>
<line x1="550.719" y1="678.06" x2="550.719" y2="686.94" stroke="#2BFFE8" stroke-width="0.554993"/>
<line x1="546.359" y1="767.328" x2="555.239" y2="767.328" stroke="#2BFFE8" stroke-width="0.554993"/>
<line x1="550.719" y1="762.943" x2="550.719" y2="771.823" stroke="#2BFFE8" stroke-width="0.554993"/>
<line x1="546.359" y1="852.211" x2="555.239" y2="852.211" stroke="#2BFFE8" stroke-width="0.554993"/>
<line x1="550.719" y1="847.825" x2="550.719" y2="856.705" stroke="#2BFFE8" stroke-width="0.554993"/>
<line x1="546.359" y1="937.093" x2="555.239" y2="937.093" stroke="#2BFFE8" stroke-width="0.554993"/>
<line x1="550.719" y1="932.708" x2="550.719" y2="941.587" stroke="#2BFFE8" stroke-width="0.554993"/>
<line x1="546.359" y1="1021.98" x2="555.239" y2="1021.98" stroke="#2BFFE8" stroke-width="0.554993"/>
<line x1="550.719" y1="1017.59" x2="550.719" y2="1026.47" stroke="#2BFFE8" stroke-width="0.554993"/>
<line x1="546.359" y1="1106.86" x2="555.239" y2="1106.86" stroke="#2BFFE8" stroke-width="0.554993"/>
<line x1="550.719" y1="1102.47" x2="550.719" y2="1111.35" stroke="#2BFFE8" stroke-width="0.554993"/>
<line x1="546.359" y1="1191.74" x2="555.239" y2="1191.74" stroke="#2BFFE8" stroke-width="0.554993"/>
<line x1="550.719" y1="1187.36" x2="550.719" y2="1196.24" stroke="#2BFFE8" stroke-width="0.554993"/>
<line x1="546.359" y1="1276.62" x2="555.239" y2="1276.62" stroke="#2BFFE8" stroke-width="0.554993"/>
<line x1="550.719" y1="1272.24" x2="550.719" y2="1281.12" stroke="#2BFFE8" stroke-width="0.554993"/>
<line x1="546.359" y1="1361.51" x2="555.239" y2="1361.51" stroke="#2BFFE8" stroke-width="0.554993"/>
<line x1="550.719" y1="1357.12" x2="550.719" y2="1366" stroke="#2BFFE8" stroke-width="0.554993"/>
<line x1="624.436" y1="3.38535" x2="633.315" y2="3.38535" stroke="#2BFFE8" stroke-width="0.554993"/>
<line x1="628.796" y1="-1" x2="628.796" y2="7.87988" stroke="#2BFFE8" stroke-width="0.554993"/>
<line x1="624.436" y1="88.2679" x2="633.315" y2="88.2679" stroke="#2BFFE8" stroke-width="0.554993"/>
<line x1="628.796" y1="83.8826" x2="628.796" y2="92.7625" stroke="#2BFFE8" stroke-width="0.554993"/>
<line x1="624.436" y1="173.15" x2="633.315" y2="173.15" stroke="#2BFFE8" stroke-width="0.554993"/>
<line x1="628.796" y1="168.765" x2="628.796" y2="177.645" stroke="#2BFFE8" stroke-width="0.554993"/>
<line x1="624.436" y1="258.033" x2="633.315" y2="258.033" stroke="#2BFFE8" stroke-width="0.554993"/>
<line x1="628.796" y1="253.647" x2="628.796" y2="262.527" stroke="#2BFFE8" stroke-width="0.554993"/>
<line x1="624.436" y1="342.915" x2="633.315" y2="342.915" stroke="#2BFFE8" stroke-width="0.554993"/>
<line x1="628.796" y1="338.53" x2="628.796" y2="347.41" stroke="#2BFFE8" stroke-width="0.554993"/>
<line x1="624.436" y1="427.798" x2="633.315" y2="427.798" stroke="#2BFFE8" stroke-width="0.554993"/>
<line x1="628.796" y1="423.413" x2="628.796" y2="432.292" stroke="#2BFFE8" stroke-width="0.554993"/>
<line x1="624.436" y1="512.68" x2="633.315" y2="512.68" stroke="#2BFFE8" stroke-width="0.554993"/>
<line x1="628.796" y1="508.295" x2="628.796" y2="517.175" stroke="#2BFFE8" stroke-width="0.554993"/>
<line x1="624.436" y1="597.563" x2="633.315" y2="597.563" stroke="#2BFFE8" stroke-width="0.554993"/>
<line x1="628.796" y1="593.177" x2="628.796" y2="602.057" stroke="#2BFFE8" stroke-width="0.554993"/>
<line x1="624.436" y1="682.445" x2="633.315" y2="682.445" stroke="#2BFFE8" stroke-width="0.554993"/>
<line x1="628.796" y1="678.06" x2="628.796" y2="686.94" stroke="#2BFFE8" stroke-width="0.554993"/>
<line x1="624.436" y1="767.328" x2="633.315" y2="767.328" stroke="#2BFFE8" stroke-width="0.554993"/>
<line x1="628.796" y1="762.943" x2="628.796" y2="771.823" stroke="#2BFFE8" stroke-width="0.554993"/>
<line x1="624.436" y1="852.211" x2="633.315" y2="852.211" stroke="#2BFFE8" stroke-width="0.554993"/>
<line x1="628.796" y1="847.825" x2="628.796" y2="856.705" stroke="#2BFFE8" stroke-width="0.554993"/>
<line x1="624.436" y1="937.093" x2="633.315" y2="937.093" stroke="#2BFFE8" stroke-width="0.554993"/>
<line x1="628.796" y1="932.708" x2="628.796" y2="941.587" stroke="#2BFFE8" stroke-width="0.554993"/>
<line x1="624.436" y1="1021.98" x2="633.315" y2="1021.98" stroke="#2BFFE8" stroke-width="0.554993"/>
<line x1="628.796" y1="1017.59" x2="628.796" y2="1026.47" stroke="#2BFFE8" stroke-width="0.554993"/>
<line x1="624.436" y1="1106.86" x2="633.315" y2="1106.86" stroke="#2BFFE8" stroke-width="0.554993"/>
<line x1="628.796" y1="1102.47" x2="628.796" y2="1111.35" stroke="#2BFFE8" stroke-width="0.554993"/>
<line x1="624.436" y1="1191.74" x2="633.315" y2="1191.74" stroke="#2BFFE8" stroke-width="0.554993"/>
<line x1="628.796" y1="1187.36" x2="628.796" y2="1196.24" stroke="#2BFFE8" stroke-width="0.554993"/>
<line x1="624.436" y1="1276.62" x2="633.315" y2="1276.62" stroke="#2BFFE8" stroke-width="0.554993"/>
<line x1="628.796" y1="1272.24" x2="628.796" y2="1281.12" stroke="#2BFFE8" stroke-width="0.554993"/>
<line x1="624.436" y1="1361.51" x2="633.315" y2="1361.51" stroke="#2BFFE8" stroke-width="0.554993"/>
<line x1="628.796" y1="1357.12" x2="628.796" y2="1366" stroke="#2BFFE8" stroke-width="0.554993"/>
<line x1="702.512" y1="3.38535" x2="711.392" y2="3.38535" stroke="#2BFFE8" stroke-width="0.554993"/>
<line x1="706.873" y1="-1" x2="706.873" y2="7.87988" stroke="#2BFFE8" stroke-width="0.554993"/>
<line x1="702.512" y1="88.2679" x2="711.392" y2="88.2679" stroke="#2BFFE8" stroke-width="0.554993"/>
<line x1="706.873" y1="83.8826" x2="706.873" y2="92.7625" stroke="#2BFFE8" stroke-width="0.554993"/>
<line x1="702.512" y1="173.15" x2="711.392" y2="173.15" stroke="#2BFFE8" stroke-width="0.554993"/>
<line x1="706.873" y1="168.765" x2="706.873" y2="177.645" stroke="#2BFFE8" stroke-width="0.554993"/>
<line x1="702.512" y1="258.033" x2="711.392" y2="258.033" stroke="#2BFFE8" stroke-width="0.554993"/>
<line x1="706.873" y1="253.647" x2="706.873" y2="262.527" stroke="#2BFFE8" stroke-width="0.554993"/>
<line x1="702.512" y1="342.915" x2="711.392" y2="342.915" stroke="#2BFFE8" stroke-width="0.554993"/>
<line x1="706.873" y1="338.53" x2="706.873" y2="347.41" stroke="#2BFFE8" stroke-width="0.554993"/>
<line x1="702.512" y1="427.798" x2="711.392" y2="427.798" stroke="#2BFFE8" stroke-width="0.554993"/>
<line x1="706.873" y1="423.413" x2="706.873" y2="432.292" stroke="#2BFFE8" stroke-width="0.554993"/>
<line x1="702.512" y1="512.68" x2="711.392" y2="512.68" stroke="#2BFFE8" stroke-width="0.554993"/>
<line x1="706.873" y1="508.295" x2="706.873" y2="517.175" stroke="#2BFFE8" stroke-width="0.554993"/>
<line x1="702.512" y1="597.563" x2="711.392" y2="597.563" stroke="#2BFFE8" stroke-width="0.554993"/>
<line x1="706.873" y1="593.177" x2="706.873" y2="602.057" stroke="#2BFFE8" stroke-width="0.554993"/>
<line x1="702.512" y1="682.445" x2="711.392" y2="682.445" stroke="#2BFFE8" stroke-width="0.554993"/>
<line x1="706.873" y1="678.06" x2="706.873" y2="686.94" stroke="#2BFFE8" stroke-width="0.554993"/>
<line x1="702.512" y1="767.328" x2="711.392" y2="767.328" stroke="#2BFFE8" stroke-width="0.554993"/>
<line x1="706.873" y1="762.943" x2="706.873" y2="771.823" stroke="#2BFFE8" stroke-width="0.554993"/>
<line x1="702.512" y1="852.211" x2="711.392" y2="852.211" stroke="#2BFFE8" stroke-width="0.554993"/>
<line x1="706.873" y1="847.825" x2="706.873" y2="856.705" stroke="#2BFFE8" stroke-width="0.554993"/>
<line x1="702.512" y1="937.093" x2="711.392" y2="937.093" stroke="#2BFFE8" stroke-width="0.554993"/>
<line x1="706.873" y1="932.708" x2="706.873" y2="941.587" stroke="#2BFFE8" stroke-width="0.554993"/>
<line x1="702.512" y1="1021.98" x2="711.392" y2="1021.98" stroke="#2BFFE8" stroke-width="0.554993"/>
<line x1="706.873" y1="1017.59" x2="706.873" y2="1026.47" stroke="#2BFFE8" stroke-width="0.554993"/>
<line x1="702.512" y1="1106.86" x2="711.392" y2="1106.86" stroke="#2BFFE8" stroke-width="0.554993"/>
<line x1="706.873" y1="1102.47" x2="706.873" y2="1111.35" stroke="#2BFFE8" stroke-width="0.554993"/>
<line x1="702.512" y1="1191.74" x2="711.392" y2="1191.74" stroke="#2BFFE8" stroke-width="0.554993"/>
<line x1="706.873" y1="1187.36" x2="706.873" y2="1196.24" stroke="#2BFFE8" stroke-width="0.554993"/>
<line x1="702.512" y1="1276.62" x2="711.392" y2="1276.62" stroke="#2BFFE8" stroke-width="0.554993"/>
<line x1="706.873" y1="1272.24" x2="706.873" y2="1281.12" stroke="#2BFFE8" stroke-width="0.554993"/>
<line x1="702.512" y1="1361.51" x2="711.392" y2="1361.51" stroke="#2BFFE8" stroke-width="0.554993"/>
<line x1="706.873" y1="1357.12" x2="706.873" y2="1366" stroke="#2BFFE8" stroke-width="0.554993"/>
<line x1="780.589" y1="3.38535" x2="789.469" y2="3.38535" stroke="#2BFFE8" stroke-width="0.554993"/>
<line x1="784.95" y1="-1" x2="784.95" y2="7.87988" stroke="#2BFFE8" stroke-width="0.554993"/>
<line x1="780.589" y1="88.2679" x2="789.469" y2="88.2679" stroke="#2BFFE8" stroke-width="0.554993"/>
<line x1="784.95" y1="83.8826" x2="784.95" y2="92.7625" stroke="#2BFFE8" stroke-width="0.554993"/>
<line x1="780.589" y1="173.15" x2="789.469" y2="173.15" stroke="#2BFFE8" stroke-width="0.554993"/>
<line x1="784.95" y1="168.765" x2="784.95" y2="177.645" stroke="#2BFFE8" stroke-width="0.554993"/>
<line x1="780.589" y1="258.033" x2="789.469" y2="258.033" stroke="#2BFFE8" stroke-width="0.554993"/>
<line x1="784.95" y1="253.647" x2="784.95" y2="262.527" stroke="#2BFFE8" stroke-width="0.554993"/>
<line x1="780.589" y1="342.915" x2="789.469" y2="342.915" stroke="#2BFFE8" stroke-width="0.554993"/>
<line x1="784.95" y1="338.53" x2="784.95" y2="347.41" stroke="#2BFFE8" stroke-width="0.554993"/>
<line x1="780.589" y1="427.798" x2="789.469" y2="427.798" stroke="#2BFFE8" stroke-width="0.554993"/>
<line x1="784.95" y1="423.413" x2="784.95" y2="432.292" stroke="#2BFFE8" stroke-width="0.554993"/>
<line x1="780.589" y1="512.68" x2="789.469" y2="512.68" stroke="#2BFFE8" stroke-width="0.554993"/>
<line x1="784.95" y1="508.295" x2="784.95" y2="517.175" stroke="#2BFFE8" stroke-width="0.554993"/>
<line x1="780.589" y1="597.563" x2="789.469" y2="597.563" stroke="#2BFFE8" stroke-width="0.554993"/>
<line x1="784.95" y1="593.177" x2="784.95" y2="602.057" stroke="#2BFFE8" stroke-width="0.554993"/>
<line x1="780.589" y1="682.445" x2="789.469" y2="682.445" stroke="#2BFFE8" stroke-width="0.554993"/>
<line x1="784.95" y1="678.06" x2="784.95" y2="686.94" stroke="#2BFFE8" stroke-width="0.554993"/>
<line x1="780.589" y1="767.328" x2="789.469" y2="767.328" stroke="#2BFFE8" stroke-width="0.554993"/>
<line x1="784.95" y1="762.943" x2="784.95" y2="771.823" stroke="#2BFFE8" stroke-width="0.554993"/>
<line x1="780.589" y1="852.211" x2="789.469" y2="852.211" stroke="#2BFFE8" stroke-width="0.554993"/>
<line x1="784.95" y1="847.825" x2="784.95" y2="856.705" stroke="#2BFFE8" stroke-width="0.554993"/>
<line x1="780.589" y1="937.093" x2="789.469" y2="937.093" stroke="#2BFFE8" stroke-width="0.554993"/>
<line x1="784.95" y1="932.708" x2="784.95" y2="941.587" stroke="#2BFFE8" stroke-width="0.554993"/>
<line x1="780.589" y1="1021.98" x2="789.469" y2="1021.98" stroke="#2BFFE8" stroke-width="0.554993"/>
<line x1="784.95" y1="1017.59" x2="784.95" y2="1026.47" stroke="#2BFFE8" stroke-width="0.554993"/>
<line x1="780.589" y1="1106.86" x2="789.469" y2="1106.86" stroke="#2BFFE8" stroke-width="0.554993"/>
<line x1="784.95" y1="1102.47" x2="784.95" y2="1111.35" stroke="#2BFFE8" stroke-width="0.554993"/>
<line x1="780.589" y1="1191.74" x2="789.469" y2="1191.74" stroke="#2BFFE8" stroke-width="0.554993"/>
<line x1="784.95" y1="1187.36" x2="784.95" y2="1196.24" stroke="#2BFFE8" stroke-width="0.554993"/>
<line x1="780.589" y1="1276.62" x2="789.469" y2="1276.62" stroke="#2BFFE8" stroke-width="0.554993"/>
<line x1="784.95" y1="1272.24" x2="784.95" y2="1281.12" stroke="#2BFFE8" stroke-width="0.554993"/>
<line x1="780.589" y1="1361.51" x2="789.469" y2="1361.51" stroke="#2BFFE8" stroke-width="0.554993"/>
<line x1="784.95" y1="1357.12" x2="784.95" y2="1366" stroke="#2BFFE8" stroke-width="0.554993"/>
<line x1="858.666" y1="3.38535" x2="867.546" y2="3.38535" stroke="#2BFFE8" stroke-width="0.554993"/>
<line x1="863.027" y1="-1" x2="863.027" y2="7.87988" stroke="#2BFFE8" stroke-width="0.554993"/>
<line x1="858.666" y1="88.2679" x2="867.546" y2="88.2679" stroke="#2BFFE8" stroke-width="0.554993"/>
<line x1="863.027" y1="83.8826" x2="863.027" y2="92.7625" stroke="#2BFFE8" stroke-width="0.554993"/>
<line x1="858.666" y1="173.15" x2="867.546" y2="173.15" stroke="#2BFFE8" stroke-width="0.554993"/>
<line x1="863.027" y1="168.765" x2="863.027" y2="177.645" stroke="#2BFFE8" stroke-width="0.554993"/>
<line x1="858.666" y1="258.033" x2="867.546" y2="258.033" stroke="#2BFFE8" stroke-width="0.554993"/>
<line x1="863.027" y1="253.647" x2="863.027" y2="262.527" stroke="#2BFFE8" stroke-width="0.554993"/>
<line x1="858.666" y1="342.915" x2="867.546" y2="342.915" stroke="#2BFFE8" stroke-width="0.554993"/>
<line x1="863.027" y1="338.53" x2="863.027" y2="347.41" stroke="#2BFFE8" stroke-width="0.554993"/>
<line x1="858.666" y1="427.798" x2="867.546" y2="427.798" stroke="#2BFFE8" stroke-width="0.554993"/>
<line x1="863.027" y1="423.413" x2="863.027" y2="432.292" stroke="#2BFFE8" stroke-width="0.554993"/>
<line x1="858.666" y1="512.68" x2="867.546" y2="512.68" stroke="#2BFFE8" stroke-width="0.554993"/>
<line x1="863.027" y1="508.295" x2="863.027" y2="517.175" stroke="#2BFFE8" stroke-width="0.554993"/>
<line x1="858.666" y1="597.563" x2="867.546" y2="597.563" stroke="#2BFFE8" stroke-width="0.554993"/>
<line x1="863.027" y1="593.177" x2="863.027" y2="602.057" stroke="#2BFFE8" stroke-width="0.554993"/>
<line x1="858.666" y1="682.445" x2="867.546" y2="682.445" stroke="#2BFFE8" stroke-width="0.554993"/>
<line x1="863.027" y1="678.06" x2="863.027" y2="686.94" stroke="#2BFFE8" stroke-width="0.554993"/>
<line x1="858.666" y1="767.328" x2="867.546" y2="767.328" stroke="#2BFFE8" stroke-width="0.554993"/>
<line x1="863.027" y1="762.943" x2="863.027" y2="771.823" stroke="#2BFFE8" stroke-width="0.554993"/>
<line x1="858.666" y1="852.211" x2="867.546" y2="852.211" stroke="#2BFFE8" stroke-width="0.554993"/>
<line x1="863.027" y1="847.825" x2="863.027" y2="856.705" stroke="#2BFFE8" stroke-width="0.554993"/>
<line x1="858.666" y1="937.093" x2="867.546" y2="937.093" stroke="#2BFFE8" stroke-width="0.554993"/>
<line x1="863.027" y1="932.708" x2="863.027" y2="941.587" stroke="#2BFFE8" stroke-width="0.554993"/>
<line x1="858.666" y1="1021.98" x2="867.546" y2="1021.98" stroke="#2BFFE8" stroke-width="0.554993"/>
<line x1="863.027" y1="1017.59" x2="863.027" y2="1026.47" stroke="#2BFFE8" stroke-width="0.554993"/>
<line x1="858.666" y1="1106.86" x2="867.546" y2="1106.86" stroke="#2BFFE8" stroke-width="0.554993"/>
<line x1="863.027" y1="1102.47" x2="863.027" y2="1111.35" stroke="#2BFFE8" stroke-width="0.554993"/>
<line x1="858.666" y1="1191.74" x2="867.546" y2="1191.74" stroke="#2BFFE8" stroke-width="0.554993"/>
<line x1="863.027" y1="1187.36" x2="863.027" y2="1196.24" stroke="#2BFFE8" stroke-width="0.554993"/>
<line x1="858.666" y1="1276.62" x2="867.546" y2="1276.62" stroke="#2BFFE8" stroke-width="0.554993"/>
<line x1="863.027" y1="1272.24" x2="863.027" y2="1281.12" stroke="#2BFFE8" stroke-width="0.554993"/>
<line x1="858.666" y1="1361.51" x2="867.546" y2="1361.51" stroke="#2BFFE8" stroke-width="0.554993"/>
<line x1="863.027" y1="1357.12" x2="863.027" y2="1366" stroke="#2BFFE8" stroke-width="0.554993"/>
<line x1="936.743" y1="3.38535" x2="945.623" y2="3.38535" stroke="#2BFFE8" stroke-width="0.554993"/>
<line x1="941.104" y1="-1" x2="941.104" y2="7.87988" stroke="#2BFFE8" stroke-width="0.554993"/>
<line x1="936.743" y1="88.2679" x2="945.623" y2="88.2679" stroke="#2BFFE8" stroke-width="0.554993"/>
<line x1="941.104" y1="83.8826" x2="941.104" y2="92.7625" stroke="#2BFFE8" stroke-width="0.554993"/>
<line x1="936.743" y1="173.15" x2="945.623" y2="173.15" stroke="#2BFFE8" stroke-width="0.554993"/>
<line x1="941.104" y1="168.765" x2="941.104" y2="177.645" stroke="#2BFFE8" stroke-width="0.554993"/>
<line x1="936.743" y1="258.033" x2="945.623" y2="258.033" stroke="#2BFFE8" stroke-width="0.554993"/>
<line x1="941.104" y1="253.647" x2="941.104" y2="262.527" stroke="#2BFFE8" stroke-width="0.554993"/>
<line x1="936.743" y1="342.915" x2="945.623" y2="342.915" stroke="#2BFFE8" stroke-width="0.554993"/>
<line x1="941.104" y1="338.53" x2="941.104" y2="347.41" stroke="#2BFFE8" stroke-width="0.554993"/>
<line x1="936.743" y1="427.798" x2="945.623" y2="427.798" stroke="#2BFFE8" stroke-width="0.554993"/>
<line x1="941.104" y1="423.413" x2="941.104" y2="432.292" stroke="#2BFFE8" stroke-width="0.554993"/>
<line x1="936.743" y1="512.68" x2="945.623" y2="512.68" stroke="#2BFFE8" stroke-width="0.554993"/>
<line x1="941.104" y1="508.295" x2="941.104" y2="517.175" stroke="#2BFFE8" stroke-width="0.554993"/>
<line x1="936.743" y1="597.563" x2="945.623" y2="597.563" stroke="#2BFFE8" stroke-width="0.554993"/>
<line x1="941.104" y1="593.177" x2="941.104" y2="602.057" stroke="#2BFFE8" stroke-width="0.554993"/>
<line x1="936.743" y1="682.445" x2="945.623" y2="682.445" stroke="#2BFFE8" stroke-width="0.554993"/>
<line x1="941.104" y1="678.06" x2="941.104" y2="686.94" stroke="#2BFFE8" stroke-width="0.554993"/>
<line x1="936.743" y1="767.328" x2="945.623" y2="767.328" stroke="#2BFFE8" stroke-width="0.554993"/>
<line x1="941.104" y1="762.943" x2="941.104" y2="771.823" stroke="#2BFFE8" stroke-width="0.554993"/>
<line x1="936.743" y1="852.211" x2="945.623" y2="852.211" stroke="#2BFFE8" stroke-width="0.554993"/>
<line x1="941.104" y1="847.825" x2="941.104" y2="856.705" stroke="#2BFFE8" stroke-width="0.554993"/>
<line x1="936.743" y1="937.093" x2="945.623" y2="937.093" stroke="#2BFFE8" stroke-width="0.554993"/>
<line x1="941.104" y1="932.708" x2="941.104" y2="941.587" stroke="#2BFFE8" stroke-width="0.554993"/>
<line x1="936.743" y1="1021.98" x2="945.623" y2="1021.98" stroke="#2BFFE8" stroke-width="0.554993"/>
<line x1="941.104" y1="1017.59" x2="941.104" y2="1026.47" stroke="#2BFFE8" stroke-width="0.554993"/>
<line x1="936.743" y1="1106.86" x2="945.623" y2="1106.86" stroke="#2BFFE8" stroke-width="0.554993"/>
<line x1="941.104" y1="1102.47" x2="941.104" y2="1111.35" stroke="#2BFFE8" stroke-width="0.554993"/>
<line x1="936.743" y1="1191.74" x2="945.623" y2="1191.74" stroke="#2BFFE8" stroke-width="0.554993"/>
<line x1="941.104" y1="1187.36" x2="941.104" y2="1196.24" stroke="#2BFFE8" stroke-width="0.554993"/>
<line x1="936.743" y1="1276.62" x2="945.623" y2="1276.62" stroke="#2BFFE8" stroke-width="0.554993"/>
<line x1="941.104" y1="1272.24" x2="941.104" y2="1281.12" stroke="#2BFFE8" stroke-width="0.554993"/>
<line x1="936.743" y1="1361.51" x2="945.623" y2="1361.51" stroke="#2BFFE8" stroke-width="0.554993"/>
<line x1="941.104" y1="1357.12" x2="941.104" y2="1366" stroke="#2BFFE8" stroke-width="0.554993"/>
<line x1="1014.82" y1="3.38535" x2="1023.7" y2="3.38535" stroke="#2BFFE8" stroke-width="0.554993"/>
<line x1="1019.18" y1="-1" x2="1019.18" y2="7.87988" stroke="#2BFFE8" stroke-width="0.554993"/>
<line x1="1014.82" y1="88.2679" x2="1023.7" y2="88.2679" stroke="#2BFFE8" stroke-width="0.554993"/>
<line x1="1019.18" y1="83.8826" x2="1019.18" y2="92.7625" stroke="#2BFFE8" stroke-width="0.554993"/>
<line x1="1014.82" y1="173.15" x2="1023.7" y2="173.15" stroke="#2BFFE8" stroke-width="0.554993"/>
<line x1="1019.18" y1="168.765" x2="1019.18" y2="177.645" stroke="#2BFFE8" stroke-width="0.554993"/>
<line x1="1014.82" y1="258.033" x2="1023.7" y2="258.033" stroke="#2BFFE8" stroke-width="0.554993"/>
<line x1="1019.18" y1="253.647" x2="1019.18" y2="262.527" stroke="#2BFFE8" stroke-width="0.554993"/>
<line x1="1014.82" y1="342.915" x2="1023.7" y2="342.915" stroke="#2BFFE8" stroke-width="0.554993"/>
<line x1="1019.18" y1="338.53" x2="1019.18" y2="347.41" stroke="#2BFFE8" stroke-width="0.554993"/>
<line x1="1014.82" y1="427.798" x2="1023.7" y2="427.798" stroke="#2BFFE8" stroke-width="0.554993"/>
<line x1="1019.18" y1="423.413" x2="1019.18" y2="432.292" stroke="#2BFFE8" stroke-width="0.554993"/>
<line x1="1014.82" y1="512.68" x2="1023.7" y2="512.68" stroke="#2BFFE8" stroke-width="0.554993"/>
<line x1="1019.18" y1="508.295" x2="1019.18" y2="517.175" stroke="#2BFFE8" stroke-width="0.554993"/>
<line x1="1014.82" y1="597.563" x2="1023.7" y2="597.563" stroke="#2BFFE8" stroke-width="0.554993"/>
<line x1="1019.18" y1="593.177" x2="1019.18" y2="602.057" stroke="#2BFFE8" stroke-width="0.554993"/>
<line x1="1014.82" y1="682.445" x2="1023.7" y2="682.445" stroke="#2BFFE8" stroke-width="0.554993"/>
<line x1="1019.18" y1="678.06" x2="1019.18" y2="686.94" stroke="#2BFFE8" stroke-width="0.554993"/>
<line x1="1014.82" y1="767.328" x2="1023.7" y2="767.328" stroke="#2BFFE8" stroke-width="0.554993"/>
<line x1="1019.18" y1="762.943" x2="1019.18" y2="771.823" stroke="#2BFFE8" stroke-width="0.554993"/>
<line x1="1014.82" y1="852.211" x2="1023.7" y2="852.211" stroke="#2BFFE8" stroke-width="0.554993"/>
<line x1="1019.18" y1="847.825" x2="1019.18" y2="856.705" stroke="#2BFFE8" stroke-width="0.554993"/>
<line x1="1014.82" y1="937.093" x2="1023.7" y2="937.093" stroke="#2BFFE8" stroke-width="0.554993"/>
<line x1="1019.18" y1="932.708" x2="1019.18" y2="941.587" stroke="#2BFFE8" stroke-width="0.554993"/>
<line x1="1014.82" y1="1021.98" x2="1023.7" y2="1021.98" stroke="#2BFFE8" stroke-width="0.554993"/>
<line x1="1019.18" y1="1017.59" x2="1019.18" y2="1026.47" stroke="#2BFFE8" stroke-width="0.554993"/>
<line x1="1014.82" y1="1106.86" x2="1023.7" y2="1106.86" stroke="#2BFFE8" stroke-width="0.554993"/>
<line x1="1019.18" y1="1102.47" x2="1019.18" y2="1111.35" stroke="#2BFFE8" stroke-width="0.554993"/>
<line x1="1014.82" y1="1191.74" x2="1023.7" y2="1191.74" stroke="#2BFFE8" stroke-width="0.554993"/>
<line x1="1019.18" y1="1187.36" x2="1019.18" y2="1196.24" stroke="#2BFFE8" stroke-width="0.554993"/>
<line x1="1014.82" y1="1276.62" x2="1023.7" y2="1276.62" stroke="#2BFFE8" stroke-width="0.554993"/>
<line x1="1019.18" y1="1272.24" x2="1019.18" y2="1281.12" stroke="#2BFFE8" stroke-width="0.554993"/>
<line x1="1014.82" y1="1361.51" x2="1023.7" y2="1361.51" stroke="#2BFFE8" stroke-width="0.554993"/>
<line x1="1019.18" y1="1357.12" x2="1019.18" y2="1366" stroke="#2BFFE8" stroke-width="0.554993"/>
</g>
</svg>
