<svg width="1017" height="8" fill="none" xmlns="http://www.w3.org/2000/svg"><rect width="6" height="6.278" rx="2.027" transform="rotate(180 3.5 3.639)" fill="#2BFFE8"/><rect width="6" height="6.278" rx="2.027" transform="rotate(180 3.5 3.639)" stroke="#2BFFE8" stroke-width="1.014"/><rect width="6.081" height="6.278" rx="2.027" transform="rotate(180 42.311 3.639)" stroke="#2BFFE8" stroke-width="1.014"/><rect width="6.081" height="6.278" rx="2.027" transform="rotate(180 81.121 3.639)" stroke="#2BFFE8" stroke-width="1.014"/><rect width="6.081" height="6.278" rx="2.027" transform="rotate(180 119.933 3.639)" stroke="#2BFFE8" stroke-width="1.014"/><rect width="6.081" height="6.278" rx="2.027" transform="rotate(180 158.744 3.639)" stroke="#2BFFE8" stroke-width="1.014"/><rect width="6.081" height="6.278" rx="2.027" transform="rotate(180 197.554 3.639)" stroke="#2BFFE8" stroke-width="1.014"/><rect width="6.081" height="6.278" rx="2.027" transform="rotate(180 236.365 3.639)" stroke="#2BFFE8" stroke-width="1.014"/><rect width="6.081" height="6.278" rx="2.027" transform="rotate(180 275.175 3.639)" stroke="#2BFFE8" stroke-width="1.014"/><rect width="6.081" height="6.278" rx="2.027" transform="rotate(180 313.986 3.639)" stroke="#2BFFE8" stroke-width="1.014"/><rect width="6.081" height="6.278" rx="2.027" transform="rotate(180 352.797 3.639)" stroke="#2BFFE8" stroke-width="1.014"/><rect width="6.081" height="6.278" rx="2.027" transform="rotate(180 391.608 3.639)" stroke="#2BFFE8" stroke-width="1.014"/><rect width="6.081" height="6.278" rx="2.027" transform="rotate(180 430.419 3.639)" stroke="#2BFFE8" stroke-width="1.014"/><rect width="6.081" height="6.278" rx="2.027" transform="rotate(180 469.23 3.639)" stroke="#2BFFE8" stroke-width="1.014"/><rect width="6" height="6.278" rx="2.027" transform="rotate(180 508 3.639)" fill="#2BFFE8"/><rect width="6" height="6.278" rx="2.027" transform="rotate(180 508 3.639)" stroke="#2BFFE8" stroke-width="1.014"/></svg>