<svg width="1024" height="1471" fill="none" xmlns="http://www.w3.org/2000/svg"><path d="M0 57.385h8.88M4.361 53v8.88M0 142.268h8.88m-4.519-4.385v8.879M0 227.15h8.88m-4.519-4.385v8.88M0 312.033h8.88m-4.519-4.386v8.88M0 396.915h8.88m-4.519-4.385v8.88M0 481.798h8.88m-4.519-4.385v8.879M0 566.68h8.88m-4.519-4.385v8.88M0 651.563h8.88m-4.519-4.386v8.88M0 736.445h8.88m-4.519-4.385v8.88M0 821.328h8.88m-4.519-4.385v8.879M0 906.21h8.88m-4.519-4.385v8.88M0 991.093h8.88m-4.519-4.385v8.879M0 1075.98h8.88m-4.519-4.39v8.88M0 1160.86h8.88m-4.519-4.39v8.88M0 1245.74h8.88m-4.519-4.38v8.88M0 1330.62h8.88m-4.519-4.38v8.88M0 1415.51h8.88m-4.519-4.39v8.88M78.077 57.385h8.88M82.438 53v8.88m-4.361 80.388h8.88m-4.519-4.385v8.879m-4.361 80.388h8.88m-4.519-4.385v8.88m-4.361 80.388h8.88m-4.519-4.386v8.88m-4.361 80.388h8.88m-4.519-4.385v8.88m-4.361 80.388h8.88m-4.519-4.385v8.879m-4.361 80.388h8.88m-4.519-4.385v8.88m-4.361 80.388h8.88m-4.519-4.386v8.88m-4.361 80.388h8.88m-4.519-4.385v8.88m-4.361 80.388h8.88m-4.519-4.385v8.879m-4.361 80.388h8.88m-4.519-4.385v8.88m-4.361 80.388h8.88m-4.519-4.385v8.879m-4.361 80.393h8.88m-4.519-4.39v8.88m-4.361 80.39h8.88m-4.519-4.39v8.88m-4.361 80.39h8.88m-4.519-4.38v8.88m-4.361 80.38h8.88m-4.519-4.38v8.88m-4.361 80.39h8.88m-4.519-4.39v8.88M156.154 57.385h8.88M160.514 53v8.88m-4.36 80.388h8.88m-4.52-4.385v8.879m-4.36 80.388h8.88m-4.52-4.385v8.88m-4.36 80.388h8.88m-4.52-4.386v8.88m-4.36 80.388h8.88m-4.52-4.385v8.88m-4.36 80.388h8.88m-4.52-4.385v8.879m-4.36 80.388h8.88m-4.52-4.385v8.88m-4.36 80.388h8.88m-4.52-4.386v8.88m-4.36 80.388h8.88m-4.52-4.385v8.88m-4.36 80.388h8.88m-4.52-4.385v8.879m-4.36 80.388h8.88m-4.52-4.385v8.88m-4.36 80.388h8.88m-4.52-4.385v8.879m-4.36 80.393h8.88m-4.52-4.39v8.88m-4.36 80.39h8.88m-4.52-4.39v8.88m-4.36 80.39h8.88m-4.52-4.38v8.88m-4.36 80.38h8.88m-4.52-4.38v8.88m-4.36 80.39h8.88m-4.52-4.39v8.88M234.231 57.385h8.88M238.591 53v8.88m-4.36 80.388h8.88m-4.52-4.385v8.879m-4.36 80.388h8.88m-4.52-4.385v8.88m-4.36 80.388h8.88m-4.52-4.386v8.88m-4.36 80.388h8.88m-4.52-4.385v8.88m-4.36 80.388h8.88m-4.52-4.385v8.879m-4.36 80.388h8.88m-4.52-4.385v8.88m-4.36 80.388h8.88m-4.52-4.386v8.88m-4.36 80.388h8.88m-4.52-4.385v8.88m-4.36 80.388h8.88m-4.52-4.385v8.879m-4.36 80.388h8.88m-4.52-4.385v8.88m-4.36 80.388h8.88m-4.52-4.385v8.879m-4.36 80.393h8.88m-4.52-4.39v8.88m-4.36 80.39h8.88m-4.52-4.39v8.88m-4.36 80.39h8.88m-4.52-4.38v8.88m-4.36 80.38h8.88m-4.52-4.38v8.88m-4.36 80.39h8.88m-4.52-4.39v8.88M312.308 57.385h8.88M316.668 53v8.88m-4.36 80.388h8.88m-4.52-4.385v8.879m-4.36 80.388h8.88m-4.52-4.385v8.88m-4.36 80.388h8.88m-4.52-4.386v8.88m-4.36 80.388h8.88m-4.52-4.385v8.88m-4.36 80.388h8.88m-4.52-4.385v8.879m-4.36 80.388h8.88m-4.52-4.385v8.88m-4.36 80.388h8.88m-4.52-4.386v8.88m-4.36 80.388h8.88m-4.52-4.385v8.88m-4.36 80.388h8.88m-4.52-4.385v8.879m-4.36 80.388h8.88m-4.52-4.385v8.88m-4.36 80.388h8.88m-4.52-4.385v8.879m-4.36 80.393h8.88m-4.52-4.39v8.88m-4.36 80.39h8.88m-4.52-4.39v8.88m-4.36 80.39h8.88m-4.52-4.38v8.88m-4.36 80.38h8.88m-4.52-4.38v8.88m-4.36 80.39h8.88m-4.52-4.39v8.88M390.385 57.385h8.879M394.745 53v8.88m-4.36 80.388h8.879m-4.519-4.385v8.879m-4.36 80.388h8.879m-4.519-4.385v8.88m-4.36 80.388h8.879m-4.519-4.386v8.88m-4.36 80.388h8.879m-4.519-4.385v8.88m-4.36 80.388h8.879m-4.519-4.385v8.879m-4.36 80.388h8.879m-4.519-4.385v8.88m-4.36 80.388h8.879m-4.519-4.386v8.88m-4.36 80.388h8.879m-4.519-4.385v8.88m-4.36 80.388h8.879m-4.519-4.385v8.879m-4.36 80.388h8.879m-4.519-4.385v8.88m-4.36 80.388h8.879m-4.519-4.385v8.879m-4.36 80.393h8.879m-4.519-4.39v8.88m-4.36 80.39h8.879m-4.519-4.39v8.88m-4.36 80.39h8.879m-4.519-4.38v8.88m-4.36 80.38h8.879m-4.519-4.38v8.88m-4.36 80.39h8.879m-4.519-4.39v8.88M468.461 57.385h8.88M472.822 53v8.88m-4.361 80.388h8.88m-4.519-4.385v8.879m-4.361 80.388h8.88m-4.519-4.385v8.88m-4.361 80.388h8.88m-4.519-4.386v8.88m-4.361 80.388h8.88m-4.519-4.385v8.88m-4.361 80.388h8.88m-4.519-4.385v8.879m-4.361 80.388h8.88m-4.519-4.385v8.88m-4.361 80.388h8.88m-4.519-4.386v8.88m-4.361 80.388h8.88m-4.519-4.385v8.88m-4.361 80.388h8.88m-4.519-4.385v8.879m-4.361 80.388h8.88m-4.519-4.385v8.88m-4.361 80.388h8.88m-4.519-4.385v8.879m-4.361 80.393h8.88m-4.519-4.39v8.88m-4.361 80.39h8.88m-4.519-4.39v8.88m-4.361 80.39h8.88m-4.519-4.38v8.88m-4.361 80.38h8.88m-4.519-4.38v8.88m-4.361 80.39h8.88m-4.519-4.39v8.88M546.538 57.385h8.88M550.899 53v8.88m-4.361 80.388h8.88m-4.519-4.385v8.879m-4.361 80.388h8.88m-4.519-4.385v8.88m-4.361 80.388h8.88m-4.519-4.386v8.88m-4.361 80.388h8.88m-4.519-4.385v8.88m-4.361 80.388h8.88m-4.519-4.385v8.879m-4.361 80.388h8.88m-4.519-4.385v8.88m-4.361 80.388h8.88m-4.519-4.386v8.88m-4.361 80.388h8.88m-4.519-4.385v8.88m-4.361 80.388h8.88m-4.519-4.385v8.879m-4.361 80.388h8.88m-4.519-4.385v8.88m-4.361 80.388h8.88m-4.519-4.385v8.879m-4.361 80.393h8.88m-4.519-4.39v8.88m-4.361 80.39h8.88m-4.519-4.39v8.88m-4.361 80.39h8.88m-4.519-4.38v8.88m-4.361 80.38h8.88m-4.519-4.38v8.88m-4.361 80.39h8.88m-4.519-4.39v8.88M624.615 57.385h8.88M628.976 53v8.88m-4.361 80.388h8.88m-4.519-4.385v8.879m-4.361 80.388h8.88m-4.519-4.385v8.88m-4.361 80.388h8.88m-4.519-4.386v8.88m-4.361 80.388h8.88m-4.519-4.385v8.88m-4.361 80.388h8.88m-4.519-4.385v8.879m-4.361 80.388h8.88m-4.519-4.385v8.88m-4.361 80.388h8.88m-4.519-4.386v8.88m-4.361 80.388h8.88m-4.519-4.385v8.88m-4.361 80.388h8.88m-4.519-4.385v8.879m-4.361 80.388h8.88m-4.519-4.385v8.88m-4.361 80.388h8.88m-4.519-4.385v8.879m-4.361 80.393h8.88m-4.519-4.39v8.88m-4.361 80.39h8.88m-4.519-4.39v8.88m-4.361 80.39h8.88m-4.519-4.38v8.88m-4.361 80.38h8.88m-4.519-4.38v8.88m-4.361 80.39h8.88m-4.519-4.39v8.88M702.692 57.385h8.88M707.053 53v8.88m-4.361 80.388h8.88m-4.519-4.385v8.879m-4.361 80.388h8.88m-4.519-4.385v8.88m-4.361 80.388h8.88m-4.519-4.386v8.88m-4.361 80.388h8.88m-4.519-4.385v8.88m-4.361 80.388h8.88m-4.519-4.385v8.879m-4.361 80.388h8.88m-4.519-4.385v8.88m-4.361 80.388h8.88m-4.519-4.386v8.88m-4.361 80.388h8.88m-4.519-4.385v8.88m-4.361 80.388h8.88m-4.519-4.385v8.879m-4.361 80.388h8.88m-4.519-4.385v8.88m-4.361 80.388h8.88m-4.519-4.385v8.879m-4.361 80.393h8.88m-4.519-4.39v8.88m-4.361 80.39h8.88m-4.519-4.39v8.88m-4.361 80.39h8.88m-4.519-4.38v8.88m-4.361 80.38h8.88m-4.519-4.38v8.88m-4.361 80.39h8.88m-4.519-4.39v8.88M780.769 57.385h8.88M785.13 53v8.88m-4.361 80.388h8.88m-4.519-4.385v8.879m-4.361 80.388h8.88m-4.519-4.385v8.88m-4.361 80.388h8.88m-4.519-4.386v8.88m-4.361 80.388h8.88m-4.519-4.385v8.88m-4.361 80.388h8.88m-4.519-4.385v8.879m-4.361 80.388h8.88m-4.519-4.385v8.88m-4.361 80.388h8.88m-4.519-4.386v8.88m-4.361 80.388h8.88m-4.519-4.385v8.88m-4.361 80.388h8.88m-4.519-4.385v8.879m-4.361 80.388h8.88m-4.519-4.385v8.88m-4.361 80.388h8.88m-4.519-4.385v8.879m-4.361 80.393h8.88m-4.519-4.39v8.88m-4.361 80.39h8.88m-4.519-4.39v8.88m-4.361 80.39h8.88m-4.519-4.38v8.88m-4.361 80.38h8.88m-4.519-4.38v8.88m-4.361 80.39h8.88m-4.519-4.39v8.88M858.846 57.385h8.88M863.207 53v8.88m-4.361 80.388h8.88m-4.519-4.385v8.879m-4.361 80.388h8.88m-4.519-4.385v8.88m-4.361 80.388h8.88m-4.519-4.386v8.88m-4.361 80.388h8.88m-4.519-4.385v8.88m-4.361 80.388h8.88m-4.519-4.385v8.879m-4.361 80.388h8.88m-4.519-4.385v8.88m-4.361 80.388h8.88m-4.519-4.386v8.88m-4.361 80.388h8.88m-4.519-4.385v8.88m-4.361 80.388h8.88m-4.519-4.385v8.879m-4.361 80.388h8.88m-4.519-4.385v8.88m-4.361 80.388h8.88m-4.519-4.385v8.879m-4.361 80.393h8.88m-4.519-4.39v8.88m-4.361 80.39h8.88m-4.519-4.39v8.88m-4.361 80.39h8.88m-4.519-4.38v8.88m-4.361 80.38h8.88m-4.519-4.38v8.88m-4.361 80.39h8.88m-4.519-4.39v8.88M936.923 57.385h8.88M941.284 53v8.88m-4.361 80.388h8.88m-4.519-4.385v8.879m-4.361 80.388h8.88m-4.519-4.385v8.88m-4.361 80.388h8.88m-4.519-4.386v8.88m-4.361 80.388h8.88m-4.519-4.385v8.88m-4.361 80.388h8.88m-4.519-4.385v8.879m-4.361 80.388h8.88m-4.519-4.385v8.88m-4.361 80.388h8.88m-4.519-4.386v8.88m-4.361 80.388h8.88m-4.519-4.385v8.88m-4.361 80.388h8.88m-4.519-4.385v8.879m-4.361 80.388h8.88m-4.519-4.385v8.88m-4.361 80.388h8.88m-4.519-4.385v8.879m-4.361 80.393h8.88m-4.519-4.39v8.88m-4.361 80.39h8.88m-4.519-4.39v8.88m-4.361 80.39h8.88m-4.519-4.38v8.88m-4.361 80.38h8.88m-4.519-4.38v8.88m-4.361 80.39h8.88m-4.519-4.39v8.88M1015 57.385h8.88M1019.36 53v8.88m-4.36 80.388h8.88m-4.52-4.385v8.879M1015 227.15h8.88m-4.52-4.385v8.88m-4.36 80.388h8.88m-4.52-4.386v8.88m-4.36 80.388h8.88m-4.52-4.385v8.88m-4.36 80.388h8.88m-4.52-4.385v8.879M1015 566.68h8.88m-4.52-4.385v8.88m-4.36 80.388h8.88m-4.52-4.386v8.88m-4.36 80.388h8.88m-4.52-4.385v8.88m-4.36 80.388h8.88m-4.52-4.385v8.879M1015 906.21h8.88m-4.52-4.385v8.88m-4.36 80.388h8.88m-4.52-4.385v8.879m-4.36 80.393h8.88m-4.52-4.39v8.88m-4.36 80.39h8.88m-4.52-4.39v8.88m-4.36 80.39h8.88m-4.52-4.38v8.88m-4.36 80.38h8.88m-4.52-4.38v8.88m-4.36 80.39h8.88m-4.52-4.39v8.88" opacity=".4" stroke="#2BFFE8" stroke-width=".555"/></svg>