<svg width="1024" height="1366" fill="none" xmlns="http://www.w3.org/2000/svg"><path d="M-.18 3.385H8.7M4.181-1v8.88M-.18 88.268H8.7m-4.519-4.385v8.88M-.18 173.15H8.7m-4.519-4.385v8.88M-.18 258.033H8.7m-4.519-4.386v8.88M-.18 342.915H8.7m-4.519-4.385v8.88M-.18 427.798H8.7m-4.519-4.385v8.879M-.18 512.68H8.7m-4.519-4.385v8.88M-.18 597.563H8.7m-4.519-4.386v8.88M-.18 682.445H8.7m-4.519-4.385v8.88M-.18 767.328H8.7m-4.519-4.385v8.88M-.18 852.211H8.7m-4.519-4.386v8.88M-.18 937.093H8.7m-4.519-4.385v8.879M-.18 1021.98H8.7m-4.519-4.39v8.88m-4.361 80.39H8.7m-4.519-4.39v8.88m-4.361 80.39H8.7m-4.519-4.38v8.88m-4.361 80.38H8.7m-4.519-4.38v8.88m-4.361 80.39H8.7m-4.519-4.39v8.88M77.897 3.385h8.88M82.258-1v8.88m-4.361 80.388h8.88m-4.519-4.385v8.88m-4.361 80.387h8.88m-4.519-4.385v8.88m-4.361 80.388h8.88m-4.519-4.386v8.88m-4.361 80.388h8.88m-4.519-4.385v8.88m-4.361 80.388h8.88m-4.519-4.385v8.879m-4.361 80.388h8.88m-4.519-4.385v8.88m-4.361 80.388h8.88m-4.519-4.386v8.88m-4.361 80.388h8.88m-4.519-4.385v8.88m-4.361 80.388h8.88m-4.519-4.385v8.88m-4.361 80.388h8.88m-4.519-4.386v8.88m-4.361 80.388h8.88m-4.519-4.385v8.879m-4.361 80.393h8.88m-4.519-4.39v8.88m-4.361 80.39h8.88m-4.519-4.39v8.88m-4.361 80.39h8.88m-4.519-4.38v8.88m-4.361 80.38h8.88m-4.519-4.38v8.88m-4.361 80.39h8.88m-4.519-4.39v8.88M155.974 3.385h8.88M160.335-1v8.88m-4.361 80.388h8.88m-4.519-4.385v8.88m-4.361 80.387h8.88m-4.519-4.385v8.88m-4.361 80.388h8.88m-4.519-4.386v8.88m-4.361 80.388h8.88m-4.519-4.385v8.88m-4.361 80.388h8.88m-4.519-4.385v8.879m-4.361 80.388h8.88m-4.519-4.385v8.88m-4.361 80.388h8.88m-4.519-4.386v8.88m-4.361 80.388h8.88m-4.519-4.385v8.88m-4.361 80.388h8.88m-4.519-4.385v8.88m-4.361 80.388h8.88m-4.519-4.386v8.88m-4.361 80.388h8.88m-4.519-4.385v8.879m-4.361 80.393h8.88m-4.519-4.39v8.88m-4.361 80.39h8.88m-4.519-4.39v8.88m-4.361 80.39h8.88m-4.519-4.38v8.88m-4.361 80.38h8.88m-4.519-4.38v8.88m-4.361 80.39h8.88m-4.519-4.39v8.88M234.051 3.385h8.88M238.412-1v8.88m-4.361 80.388h8.88m-4.519-4.385v8.88m-4.361 80.387h8.88m-4.519-4.385v8.88m-4.361 80.388h8.88m-4.519-4.386v8.88m-4.361 80.388h8.88m-4.519-4.385v8.88m-4.361 80.388h8.88m-4.519-4.385v8.879m-4.361 80.388h8.88m-4.519-4.385v8.88m-4.361 80.388h8.88m-4.519-4.386v8.88m-4.361 80.388h8.88m-4.519-4.385v8.88m-4.361 80.388h8.88m-4.519-4.385v8.88m-4.361 80.388h8.88m-4.519-4.386v8.88m-4.361 80.388h8.88m-4.519-4.385v8.879m-4.361 80.393h8.88m-4.519-4.39v8.88m-4.361 80.39h8.88m-4.519-4.39v8.88m-4.361 80.39h8.88m-4.519-4.38v8.88m-4.361 80.38h8.88m-4.519-4.38v8.88m-4.361 80.39h8.88m-4.519-4.39v8.88M312.128 3.385h8.88M316.489-1v8.88m-4.361 80.388h8.88m-4.519-4.385v8.88m-4.361 80.387h8.88m-4.519-4.385v8.88m-4.361 80.388h8.88m-4.519-4.386v8.88m-4.361 80.388h8.88m-4.519-4.385v8.88m-4.361 80.388h8.88m-4.519-4.385v8.879m-4.361 80.388h8.88m-4.519-4.385v8.88m-4.361 80.388h8.88m-4.519-4.386v8.88m-4.361 80.388h8.88m-4.519-4.385v8.88m-4.361 80.388h8.88m-4.519-4.385v8.88m-4.361 80.388h8.88m-4.519-4.386v8.88m-4.361 80.388h8.88m-4.519-4.385v8.879m-4.361 80.393h8.88m-4.519-4.39v8.88m-4.361 80.39h8.88m-4.519-4.39v8.88m-4.361 80.39h8.88m-4.519-4.38v8.88m-4.361 80.38h8.88m-4.519-4.38v8.88m-4.361 80.39h8.88m-4.519-4.39v8.88M390.205 3.385h8.88M394.565-1v8.88m-4.36 80.388h8.88m-4.52-4.385v8.88m-4.36 80.387h8.88m-4.52-4.385v8.88m-4.36 80.388h8.88m-4.52-4.386v8.88m-4.36 80.388h8.88m-4.52-4.385v8.88m-4.36 80.388h8.88m-4.52-4.385v8.879m-4.36 80.388h8.88m-4.52-4.385v8.88m-4.36 80.388h8.88m-4.52-4.386v8.88m-4.36 80.388h8.88m-4.52-4.385v8.88m-4.36 80.388h8.88m-4.52-4.385v8.88m-4.36 80.388h8.88m-4.52-4.386v8.88m-4.36 80.388h8.88m-4.52-4.385v8.879m-4.36 80.393h8.88m-4.52-4.39v8.88m-4.36 80.39h8.88m-4.52-4.39v8.88m-4.36 80.39h8.88m-4.52-4.38v8.88m-4.36 80.38h8.88m-4.52-4.38v8.88m-4.36 80.39h8.88m-4.52-4.39v8.88M468.282 3.385h8.88M472.642-1v8.88m-4.36 80.388h8.88m-4.52-4.385v8.88m-4.36 80.387h8.88m-4.52-4.385v8.88m-4.36 80.388h8.88m-4.52-4.386v8.88m-4.36 80.388h8.88m-4.52-4.385v8.88m-4.36 80.388h8.88m-4.52-4.385v8.879m-4.36 80.388h8.88m-4.52-4.385v8.88m-4.36 80.388h8.88m-4.52-4.386v8.88m-4.36 80.388h8.88m-4.52-4.385v8.88m-4.36 80.388h8.88m-4.52-4.385v8.88m-4.36 80.388h8.88m-4.52-4.386v8.88m-4.36 80.388h8.88m-4.52-4.385v8.879m-4.36 80.393h8.88m-4.52-4.39v8.88m-4.36 80.39h8.88m-4.52-4.39v8.88m-4.36 80.39h8.88m-4.52-4.38v8.88m-4.36 80.38h8.88m-4.52-4.38v8.88m-4.36 80.39h8.88m-4.52-4.39v8.88M546.359 3.385h8.88M550.719-1v8.88m-4.36 80.388h8.88m-4.52-4.385v8.88m-4.36 80.387h8.88m-4.52-4.385v8.88m-4.36 80.388h8.88m-4.52-4.386v8.88m-4.36 80.388h8.88m-4.52-4.385v8.88m-4.36 80.388h8.88m-4.52-4.385v8.879m-4.36 80.388h8.88m-4.52-4.385v8.88m-4.36 80.388h8.88m-4.52-4.386v8.88m-4.36 80.388h8.88m-4.52-4.385v8.88m-4.36 80.388h8.88m-4.52-4.385v8.88m-4.36 80.388h8.88m-4.52-4.386v8.88m-4.36 80.388h8.88m-4.52-4.385v8.879m-4.36 80.393h8.88m-4.52-4.39v8.88m-4.36 80.39h8.88m-4.52-4.39v8.88m-4.36 80.39h8.88m-4.52-4.38v8.88m-4.36 80.38h8.88m-4.52-4.38v8.88m-4.36 80.39h8.88m-4.52-4.39v8.88M624.436 3.385h8.879M628.796-1v8.88m-4.36 80.388h8.879m-4.519-4.385v8.88m-4.36 80.387h8.879m-4.519-4.385v8.88m-4.36 80.388h8.879m-4.519-4.386v8.88m-4.36 80.388h8.879m-4.519-4.385v8.88m-4.36 80.388h8.879m-4.519-4.385v8.879m-4.36 80.388h8.879m-4.519-4.385v8.88m-4.36 80.388h8.879m-4.519-4.386v8.88m-4.36 80.388h8.879m-4.519-4.385v8.88m-4.36 80.388h8.879m-4.519-4.385v8.88m-4.36 80.388h8.879m-4.519-4.386v8.88m-4.36 80.388h8.879m-4.519-4.385v8.879m-4.36 80.393h8.879m-4.519-4.39v8.88m-4.36 80.39h8.879m-4.519-4.39v8.88m-4.36 80.39h8.879m-4.519-4.38v8.88m-4.36 80.38h8.879m-4.519-4.38v8.88m-4.36 80.39h8.879m-4.519-4.39v8.88M702.512 3.385h8.88M706.873-1v8.88m-4.361 80.388h8.88m-4.519-4.385v8.88m-4.361 80.387h8.88m-4.519-4.385v8.88m-4.361 80.388h8.88m-4.519-4.386v8.88m-4.361 80.388h8.88m-4.519-4.385v8.88m-4.361 80.388h8.88m-4.519-4.385v8.879m-4.361 80.388h8.88m-4.519-4.385v8.88m-4.361 80.388h8.88m-4.519-4.386v8.88m-4.361 80.388h8.88m-4.519-4.385v8.88m-4.361 80.388h8.88m-4.519-4.385v8.88m-4.361 80.388h8.88m-4.519-4.386v8.88m-4.361 80.388h8.88m-4.519-4.385v8.879m-4.361 80.393h8.88m-4.519-4.39v8.88m-4.361 80.39h8.88m-4.519-4.39v8.88m-4.361 80.39h8.88m-4.519-4.38v8.88m-4.361 80.38h8.88m-4.519-4.38v8.88m-4.361 80.39h8.88m-4.519-4.39v8.88M780.589 3.385h8.88M784.95-1v8.88m-4.361 80.388h8.88m-4.519-4.385v8.88m-4.361 80.387h8.88m-4.519-4.385v8.88m-4.361 80.388h8.88m-4.519-4.386v8.88m-4.361 80.388h8.88m-4.519-4.385v8.88m-4.361 80.388h8.88m-4.519-4.385v8.879m-4.361 80.388h8.88m-4.519-4.385v8.88m-4.361 80.388h8.88m-4.519-4.386v8.88m-4.361 80.388h8.88m-4.519-4.385v8.88m-4.361 80.388h8.88m-4.519-4.385v8.88m-4.361 80.388h8.88m-4.519-4.386v8.88m-4.361 80.388h8.88m-4.519-4.385v8.879m-4.361 80.393h8.88m-4.519-4.39v8.88m-4.361 80.39h8.88m-4.519-4.39v8.88m-4.361 80.39h8.88m-4.519-4.38v8.88m-4.361 80.38h8.88m-4.519-4.38v8.88m-4.361 80.39h8.88m-4.519-4.39v8.88M858.666 3.385h8.88M863.027-1v8.88m-4.361 80.388h8.88m-4.519-4.385v8.88m-4.361 80.387h8.88m-4.519-4.385v8.88m-4.361 80.388h8.88m-4.519-4.386v8.88m-4.361 80.388h8.88m-4.519-4.385v8.88m-4.361 80.388h8.88m-4.519-4.385v8.879m-4.361 80.388h8.88m-4.519-4.385v8.88m-4.361 80.388h8.88m-4.519-4.386v8.88m-4.361 80.388h8.88m-4.519-4.385v8.88m-4.361 80.388h8.88m-4.519-4.385v8.88m-4.361 80.388h8.88m-4.519-4.386v8.88m-4.361 80.388h8.88m-4.519-4.385v8.879m-4.361 80.393h8.88m-4.519-4.39v8.88m-4.361 80.39h8.88m-4.519-4.39v8.88m-4.361 80.39h8.88m-4.519-4.38v8.88m-4.361 80.38h8.88m-4.519-4.38v8.88m-4.361 80.39h8.88m-4.519-4.39v8.88M936.743 3.385h8.88M941.104-1v8.88m-4.361 80.388h8.88m-4.519-4.385v8.88m-4.361 80.387h8.88m-4.519-4.385v8.88m-4.361 80.388h8.88m-4.519-4.386v8.88m-4.361 80.388h8.88m-4.519-4.385v8.88m-4.361 80.388h8.88m-4.519-4.385v8.879m-4.361 80.388h8.88m-4.519-4.385v8.88m-4.361 80.388h8.88m-4.519-4.386v8.88m-4.361 80.388h8.88m-4.519-4.385v8.88m-4.361 80.388h8.88m-4.519-4.385v8.88m-4.361 80.388h8.88m-4.519-4.386v8.88m-4.361 80.388h8.88m-4.519-4.385v8.879m-4.361 80.393h8.88m-4.519-4.39v8.88m-4.361 80.39h8.88m-4.519-4.39v8.88m-4.361 80.39h8.88m-4.519-4.38v8.88m-4.361 80.38h8.88m-4.519-4.38v8.88m-4.361 80.39h8.88m-4.519-4.39v8.88M1014.82 3.385h8.88M1019.18-1v8.88m-4.36 80.388h8.88m-4.52-4.385v8.88m-4.36 80.387h8.88m-4.52-4.385v8.88m-4.36 80.388h8.88m-4.52-4.386v8.88m-4.36 80.388h8.88m-4.52-4.385v8.88m-4.36 80.388h8.88m-4.52-4.385v8.879m-4.36 80.388h8.88m-4.52-4.385v8.88m-4.36 80.388h8.88m-4.52-4.386v8.88m-4.36 80.388h8.88m-4.52-4.385v8.88m-4.36 80.388h8.88m-4.52-4.385v8.88m-4.36 80.388h8.88m-4.52-4.386v8.88m-4.36 80.388h8.88m-4.52-4.385v8.879m-4.36 80.393h8.88m-4.52-4.39v8.88m-4.36 80.39h8.88m-4.52-4.39v8.88m-4.36 80.39h8.88m-4.52-4.38v8.88m-4.36 80.38h8.88m-4.52-4.38v8.88m-4.36 80.39h8.88m-4.52-4.39v8.88" opacity=".4" stroke="#2BFFE8" stroke-width=".555"/></svg>