<svg width="571" height="129" viewBox="0 0 571 129" fill="none" xmlns="http://www.w3.org/2000/svg">
<path d="M284.701 59.018C275.218 65.4121 265.896 71.6804 256.592 77.9668C233.045 93.8622 209.534 109.776 185.952 125.635C177.277 131.472 166.59 128.706 162.477 119.708C159.172 112.488 161.561 104.764 168.691 99.933C191.25 84.6662 213.845 69.4353 236.422 54.1865C246.247 47.5409 256.089 40.9133 266.686 33.7469C264.764 33.6571 263.687 33.5673 262.609 33.5673C239.763 33.5673 216.898 33.5673 194.052 33.5673C189.993 33.5673 189.975 33.5673 191.268 29.6159C193.908 21.5335 196.62 13.469 199.153 5.35067C199.782 3.33904 200.554 2.51284 202.817 2.51284C238.308 2.56672 273.799 2.45896 309.289 2.51284C325.221 2.54876 334.542 15.5345 329.657 30.6936C319.689 61.5684 309.631 92.4073 299.716 123.282C298.962 125.635 297.866 126.318 295.477 126.3C285.904 126.156 276.313 126.174 266.722 126.3C264.154 126.336 263.453 125.887 264.351 123.139C270.979 103.112 277.463 83.0317 283.929 62.9514C284.306 61.8019 284.988 60.6524 284.683 59.0539" fill="#2BFFE8"/>
<path d="M468.141 33.7371C466.507 33.6473 465.698 33.5575 464.89 33.5575C443.193 33.5575 421.514 33.5934 399.818 33.5036C397.536 33.5036 396.585 34.2221 395.902 36.3774C386.562 65.3484 377.097 94.2835 367.775 123.272C367.021 125.643 365.961 126.326 363.59 126.29C353.802 126.164 344.013 126.182 334.206 126.29C331.943 126.308 331.584 125.679 332.266 123.614C345.18 83.9919 358.058 44.352 370.882 4.71225C371.439 3.00596 372.265 2.46713 374.026 2.46713C410.361 2.53898 446.678 2.46713 483.013 2.64674C495.442 2.70062 505.033 10.2083 508.338 21.6674C511.678 33.2522 507.619 44.4957 497.381 51.4646C482.779 61.4149 468.123 71.2935 453.431 81.1181C451.419 82.4652 451.078 83.3093 452.802 85.285C458.137 91.3738 463.417 97.5524 468.41 103.928C474.751 111.975 471.859 123.416 462.681 127.583C456.412 130.421 449.102 128.948 444.594 123.596C431.824 108.473 419.179 93.2417 406.391 78.1366C404.757 76.2148 406.05 75.7478 407.289 74.9036C426.472 61.9538 445.654 49.0219 464.836 36.0721C465.698 35.4793 466.56 34.8687 468.141 33.7731" fill="#2BFFE8"/>
<path d="M135.173 33.5579H132.048C110.89 33.5579 89.7141 33.6298 68.5561 33.4681C65.5027 33.4502 64.443 34.5099 63.5809 37.1861C54.3669 65.8697 45.0093 94.4994 35.7953 123.183C35.0589 125.464 34.1429 126.326 31.7002 126.29C22.0193 126.147 12.3204 126.183 2.63943 126.272C0.358391 126.29 -0.539656 126.039 0.322469 123.399C13.2543 83.9025 26.0785 44.3525 38.8666 4.82045C39.4594 2.98843 40.3933 2.4496 42.2433 2.46756C78.3628 2.53941 114.464 2.46756 150.584 2.61125C163.264 2.66513 172.73 9.86747 176.268 21.56C179.77 33.1448 175.657 44.5141 165.222 51.5907C145.285 65.1153 125.313 78.5681 105.322 92.0028C97.4732 97.2834 88.0437 95.613 83.0865 88.249C78.3089 81.1544 80.3205 71.6351 87.9719 66.3905C102.646 56.3504 117.41 46.4719 132.138 36.5215C133.233 35.7851 134.311 35.0128 135.389 34.2584C135.299 34.0249 135.227 33.8094 135.137 33.5759" fill="#2BFFE8"/>
<path d="M518.551 126.228C513.702 126.228 508.852 126.12 504.021 126.282C501.47 126.372 500.824 125.851 501.704 123.211C508.349 103.076 514.869 82.8884 521.425 62.7362C526.975 45.6733 532.453 28.5745 538.111 11.5296C540.374 4.70441 545.259 0.735038 552.497 0.0884437C559.574 -0.55815 565.016 2.35152 568.59 8.45824C571.033 12.6611 571.482 17.1693 569.973 21.8391C558.927 55.8931 547.881 89.9291 536.871 124.001C536.333 125.671 535.524 126.318 533.746 126.282C528.699 126.174 523.634 126.246 518.587 126.246" fill="#2BFFE8"/>
</svg>
