<svg width="276" height="62" viewBox="0 0 276 62" fill="none" xmlns="http://www.w3.org/2000/svg">
<path d="M137.654 28.3652C133.096 31.4384 128.616 34.4511 124.144 37.4724C112.827 45.1121 101.527 52.7604 90.1928 60.3828C86.0233 63.1883 80.887 61.8589 78.9102 57.5341C77.3219 54.0639 78.47 50.3519 81.897 48.0298C92.7393 40.6923 103.599 33.372 114.45 26.0431C119.172 22.8491 123.902 19.6638 128.995 16.2195C128.072 16.1763 127.554 16.1331 127.036 16.1331C116.055 16.1331 105.066 16.1331 94.086 16.1331C92.135 16.1331 92.1264 16.1331 92.748 14.234C94.0169 10.3494 95.3204 6.47349 96.5376 2.57165C96.8397 1.60483 97.2109 1.20774 98.2986 1.20774C115.356 1.23363 132.414 1.18184 149.471 1.20774C157.128 1.225 161.609 7.46622 159.261 14.752C154.47 29.591 149.635 44.4128 144.87 59.2519C144.508 60.3828 143.981 60.7108 142.833 60.7022C138.232 60.6331 133.622 60.6417 129.013 60.7022C127.778 60.7194 127.442 60.5036 127.873 59.1829C131.058 49.5578 134.175 39.9067 137.282 30.2557C137.464 29.7033 137.792 29.1508 137.645 28.3825" fill="black"/>
<path d="M225.818 16.2147C225.033 16.1716 224.644 16.1284 224.256 16.1284C213.828 16.1284 203.409 16.1457 192.981 16.1025C191.885 16.1025 191.427 16.4478 191.099 17.4837C186.61 31.4077 182.061 45.3145 177.581 59.2472C177.218 60.3867 176.709 60.7147 175.569 60.6974C170.865 60.637 166.16 60.6456 161.447 60.6974C160.359 60.7061 160.186 60.4039 160.514 59.4112C166.721 40.3682 172.911 21.3165 179.074 2.26478C179.342 1.4447 179.739 1.18573 180.585 1.18573C198.048 1.22026 215.503 1.18573 232.966 1.27205C238.94 1.29795 243.549 4.90629 245.138 10.4138C246.743 15.9816 244.792 21.3855 239.872 24.7349C232.854 29.5172 225.81 34.265 218.749 38.987C217.782 39.6344 217.618 40.0401 218.446 40.9897C221.01 43.9161 223.548 46.8856 225.948 49.9501C228.995 53.8174 227.605 59.3163 223.194 61.319C220.182 62.6829 216.668 61.975 214.501 59.4026C208.364 52.1341 202.287 44.8138 196.14 37.554C195.355 36.6303 195.976 36.4059 196.572 36.0002C205.791 29.7762 215.011 23.5609 224.23 17.3369C224.644 17.0521 225.059 16.7586 225.818 16.232" fill="black"/>
<path d="M65.7876 16.1286H64.2856C54.1166 16.1286 43.939 16.1631 33.7701 16.0854C32.3026 16.0768 31.7932 16.5861 31.3789 17.8723C26.9505 31.6583 22.453 45.4183 18.0246 59.2042C17.6706 60.3005 17.2304 60.7149 16.0564 60.6976C11.4035 60.6286 6.74204 60.6458 2.08918 60.689C0.992868 60.6976 0.561248 60.5768 0.975603 59.3078C7.19093 40.3252 13.3545 21.3167 19.5007 2.31678C19.7856 1.43628 20.2345 1.1773 21.1236 1.18594C38.4833 1.22047 55.8345 1.18594 73.1942 1.255C79.2887 1.28089 83.8379 4.74248 85.5385 10.3622C87.2218 15.9301 85.245 21.3944 80.2296 24.7955C70.6476 31.2957 61.0484 37.7614 51.4406 44.2184C47.6682 46.7563 43.1362 45.9535 40.7537 42.4142C38.4575 39.0044 39.4243 34.4293 43.1017 31.9086C50.1543 27.0831 57.2502 22.3353 64.3287 17.5529C64.8553 17.199 65.3733 16.8278 65.8912 16.4653C65.848 16.353 65.8135 16.2495 65.7703 16.1372" fill="black"/>
<path d="M250.047 60.6678C247.716 60.6678 245.385 60.616 243.063 60.6937C241.837 60.7368 241.527 60.4865 241.95 59.2175C245.144 49.5406 248.277 39.8378 251.428 30.1523C254.095 21.9515 256.728 13.7335 259.447 5.54134C260.535 2.26103 262.883 0.353274 266.362 0.0425078C269.763 -0.268258 272.379 1.13019 274.097 4.0652C275.271 6.08518 275.486 8.25191 274.761 10.4963C269.452 26.8633 264.143 43.2217 258.852 59.5974C258.593 60.4002 258.204 60.7109 257.35 60.6937C254.924 60.6419 252.49 60.6764 250.064 60.6764" fill="black"/>
</svg>
