<svg width="434" height="97" viewBox="0 0 434 97" fill="none" xmlns="http://www.w3.org/2000/svg">
<path d="M62.6929 20.6689L56.2824 14.2017L49.4003 7.44055H21.2658L14.5608 14.2017L8.15161 20.6689H28.663V79.0795L35.4222 85.72L42.1815 79.0795V20.6689H62.6929Z" fill="black"/>
<path d="M56.0491 26.9891H49.5963V53.0508L42.8543 59.6702L47.6017 64.2498L52.3967 68.8768L62.7145 58.7396L62.7158 26.9891H56.0491ZM21.2518 53.0508V26.9891H8.12964V58.7396L18.4514 68.8768L23.2464 64.2498L27.9898 59.6702L21.2518 53.0508Z" fill="black"/>
<path d="M20.2543 3.87953L3.65018 20.371V60.3475L35.334 91.2448L67.0166 60.3475V20.3723L50.4138 3.87953H20.2543ZM0.602782 18.3824L18.2623 0.850049L18.7854 0.327637H51.8787L52.4018 0.850049L70.0627 18.3824L70.5923 18.9101V61.8242L70.056 62.3466L36.5823 94.9896L35.3327 96.2077L34.0818 94.9896L0.609393 62.3466L0.0717773 61.8242V18.9101L0.602782 18.3824Z" fill="black"/>
<path d="M432.378 34.025L419.564 36.1252L418.396 36.3168L418.38 35.1381C418.374 34.6222 418.352 34.1065 418.314 33.5919C418.207 32.0876 417.97 30.9588 417.635 30.2329C417.432 29.7919 417.246 29.5635 417.091 29.5661C417.066 29.5661 417.112 29.5661 417.077 29.5688C416.86 29.5951 416.66 29.7003 416.517 29.8641C416.285 30.1219 416.118 30.4305 416.029 30.7645C415.901 31.1846 415.847 31.682 415.888 32.2255C415.987 33.5919 416.671 35.2195 418.243 36.7224C419.182 37.6176 420.182 38.5299 421.179 39.4395C427.339 45.0587 433.395 50.5835 433.567 60.3006C433.6 62.347 433.088 64.5429 432.269 66.5762C431.36 68.8299 430.063 70.9064 428.723 72.3463C427.319 73.8532 425.508 74.8875 423.621 75.5688C421.218 76.4351 418.666 76.7435 416.676 76.7527C412.648 76.7763 409.484 75.658 407.015 73.7758L407.419 74.7576L407.995 76.1529H390.892L390.629 75.5268L385.874 64.2109L385.862 75.1369L385.86 76.1516H357.813L357.583 75.4441L353.445 62.7276L353.417 75.1356L353.413 76.1502H325.362L325.224 75.2944L323.372 63.7606H321.53L319.297 75.3286L319.137 76.1516H290.703L290.704 75.1395L290.756 46.0314H282.18L282.157 48.8561H289.081L289.078 49.8707L289.051 59.7611L289.048 60.7758H282.166L282.133 75.1343L282.13 76.1463H270.027V75.1343L270.032 70.661C269.55 71.4642 268.971 72.2049 268.305 72.8661C267.259 73.9084 266.015 74.7351 264.646 75.2987C263.277 75.8622 261.809 76.1516 260.327 76.1502C258.845 76.1518 257.377 75.8625 256.008 75.2989C254.639 74.7353 253.395 73.9086 252.349 72.8661C250.296 70.8297 249.113 68.0848 249.046 65.2032C248.226 67.4569 246.828 69.6096 245.065 71.3999C242.286 74.2168 238.578 76.1502 234.76 76.1502H178.407L178.211 75.3811L174.403 60.4581L174.379 75.1356L174.378 76.1502H159.099L159.101 75.1356L159.116 68.3009C158.382 69.6172 157.465 70.8243 156.392 71.8869C154.889 73.3858 153.102 74.5744 151.135 75.3845C149.168 76.1946 147.059 76.61 144.929 76.607C142.8 76.6092 140.691 76.1933 138.724 75.3833C136.757 74.5733 134.97 73.3851 133.466 71.8869C131.958 70.3928 130.763 68.6173 129.948 66.6625C129.133 64.7077 128.715 62.6121 128.717 60.4962V46.8268L124.218 75.2892L124.081 76.1502H110.227L110.109 75.2656L108.994 66.9358L107.881 75.2656L107.763 76.1502H93.9173L93.7747 75.3023L83.8452 17.0348L83.6458 15.8534H99.201L99.3384 16.7092L100.411 23.3418L101.241 16.746L101.353 15.8534H115.924L116.036 16.746L116.866 23.3418L117.94 16.7092L118.077 15.8534H133.615L133.429 17.0229L132.889 20.4409C134.407 18.7627 136.264 17.4211 138.339 16.5036C140.413 15.5861 142.659 15.1132 144.93 15.1157C147.06 15.1135 149.169 15.5293 151.136 16.3393C153.104 17.1493 154.891 18.3376 156.395 19.8358C157.511 20.9468 158.46 22.2126 159.211 23.5938L159.225 16.8694L159.228 15.8547H176.853V15.86H176.886C179.823 15.8679 183.474 16.9521 186.385 19.2977C188.19 20.7507 189.715 22.6842 190.625 25.1348L190.645 16.8694L190.65 15.8547H205.743L205.741 16.8694L205.662 60.6773H217.155L217.246 16.8694L217.249 15.8547H234.871V15.86C238.975 15.8652 242.745 17.9129 245.478 20.9253C248.192 23.9167 249.897 27.886 249.897 31.7516H249.901V31.77H249.897L249.885 40.907C250.453 39.5335 251.29 38.2857 252.347 37.2356C253.394 36.1932 254.638 35.3665 256.008 34.8029C257.377 34.2394 258.845 33.95 260.327 33.9515C263.44 33.9515 266.262 35.2077 268.305 37.2356C268.983 37.9093 269.571 38.6658 270.057 39.4867L270.061 34.9675L270.062 33.9528H290.776L290.781 30.8709H282.443L282.441 29.8562L282.413 16.8733L282.41 15.8587H331.042L331.179 16.7092L337.792 57.1464L337.827 16.8733V15.8587H353.154L353.375 16.5819L357.53 30.2264V15.8626H385.911L385.908 16.8746L385.885 23.2197L389.546 16.4008L389.836 15.8626H406.975L406.229 17.334L404.924 19.9054C405.727 19.0407 406.634 18.2772 407.624 17.632C410.014 16.0857 412.966 15.1971 416.451 15.2575C421.792 15.3494 425.891 17.2264 428.713 20.2204C431.775 23.4757 433.296 28.0291 433.23 33.0419L433.218 33.8898L432.378 34.025ZM399.26 54.9032L399.232 54.4727L400.27 54.4162L413.068 53.7324L414.149 53.6733L414.136 54.7496C414.119 56.2827 414.275 57.6216 414.552 58.7386C414.839 59.8871 415.247 60.7745 415.72 61.3612C416.082 61.8127 416.453 62.0529 416.785 62.0556C416.849 62.0562 416.913 62.0483 416.975 62.0319C417.168 61.9767 417.342 61.8716 417.481 61.7274C417.738 61.4793 417.954 61.1066 418.071 60.6353C418.201 60.1169 418.209 59.4921 418.03 58.7741C417.749 57.6492 417.017 56.3287 415.602 54.8848C414.408 53.6694 413.095 52.5182 411.753 51.3474C410.027 49.8379 408.258 48.289 406.529 46.4015C405.993 45.8152 405.472 45.216 404.965 44.6046C404.583 44.1478 404.224 43.6721 403.891 43.1791C401.628 39.7116 400.457 35.6517 400.529 31.5193C400.554 30.2172 400.701 28.9295 400.973 27.6891L393.847 41.726L399.26 54.9032ZM174.395 40.7442C175.148 40.7206 175.701 40.6576 176.016 40.4489C176.392 40.2021 176.568 39.5668 176.567 38.2319L176.553 32.1533C176.552 31.2791 175.608 31.1741 174.452 31.1662L174.395 40.7442ZM311.201 30.8695H305.952L305.799 62.5255L311.201 30.8695ZM292.817 29.8536L292.736 74.1236H303.706L303.922 29.851L303.927 28.8389H312.226L312.2 17.8866H284.449L284.475 28.8389H292.819L292.817 29.8536ZM272.095 35.9808L272.061 74.1236H280.096L280.13 59.7664L280.133 58.7517H287.015L287.038 50.8919H280.104L280.112 49.8694L280.15 45.0141L280.159 44.006H289.612L289.596 35.9847H272.096V35.9808H272.095ZM269.564 64.9328V45.1742L269.568 45.1664V45.1611H269.564C269.566 43.9556 269.328 42.7616 268.863 41.6481C268.398 40.5345 267.716 39.5234 266.856 38.6729C266 37.8189 264.982 37.1416 263.861 36.6801C262.74 36.2185 261.538 35.9817 260.324 35.9834C259.111 35.981 257.908 36.2174 256.787 36.679C255.666 37.1406 254.647 37.8183 253.791 38.6729C252.932 39.5239 252.251 40.5352 251.786 41.6486C251.322 42.7621 251.083 43.9558 251.084 45.1611V64.9393C251.084 67.4753 252.119 69.7723 253.791 71.4328C255.465 73.0919 257.775 74.1223 260.324 74.1223C262.874 74.1223 265.185 73.0945 266.856 71.4328C267.716 70.581 268.398 69.5689 268.862 68.4545C269.327 67.3402 269.566 66.1456 269.564 64.9393H269.568V64.9367L269.564 64.9328ZM257.891 45.3869C257.89 45.0692 257.953 44.7545 258.075 44.4608C258.197 44.1671 258.376 43.9003 258.602 43.6757C258.828 43.451 259.097 43.273 259.392 43.1517C259.688 43.0304 260.005 42.9684 260.324 42.9691C260.993 42.9691 261.6 43.2382 262.04 43.6766L262.044 43.6818C262.484 44.1176 262.756 44.7201 262.756 45.3869V64.7175C262.756 65.3843 262.484 65.9868 262.044 66.4252L262.04 66.4278C261.815 66.6524 261.548 66.8306 261.253 66.952C260.959 67.0734 260.643 67.1357 260.324 67.1353C260.005 67.1362 259.688 67.0741 259.393 66.9527C259.098 66.8312 258.83 66.6528 258.604 66.4278L258.607 66.4252C258.381 66.2013 258.201 65.9352 258.078 65.6421C257.956 65.3491 257.893 65.0349 257.892 64.7175L257.891 45.3869ZM217.125 74.1236L217.15 62.7105H203.621L203.622 61.6959L203.701 17.8879H192.644L192.525 74.1249L217.125 74.1236ZM219.279 17.8866L219.192 60.6773H219.204L219.206 61.692L219.234 74.1236H234.763C238.001 74.1236 241.191 72.4395 243.613 69.9837C246.145 67.4149 247.822 64.031 247.824 60.865L247.861 31.77H247.857V31.7542H247.861C247.861 28.3953 246.355 24.9248 243.963 22.2838C241.588 19.6665 238.355 17.8866 234.871 17.8814V17.8866H219.279ZM232.649 61.0462C233.277 60.995 233.763 60.8847 234.091 60.6668C234.479 60.4109 234.682 59.8924 234.685 58.9749L234.78 32.1795C234.781 31.7765 234.733 31.4642 234.606 31.2896C234.538 31.1977 234.39 31.1439 234.129 31.1439H232.686L232.649 61.0462ZM235.215 62.3561C234.327 62.9455 233.137 63.1122 231.63 63.1122H230.61L230.611 62.0976L230.652 30.1292L230.654 29.1146H234.129C235.125 29.1146 235.81 29.4834 236.268 30.1148C236.664 30.6661 236.82 31.3762 236.816 32.1808L236.722 58.9762C236.715 60.6616 236.201 61.7051 235.215 62.3561ZM192.224 74.1236L185.546 50.2172L185.348 49.494L185.989 49.0937C186.771 48.6067 187.7 47.5605 188.41 46.3201C189.013 45.2661 189.434 44.1071 189.437 43.0925L189.477 30.4351V30.3839H189.474C189.474 25.9998 187.598 22.885 185.093 20.8675C182.564 18.8291 179.407 17.8879 176.878 17.8814H176.844V17.8866H161.253L161.136 74.1236H172.34L172.371 52.9422L172.373 51.9249H174.324L174.519 52.6967L179.989 74.1236H192.224ZM190.547 60.6327L190.576 46.5735C190.455 46.8265 190.324 47.0752 190.184 47.319C189.485 48.5397 188.571 49.6318 187.696 50.3524L190.547 60.6327ZM177.139 42.1408C176.202 42.7564 175.013 42.7814 173.369 42.7814H172.346L172.354 41.7641L172.423 30.1529L172.43 29.1422H173.443C174.075 29.1422 173.809 29.1448 173.918 29.1422C176.371 29.1238 178.588 29.1093 178.592 32.1519L178.604 38.228C178.608 40.3504 178.141 41.4819 177.145 42.1382H177.14V42.1408H177.139ZM132.144 25.1571C131.212 27.6419 130.87 30.7763 130.761 33.9016V60.5027C130.761 64.3894 132.347 67.9098 134.911 70.4575C136.225 71.7666 137.786 72.8047 139.505 73.5123C141.224 74.2198 143.067 74.5828 144.928 74.5804C148.84 74.5804 152.383 73.0066 154.946 70.4575C157.508 67.9084 159.096 64.392 159.097 60.5054L159.096 60.487V31.2463L159.097 31.2279C159.097 27.3413 157.511 23.8209 154.946 21.2758C153.632 19.966 152.07 18.9273 150.351 18.2193C148.632 17.5113 146.789 17.148 144.928 17.1503C143.067 17.1475 141.224 17.5105 139.505 18.2186C137.786 18.9266 136.224 19.9656 134.911 21.2758C133.772 22.403 132.836 23.7158 132.144 25.1571ZM143.863 31.5587V60.172C143.863 60.4673 143.981 60.7312 144.168 60.9202L144.175 60.9228C144.273 61.0204 144.39 61.0976 144.519 61.1499C144.648 61.2021 144.786 61.2285 144.925 61.2273C145.222 61.2273 145.489 61.1092 145.678 60.9228L145.682 60.9202C145.88 60.7211 145.991 60.452 145.99 60.172V31.5587C145.99 31.4197 145.962 31.2821 145.909 31.1537C145.855 31.0253 145.777 30.9086 145.678 30.8105L145.681 30.8078L145.678 30.8052C145.579 30.7076 145.461 30.6304 145.332 30.5781C145.203 30.5259 145.065 30.4996 144.925 30.5007C144.662 30.5 144.407 30.5958 144.21 30.7698C144.199 30.7855 144.185 30.7973 144.173 30.8105C144.074 30.9085 143.996 31.0252 143.943 31.1536C143.889 31.282 143.862 31.4197 143.863 31.5587ZM141.818 31.5298C141.826 30.7205 142.152 29.9463 142.727 29.3732C142.75 29.3507 142.774 29.3292 142.798 29.3089C143.373 28.7688 144.134 28.467 144.925 28.4649C145.78 28.4649 146.556 28.814 147.122 29.3719H147.124C147.685 29.9284 148.033 30.6923 148.035 31.5403V60.1956C148.027 61.0051 147.7 61.7793 147.124 62.3522L147.122 62.3548L147.119 62.3575C146.831 62.6439 146.489 62.8711 146.113 63.0261C145.737 63.1812 145.333 63.261 144.926 63.261C144.518 63.261 144.115 63.1812 143.739 63.0261C143.362 62.8711 143.02 62.6439 142.732 62.3575L142.73 62.3548L142.727 62.3522L142.724 62.3496C142.17 61.7957 141.824 61.037 141.816 60.1982V31.56L141.818 31.5298ZM148.037 60.1943C148.03 60.459 147.919 60.7103 147.728 60.895C147.537 61.0798 147.281 61.1834 147.015 61.184L148.037 60.1943ZM105.977 74.1236L107.985 59.1232L108.996 51.5679L110.008 59.1232L112.013 74.1236H122.344L131.232 17.8866H119.812L117.744 30.6766L116.612 37.6911L115.725 30.6411L114.121 17.8893H103.16L101.556 30.6411L100.669 37.6911L99.5352 30.6766L97.4706 17.8866H86.0644L95.6451 74.1236H105.977ZM315.486 17.8866L305.89 74.1236H317.448L319.68 62.5583L319.84 61.73H325.104L325.242 62.5858L327.095 74.1196H338.502L329.306 17.8827H315.485L315.486 17.8866ZM339.864 17.8866L339.815 74.1236H351.383L351.425 56.3576L351.44 49.9849L353.413 56.0504L359.294 74.1249H370.649L370.697 17.8879H359.576V43.9456L357.575 37.38L351.64 17.8879L339.864 17.8866ZM372.77 17.8866L372.72 74.1236H383.825L383.841 59.1692L383.846 54.1262L385.801 58.7793L392.247 74.1223H404.952L391.778 42.0607L391.604 41.6381L391.814 41.2259L403.663 17.8866H391.057L385.756 27.7613L383.825 31.3578L383.839 27.2861L383.868 17.8853L372.77 17.8866ZM420.383 33.9371L431.191 32.1651C431.081 28.0041 429.751 24.2737 427.229 21.5947C424.778 18.9879 421.165 17.3563 416.42 17.2723C413.367 17.2185 410.798 17.9877 408.738 19.3239C406.772 20.5985 405.256 22.398 404.22 24.4943C403.171 26.6141 402.61 29.045 402.565 31.5521C402.5 35.2831 403.557 38.9486 405.6 42.0791C405.833 42.4335 406.172 42.8719 406.549 43.33C407.018 43.905 407.566 44.5193 408.04 45.0377C409.682 46.8268 411.415 48.3455 413.105 49.8235C414.453 51.0022 415.776 52.1612 417.065 53.4738C418.758 55.1972 419.652 56.8445 420.01 58.291C420.273 59.3503 420.256 60.3059 420.051 61.1184C419.868 61.897 419.47 62.6095 418.902 63.1765C418.504 63.5726 418.007 63.8566 417.462 63.9995C417.235 64.0543 417.002 64.0812 416.769 64.0796C415.799 64.0691 414.883 63.5611 414.126 62.6213C413.48 61.8193 412.936 60.6655 412.574 59.219C412.305 58.0999 412.151 56.9564 412.115 55.8063L401.42 56.3812C401.887 61.457 403.208 66.4816 406.023 69.981C408.36 72.8832 411.774 74.755 416.667 74.7261C418.461 74.7156 420.763 74.4386 422.924 73.6589C424.541 73.0748 426.072 72.2098 427.228 70.9668C428.405 69.7027 429.555 67.852 430.374 65.8161C431.104 64.0113 431.559 62.0805 431.53 60.3243C431.377 51.4852 425.636 46.2466 419.798 40.9227C418.799 40.0171 417.809 39.1009 416.83 38.1741C414.847 36.2827 413.984 34.1668 413.851 32.3593C413.792 31.6239 413.868 30.8841 414.073 30.1752C414.28 29.4887 414.617 28.8954 415.048 28.4504C415.564 27.9149 416.209 27.5894 416.934 27.5382C416.951 27.5382 416.995 27.5355 417.069 27.5355C418.096 27.5224 418.921 28.1538 419.49 29.3837C419.927 30.3327 420.227 31.6965 420.351 33.4396C420.366 33.605 420.374 33.7691 420.383 33.9371Z" fill="black"/>
<mask id="path-5-inside-1_670_129" fill="white">
<path d="M322.398 42.7722L321.312 50.6779H323.451L322.398 42.7722Z"/>
</mask>
<path d="M322.398 42.7722L321.312 50.6779H323.451L322.398 42.7722Z" fill="black"/>
<path d="M321.312 50.6779L269.796 43.6025L261.682 102.678H321.312V50.6779ZM322.398 42.7722L373.943 35.9081L270.881 35.6968L322.398 42.7722ZM323.451 50.6779V102.678H382.834L374.996 43.8139L323.451 50.6779ZM321.312 50.6779L372.828 57.7533L373.914 49.8476L322.398 42.7722L270.881 35.6968L269.796 43.6025L321.312 50.6779ZM322.398 42.7722L270.853 49.6362L271.906 57.542L323.451 50.6779L374.996 43.8139L373.943 35.9081L322.398 42.7722ZM323.451 50.6779V-1.32205H321.312V50.6779V102.678H323.451V50.6779Z" fill="black" mask="url(#path-5-inside-1_670_129)"/>
</svg>
