<svg width="376" height="158" viewBox="0 0 376 158" fill="none" xmlns="http://www.w3.org/2000/svg">
<path d="M217.249 22.2097L210.396 15.2957L203.038 8.06732H172.96L165.792 15.2957L158.94 22.2097H180.868V84.6563L188.095 91.7555L195.321 84.6563V22.2097H217.249Z" fill="black"/>
<path d="M210.146 28.9666H203.248V56.829L196.04 63.9058L201.115 68.8019L206.241 73.7485L217.272 62.9109L217.274 28.9666H210.146ZM172.944 56.829V28.9666H158.916V62.9109L169.951 73.7485L175.077 68.8019L180.148 63.9058L172.944 56.829Z" fill="black"/>
<path d="M171.878 4.26024L154.127 21.8912V64.6299L188 97.6621L221.872 64.6299V21.8926L204.122 4.26024H171.878ZM150.869 19.7652L169.749 1.02143L170.308 0.462921H205.688L206.247 1.02143L225.128 19.7652L225.695 20.3294V66.2086L225.121 66.7671L189.335 101.666L187.999 102.968L186.661 101.666L150.876 66.7671L150.301 66.2086V20.3294L150.869 19.7652Z" fill="black"/>
<path d="M373.778 112.29L360.078 114.535L358.83 114.74L358.813 113.48C358.806 112.928 358.782 112.377 358.742 111.827C358.628 110.219 358.374 109.012 358.016 108.236C357.799 107.764 357.6 107.52 357.435 107.523C357.408 107.523 357.457 107.523 357.419 107.526C357.187 107.554 356.974 107.666 356.82 107.842C356.573 108.117 356.394 108.447 356.299 108.804C356.162 109.253 356.104 109.785 356.148 110.366C356.254 111.827 356.986 113.567 358.666 115.174C359.67 116.131 360.739 117.106 361.805 118.079C368.391 124.086 374.865 129.993 375.049 140.381C375.084 142.569 374.536 144.917 373.661 147.09C372.689 149.5 371.302 151.72 369.871 153.259C368.369 154.87 366.433 155.976 364.415 156.704C361.846 157.63 359.118 157.96 356.991 157.97C352.684 157.995 349.302 156.8 346.662 154.787L347.095 155.837L347.71 157.329H329.425L329.144 156.659L324.06 144.562L324.047 156.243L324.046 157.327H294.061L293.815 156.571L289.391 142.976L289.361 156.241L289.357 157.326H259.367L259.22 156.411L257.24 144.08H255.27L252.884 156.447L252.713 157.327H222.314L222.315 156.245L222.37 125.126H213.202L213.177 128.146H220.579L220.577 129.231L220.547 139.804L220.544 140.889H213.187L213.151 156.24L213.148 157.322H200.208V156.24L200.214 151.457C199.699 152.316 199.079 153.108 198.368 153.815C197.249 154.929 195.92 155.813 194.456 156.415C192.992 157.018 191.423 157.327 189.839 157.326C188.254 157.328 186.685 157.018 185.221 156.416C183.758 155.813 182.428 154.929 181.309 153.815C179.114 151.638 177.85 148.703 177.778 145.622C176.901 148.032 175.407 150.333 173.522 152.247C170.551 155.259 166.587 157.326 162.505 157.326H102.258L102.049 156.504L97.9777 140.549L97.9523 156.241L97.9509 157.326H81.6159L81.6187 156.241L81.6343 148.934C80.8492 150.341 79.869 151.632 78.7223 152.768C77.1152 154.37 75.2051 155.641 73.1019 156.507C70.9987 157.373 68.7439 157.817 66.4672 157.814C64.1907 157.817 61.9361 157.372 59.8331 156.506C57.73 155.64 55.8197 154.37 54.2121 152.768C52.6002 151.171 51.3219 149.272 50.4506 147.183C49.5794 145.093 49.1323 142.852 49.1352 140.59V125.976L44.3253 156.405L44.1784 157.326H29.3672L29.2415 156.38L28.0496 147.475L26.8591 156.38L26.7335 157.326H11.9308L11.7782 156.419L1.16271 94.1257L0.949463 92.8628H17.5796L17.7264 93.7777L18.8731 100.869L19.76 93.817L19.88 92.8628H35.4581L35.5781 93.817L36.465 100.869L37.6131 93.7777L37.7599 92.8628H54.3717L54.1726 94.1131L53.595 97.7673C55.218 95.9731 57.2033 94.5388 59.4214 93.5579C61.6395 92.5769 64.0407 92.0714 66.4686 92.0741C68.7453 92.0717 71.0001 92.5163 73.1035 93.3822C75.2068 94.2482 77.1173 95.5186 78.7251 97.1204C79.9187 98.3081 80.9328 99.6613 81.7359 101.138L81.7515 93.9489L81.7543 92.8642H100.597V92.8698H100.633C103.772 92.8782 107.675 94.0373 110.788 96.545C112.717 98.0985 114.348 100.166 115.321 102.785L115.342 93.9489L115.348 92.8642H131.484L131.481 93.9489L131.396 140.784H143.684L143.781 93.9489L143.784 92.8642H162.624V92.8698C167.012 92.8754 171.042 95.0645 173.964 98.2851C176.865 101.483 178.688 105.727 178.688 109.859H178.692V109.879H178.688L178.675 119.647C179.283 118.179 180.178 116.845 181.308 115.722C182.427 114.608 183.757 113.724 185.221 113.122C186.685 112.519 188.254 112.21 189.839 112.211C193.167 112.211 196.184 113.554 198.368 115.722C199.093 116.443 199.722 117.251 200.241 118.129L200.245 113.298L200.247 112.213H222.391L222.397 108.918H213.483L213.48 107.833L213.451 93.9531L213.448 92.8684H265.44L265.586 93.7777L272.656 137.009L272.694 93.9531V92.8684H289.08L289.316 93.6416L293.758 108.229V92.8726H324.1L324.097 93.9545L324.073 100.738L327.986 93.4479L328.297 92.8726H346.62L345.822 94.4457L344.427 97.1947C345.285 96.2703 346.255 95.454 347.313 94.7642C349.868 93.1111 353.024 92.1611 356.75 92.2257C362.461 92.3239 366.843 94.3306 369.859 97.5315C373.133 101.012 374.76 105.88 374.689 111.239L374.676 112.145L373.778 112.29ZM338.371 134.611L338.342 134.15L339.452 134.09L353.133 133.359L354.29 133.296L354.276 134.447C354.257 136.086 354.424 137.517 354.72 138.711C355.027 139.939 355.463 140.888 355.969 141.515C356.356 141.998 356.753 142.254 357.107 142.257C357.176 142.258 357.244 142.25 357.31 142.232C357.516 142.173 357.703 142.061 357.851 141.906C358.127 141.641 358.357 141.243 358.483 140.739C358.621 140.185 358.629 139.517 358.439 138.749C358.138 137.546 357.356 136.135 355.843 134.591C354.566 133.292 353.163 132.061 351.728 130.809C349.882 129.195 347.991 127.54 346.143 125.522C345.57 124.895 345.012 124.254 344.471 123.601C344.062 123.112 343.679 122.604 343.323 122.077C340.903 118.369 339.651 114.029 339.728 109.611C339.755 108.219 339.912 106.842 340.203 105.516L332.584 120.523L338.371 134.611ZM97.9692 119.473C98.7742 119.448 99.3659 119.381 99.702 119.158C100.104 118.894 100.292 118.215 100.291 116.788L100.277 110.289C100.275 109.354 99.2656 109.242 98.0299 109.234L97.9692 119.473ZM244.228 108.916H238.616L238.452 142.76L244.228 108.916ZM224.573 107.83L224.487 155.159H236.215L236.446 107.827L236.451 106.746H245.324L245.296 95.0365H215.627L215.655 106.746H224.576L224.573 107.83ZM202.42 114.381L202.383 155.159H210.974L211.01 139.81L211.013 138.725H218.371L218.395 130.322H210.982L210.991 129.229L211.032 124.038L211.041 122.961H221.147L221.13 114.385H202.421V114.381H202.42ZM199.714 145.333V124.21L199.718 124.201V124.195H199.714C199.716 122.907 199.461 121.63 198.964 120.44C198.467 119.249 197.738 118.168 196.819 117.259C195.903 116.346 194.815 115.622 193.616 115.128C192.418 114.635 191.133 114.382 189.836 114.384C188.538 114.381 187.253 114.634 186.054 115.127C184.855 115.621 183.767 116.345 182.851 117.259C181.933 118.169 181.204 119.25 180.708 120.44C180.211 121.631 179.956 122.907 179.957 124.195V145.34C179.957 148.051 181.063 150.507 182.851 152.282C184.64 154.056 187.11 155.158 189.836 155.158C192.561 155.158 195.033 154.059 196.819 152.282C197.738 151.372 198.467 150.29 198.964 149.098C199.461 147.907 199.716 146.63 199.714 145.34H199.718V145.338L199.714 145.333ZM187.235 124.437C187.234 124.097 187.301 123.761 187.431 123.447C187.562 123.133 187.753 122.848 187.995 122.607C188.236 122.367 188.524 122.177 188.839 122.047C189.155 121.918 189.494 121.851 189.836 121.852C190.55 121.852 191.2 122.14 191.67 122.608L191.675 122.614C192.145 123.08 192.436 123.724 192.436 124.437V145.103C192.436 145.816 192.145 146.46 191.675 146.929L191.67 146.932C191.43 147.172 191.144 147.362 190.829 147.492C190.514 147.622 190.177 147.688 189.836 147.688C189.494 147.689 189.156 147.623 188.84 147.493C188.525 147.363 188.238 147.172 187.997 146.932L188 146.929C187.758 146.689 187.566 146.405 187.435 146.092C187.304 145.778 187.236 145.442 187.236 145.103L187.235 124.437ZM143.651 155.159L143.678 142.958H129.214L129.216 141.873L129.3 95.0379H117.479L117.352 155.161L143.651 155.159ZM145.954 95.0365L145.861 140.784H145.874L145.877 141.869L145.906 155.159H162.508C165.97 155.159 169.38 153.359 171.97 150.733C174.677 147.987 176.469 144.369 176.472 140.985L176.512 109.879H176.507V109.862H176.512C176.512 106.271 174.902 102.561 172.344 99.7375C169.805 96.9393 166.348 95.0365 162.624 95.0309V95.0365H145.954ZM160.249 141.178C160.92 141.123 161.439 141.006 161.789 140.773C162.205 140.499 162.422 139.945 162.425 138.964L162.527 110.317C162.528 109.886 162.476 109.552 162.34 109.365C162.268 109.267 162.11 109.21 161.83 109.21H160.288L160.249 141.178ZM162.991 142.579C162.042 143.209 160.77 143.387 159.159 143.387H158.068L158.07 142.302L158.114 108.125L158.115 107.04H161.83C162.895 107.04 163.628 107.435 164.117 108.11C164.54 108.699 164.707 109.458 164.703 110.318L164.603 138.965C164.596 140.767 164.046 141.883 162.991 142.579ZM117.03 155.159L109.891 129.601L109.679 128.828L110.364 128.4C111.2 127.879 112.193 126.761 112.953 125.435C113.597 124.308 114.047 123.069 114.05 121.984L114.094 108.452V108.397H114.09C114.09 103.71 112.084 100.38 109.407 98.2233C106.702 96.044 103.327 95.0379 100.624 95.0309H100.587V95.0365H83.9192L83.7935 155.159H95.7718L95.8057 132.514L95.8071 131.427H97.893L98.102 132.252L103.95 155.159H117.03ZM115.238 140.736L115.269 125.705C115.138 125.976 114.999 126.242 114.849 126.503C114.102 127.808 113.125 128.975 112.189 129.746L115.238 140.736ZM100.902 120.967C99.9011 121.625 98.6301 121.651 96.8719 121.651H95.7789L95.7874 120.564L95.8608 108.15L95.8679 107.07H96.951C97.6274 107.07 97.3422 107.073 97.4594 107.07C100.082 107.05 102.452 107.035 102.456 110.287L102.468 116.783C102.473 119.052 101.974 120.262 100.909 120.964H100.904V120.967H100.902ZM52.7985 102.809C51.8029 105.466 51.4371 108.817 51.3199 112.158V140.597C51.3199 144.752 53.016 148.516 55.7571 151.24C57.1618 152.639 58.831 153.749 60.6687 154.506C62.5065 155.262 64.4766 155.65 66.4658 155.648C70.6487 155.648 74.4363 153.965 77.1759 151.24C79.9156 148.515 81.6131 144.755 81.6145 140.6L81.6131 140.58V109.319L81.6145 109.3C81.6145 105.144 79.9184 101.381 77.1759 98.6598C75.7713 97.2596 74.102 96.1491 72.2639 95.3921C70.4259 94.6352 68.4554 94.2468 66.4658 94.2492C64.4763 94.2462 62.5059 94.6344 60.668 95.3913C58.8301 96.1483 57.1611 97.2591 55.7571 98.6598C54.5396 99.8649 53.539 101.268 52.7985 102.809ZM65.3276 109.653V140.244C65.3276 140.559 65.4532 140.841 65.6538 141.043L65.6608 141.046C65.7662 141.151 65.8913 141.233 66.029 141.289C66.1667 141.345 66.3142 141.373 66.463 141.372C66.7807 141.372 67.066 141.246 67.2679 141.046L67.2722 141.043C67.4841 140.831 67.6024 140.543 67.6012 140.244V109.653C67.6014 109.505 67.572 109.357 67.5148 109.22C67.4576 109.083 67.3737 108.958 67.2679 108.853L67.2707 108.85L67.2679 108.848C67.162 108.743 67.0364 108.661 66.8982 108.605C66.76 108.549 66.6121 108.521 66.463 108.522C66.1814 108.521 65.9094 108.624 65.699 108.81C65.6863 108.827 65.6721 108.839 65.6594 108.853C65.5536 108.958 65.4697 109.083 65.4127 109.22C65.3557 109.357 65.3268 109.505 65.3276 109.653ZM63.1415 109.622C63.1495 108.757 63.4983 107.929 64.1131 107.317C64.1374 107.293 64.1629 107.27 64.1893 107.248C64.804 106.671 65.6171 106.348 66.463 106.346C67.3767 106.346 68.207 106.719 68.8115 107.315H68.8143C69.4131 107.91 69.7859 108.727 69.7873 109.634V140.269C69.7789 141.134 69.4296 141.962 68.8143 142.574L68.8115 142.577L68.8086 142.58C68.5008 142.886 68.1353 143.129 67.7329 143.295C67.3305 143.461 66.8992 143.546 66.4637 143.546C66.0281 143.546 65.5968 143.461 65.1944 143.295C64.7921 143.129 64.4265 142.886 64.1187 142.58L64.1159 142.577L64.1131 142.574L64.1102 142.572C63.5171 141.979 63.1471 141.168 63.1386 140.272V109.655L63.1415 109.622ZM69.7901 140.267C69.782 140.55 69.6634 140.819 69.4594 141.017C69.2553 141.214 68.9819 141.325 68.6971 141.326L69.7901 140.267ZM24.8242 155.159L26.9707 139.122L28.0511 131.045L29.1328 139.122L31.2765 155.159H42.3214L51.8241 95.0365H39.6142L37.4041 108.71L36.1938 116.209L35.2448 108.672L33.5304 95.0393H21.8119L20.0975 108.672L19.1485 116.209L17.9368 108.71L15.7296 95.0365H3.53521L13.7779 155.159H24.8242ZM248.809 95.0365L238.55 155.159H250.907L253.293 142.795L253.464 141.909H259.092L259.239 142.824L261.22 155.155H273.416L263.584 95.0323H248.808L248.809 95.0365ZM274.872 95.0365L274.819 155.159H287.186L287.231 136.166L287.247 129.353L289.357 135.837L295.644 155.161H307.783L307.835 95.0379H295.946V122.896L293.806 115.877L287.461 95.0379L274.872 95.0365ZM310.051 95.0365L309.997 155.159H321.87L321.887 139.171L321.892 133.78L323.982 138.755L330.874 155.158H344.457L330.373 120.881L330.186 120.429L330.411 119.988L343.078 95.0365H329.602L323.934 105.593L321.87 109.438L321.885 105.085L321.916 95.0351L310.051 95.0365ZM360.954 112.196L372.509 110.301C372.391 105.853 370.969 101.865 368.273 99.0008C365.652 96.2138 361.79 94.4695 356.717 94.3797C353.454 94.3222 350.707 95.1445 348.504 96.5731C346.403 97.9357 344.781 99.8596 343.674 102.101C342.553 104.367 341.953 106.966 341.905 109.646C341.835 113.635 342.965 117.554 345.15 120.901C345.398 121.279 345.761 121.748 346.164 122.238C346.665 122.853 347.251 123.509 347.758 124.064C349.514 125.976 351.366 127.6 353.173 129.18C354.615 130.44 356.028 131.679 357.406 133.083C359.217 134.925 360.173 136.686 360.556 138.233C360.837 139.365 360.818 140.387 360.599 141.255C360.403 142.088 359.978 142.85 359.371 143.456C358.945 143.879 358.414 144.183 357.831 144.336C357.589 144.394 357.34 144.423 357.09 144.421C356.054 144.41 355.073 143.867 354.264 142.862C353.574 142.005 352.992 140.771 352.605 139.225C352.317 138.028 352.153 136.806 352.115 135.576L340.68 136.191C341.18 141.617 342.592 146.989 345.602 150.73C348.1 153.833 351.751 155.834 356.981 155.803C358.899 155.792 361.361 155.496 363.671 154.662C365.399 154.038 367.036 153.113 368.272 151.784C369.53 150.433 370.76 148.454 371.636 146.278C372.415 144.348 372.903 142.284 372.871 140.406C372.708 130.957 366.57 125.356 360.328 119.664C359.26 118.696 358.202 117.717 357.155 116.726C355.035 114.704 354.113 112.442 353.971 110.509C353.908 109.723 353.988 108.932 354.208 108.174C354.429 107.44 354.79 106.806 355.25 106.33C355.802 105.758 356.491 105.41 357.267 105.355C357.285 105.355 357.332 105.352 357.411 105.352C358.509 105.338 359.391 106.013 359.999 107.328C360.467 108.342 360.787 109.801 360.92 111.664C360.935 111.841 360.944 112.016 360.954 112.196Z" fill="black"/>
<mask id="path-5-inside-1_670_99" fill="white">
<path d="M256.198 121.641L255.037 130.094H257.324L256.198 121.641Z"/>
</mask>
<path d="M256.198 121.641L255.037 130.094H257.324L256.198 121.641Z" fill="black"/>
<path d="M255.037 130.094L203.521 123.018L195.407 182.094H255.037V130.094ZM256.198 121.641L307.743 114.777L204.682 114.566L256.198 121.641ZM257.324 130.094V182.094H316.707L308.869 123.229L257.324 130.094ZM255.037 130.094L306.554 137.169L307.714 128.717L256.198 121.641L204.682 114.566L203.521 123.018L255.037 130.094ZM256.198 121.641L204.653 128.506L205.779 136.958L257.324 130.094L308.869 123.229L307.743 114.777L256.198 121.641ZM257.324 130.094V78.0935H255.037V130.094V182.094H257.324V130.094Z" fill="black" mask="url(#path-5-inside-1_670_99)"/>
</svg>
