<svg width="571" height="129" fill="none" xmlns="http://www.w3.org/2000/svg"><path d="M284.701 59.018c-9.483 6.394-18.805 12.662-28.109 18.949-23.547 15.895-47.058 31.809-70.64 47.668-8.675 5.837-19.362 3.071-23.475-5.927-3.305-7.22-.916-14.944 6.214-19.775 22.559-15.267 45.154-30.498 67.731-45.747 9.825-6.645 19.667-13.273 30.264-20.44-1.922-.089-2.999-.179-4.077-.179h-68.557c-4.059 0-4.077 0-2.784-3.951 2.64-8.082 5.352-16.147 7.885-24.265.629-2.012 1.401-2.838 3.664-2.838 35.491.054 70.982-.054 106.472 0 15.932.036 25.253 13.021 20.368 28.18-9.968 30.875-20.026 61.714-29.941 92.589-.754 2.353-1.85 3.036-4.239 3.018-9.573-.144-19.164-.126-28.755 0-2.568.036-3.269-.413-2.371-3.161 6.628-20.027 13.112-40.107 19.578-60.188.377-1.15 1.059-2.299.754-3.897m183.458-25.317c-1.634-.09-2.443-.18-3.251-.18-21.697 0-43.376.036-65.072-.053-2.282 0-3.233.718-3.916 2.873-9.34 28.971-18.805 57.907-28.127 86.895-.754 2.371-1.814 3.054-4.185 3.018-9.788-.126-19.577-.108-29.384 0-2.263.018-2.622-.611-1.94-2.676A57216.567 57216.567 0 0 0 370.882 4.712c.557-1.706 1.383-2.245 3.144-2.245 36.335.072 72.652 0 108.987.18 12.429.054 22.02 7.561 25.325 19.02 3.34 11.585-.719 22.829-10.957 29.798a6063.118 6063.118 0 0 1-43.95 29.653c-2.012 1.347-2.353 2.191-.629 4.167 5.335 6.089 10.615 12.267 15.608 18.643 6.341 8.047 3.449 19.488-5.729 23.655-6.269 2.838-13.579 1.365-18.087-3.987-12.77-15.123-25.415-30.354-38.203-45.46-1.634-1.921-.341-2.388.898-3.232 19.183-12.95 38.365-25.882 57.547-38.832.862-.593 1.724-1.203 3.305-2.299m-332.968-.215h-3.125c-21.158 0-42.334.072-63.492-.09-3.053-.018-4.113 1.042-4.975 3.718C54.367 65.87 45.009 94.5 35.795 123.183c-.736 2.281-1.652 3.143-4.095 3.107-9.68-.143-19.38-.107-29.06-.018-2.282.018-3.18-.233-2.318-2.873C13.254 83.903 26.078 44.352 38.867 4.82c.592-1.832 1.526-2.37 3.376-2.352 36.12.071 72.221 0 108.341.143 12.68.054 22.146 7.256 25.684 18.949 3.502 11.585-.611 22.954-11.046 30.03-19.937 13.525-39.909 26.978-59.9 40.413-7.849 5.28-17.278 3.61-22.236-3.754-4.777-7.095-2.766-16.614 4.886-21.858 14.674-10.04 29.438-19.92 44.166-29.87 1.095-.736 2.173-1.508 3.251-2.263-.09-.233-.162-.449-.252-.682m383.414 92.652c-4.849 0-9.699-.108-14.53.054-2.551.09-3.197-.431-2.317-3.071 6.645-20.135 13.165-40.323 19.721-60.475 5.55-17.063 11.028-34.161 16.686-51.206C540.374 4.704 545.259.735 552.497.088c7.077-.646 12.519 2.264 16.093 8.37 2.443 4.203 2.892 8.711 1.383 13.381-11.046 34.054-22.092 68.09-33.102 102.162-.538 1.67-1.347 2.317-3.125 2.281-5.047-.108-10.112-.036-15.159-.036" fill="#2BFFE8"/></svg>