<svg width="276" height="62" fill="none" xmlns="http://www.w3.org/2000/svg"><path d="M137.654 28.365c-4.558 3.073-9.038 6.086-13.51 9.107-11.317 7.64-22.617 15.288-33.951 22.91-4.17 2.806-9.306 1.477-11.283-2.848-1.588-3.47-.44-7.182 2.987-9.504 10.842-7.338 21.702-14.658 32.553-21.987 4.722-3.194 9.452-6.38 14.545-9.823-.923-.044-1.441-.087-1.959-.087h-32.95c-1.951 0-1.96 0-1.338-1.899 1.269-3.885 2.572-7.76 3.79-11.662.302-.967.673-1.364 1.76-1.364 17.058.026 34.116-.026 51.173 0 7.657.017 12.138 6.258 9.79 13.544-4.791 14.839-9.626 29.66-14.391 44.5-.362 1.13-.889 1.459-2.037 1.45a491.26 491.26 0 0 0-13.82 0c-1.235.017-1.571-.198-1.14-1.52 3.185-9.624 6.302-19.275 9.409-28.926.182-.553.51-1.105.363-1.873m88.173-12.168c-.785-.043-1.174-.087-1.562-.087-10.428 0-20.847.018-31.275-.026-1.096 0-1.554.346-1.882 1.382-4.489 13.924-9.038 27.83-13.518 41.763-.363 1.14-.872 1.468-2.012 1.45-4.704-.06-9.409-.051-14.122 0-1.088.01-1.261-.293-.933-1.286a27017.237 27017.237 0 0 0 18.56-57.146c.268-.82.665-1.08 1.511-1.08 17.463.035 34.918 0 52.381.087 5.974.026 10.583 3.634 12.172 9.142 1.605 5.568-.346 10.972-5.266 14.32a2923.36 2923.36 0 0 1-21.123 14.253c-.967.647-1.131 1.053-.303 2.003 2.564 2.926 5.102 5.896 7.502 8.96 3.047 3.867 1.657 9.366-2.754 11.369-3.012 1.364-6.526.656-8.693-1.916-6.137-7.269-12.214-14.59-18.361-21.849-.785-.924-.164-1.148.432-1.554 9.219-6.224 18.439-12.44 27.658-18.663.414-.285.829-.578 1.588-1.105m-160.03-.103h-1.502c-10.17 0-20.347.034-30.516-.044-1.467-.008-1.977.501-2.391 1.787-4.428 13.786-8.926 27.546-13.354 41.332-.354 1.096-.795 1.51-1.969 1.494-4.653-.07-9.314-.052-13.967-.009-1.096.009-1.528-.112-1.113-1.381A16837.306 16837.306 0 0 0 19.5 2.317c.285-.88.733-1.14 1.623-1.131 17.36.034 34.71 0 52.07.069 6.095.026 10.644 3.487 12.344 9.107 1.684 5.568-.293 11.032-5.308 14.434a8001.763 8001.763 0 0 1-28.79 19.422c-3.772 2.538-8.304 1.735-10.686-1.804-2.296-3.41-1.33-7.985 2.348-10.505 7.052-4.826 14.148-9.574 21.227-14.356.526-.354 1.044-.725 1.562-1.088-.043-.112-.078-.215-.12-.328m184.277 44.531c-2.331 0-4.662-.052-6.984.026-1.226.043-1.536-.208-1.113-1.477 3.194-9.676 6.327-19.38 9.478-29.065 2.667-8.2 5.3-16.419 8.019-24.61 1.088-3.281 3.436-5.189 6.915-5.5 3.401-.31 6.017 1.088 7.735 4.023 1.174 2.02 1.389 4.187.664 6.431-5.309 16.367-10.618 32.726-15.909 49.101-.259.803-.648 1.114-1.502 1.097-2.426-.052-4.86-.018-7.286-.018" fill="#000"/></svg>