<svg width="434" height="97" fill="none" xmlns="http://www.w3.org/2000/svg"><path d="m62.693 20.669-6.41-6.467L49.4 7.44H21.266L14.56 14.2l-6.41 6.47h20.512v58.41l6.76 6.641 6.758-6.64V20.668h20.512Z" fill="#000"/><path d="M56.05 26.99h-6.454v26.06l-6.742 6.62 4.748 4.58 4.795 4.627L62.715 58.74V26.99H56.05ZM21.251 53.05V26.99H8.13v31.75l10.32 10.137 4.795-4.627 4.744-4.58-6.738-6.62Z" fill="#000"/><path d="M20.254 3.88 3.65 20.37v39.977l31.684 30.897 31.683-30.898V20.372L50.414 3.88h-30.16ZM.603 18.382 18.263.85l.522-.522H51.88l.523.522 17.66 17.532.53.528v42.914l-.536.523L36.582 94.99l-1.25 1.218-1.25-1.218L.609 62.347l-.537-.523V18.91l.53-.528Zm431.775 15.643-12.814 2.1-1.168.192-.016-1.179a24.934 24.934 0 0 0-.066-1.546c-.107-1.504-.344-2.633-.679-3.36-.203-.44-.389-.668-.544-.666-.025 0 .021 0-.014.003a.885.885 0 0 0-.56.295 2.188 2.188 0 0 0-.488.9 4.01 4.01 0 0 0-.141 1.461c.099 1.367.783 2.994 2.355 4.497.939.896 1.939 1.808 2.936 2.718 6.16 5.619 12.216 11.144 12.388 20.86.033 2.047-.479 4.243-1.298 6.276-.909 2.254-2.206 4.33-3.546 5.77-1.404 1.507-3.215 2.541-5.102 3.223-2.403.866-4.955 1.174-6.945 1.184-4.028.023-7.192-1.095-9.661-2.977l.404.982.576 1.395h-17.103l-.263-.626-4.755-11.316-.012 10.926-.002 1.015h-28.047l-.23-.708-4.138-12.716-.028 12.408-.004 1.014h-28.051l-.138-.856-1.852-11.533h-1.842l-2.233 11.568-.16.823h-28.434l.001-1.013.052-29.108h-8.576l-.023 2.825h6.924l-.003 1.015-.027 9.89-.003 1.015h-6.882l-.033 14.358-.003 1.012h-12.103v-1.012l.005-4.473a11.295 11.295 0 0 1-9.705 5.49 11.315 11.315 0 0 1-4.319-.852 11.25 11.25 0 0 1-3.659-2.433 11.158 11.158 0 0 1-3.303-7.663c-.82 2.254-2.218 4.407-3.981 6.197-2.779 2.817-6.487 4.75-10.305 4.75h-56.353l-.196-.769-3.808-14.923-.024 14.678-.001 1.014h-15.279l.002-1.014.015-6.835a16.045 16.045 0 0 1-2.724 3.586 16.158 16.158 0 0 1-5.257 3.498 16.237 16.237 0 0 1-6.206 1.222 16.254 16.254 0 0 1-6.205-1.224 16.179 16.179 0 0 1-5.258-3.496 16.047 16.047 0 0 1-3.518-5.225 15.983 15.983 0 0 1-1.231-6.166v-13.67l-4.499 28.463-.137.861h-13.854l-.118-.884-1.115-8.33-1.113 8.33-.118.884H93.917l-.142-.848-9.93-58.267-.2-1.182h15.556l.137.856 1.073 6.633.83-6.596.112-.893h14.571l.112.893.83 6.596 1.074-6.633.137-.856h15.538l-.186 1.17-.54 3.418a16.16 16.16 0 0 1 5.45-3.937 16.25 16.25 0 0 1 6.591-1.388c2.13-.002 4.239.413 6.206 1.223a16.173 16.173 0 0 1 5.259 3.497 16.272 16.272 0 0 1 2.816 3.758l.014-6.725.003-1.014h17.625v.005h.033c2.937.008 6.588 1.092 9.499 3.438 1.805 1.453 3.33 3.386 4.24 5.837l.02-8.266.005-1.014h15.093l-.002 1.014-.079 43.808h11.493l.091-43.808.003-1.014h17.622v.005c4.104.005 7.874 2.053 10.607 5.065 2.714 2.992 4.419 6.961 4.419 10.827h.004v.018h-.004l-.012 9.137a11.26 11.26 0 0 1 6.123-6.104 11.319 11.319 0 0 1 4.319-.851 11.294 11.294 0 0 1 9.73 5.535l.004-4.52.001-1.014h20.714l.005-3.082h-8.338l-.002-1.015-.028-12.983-.003-1.014h48.632l.137.85 6.613 40.437.035-40.273V15.86h15.327l.221.723 4.155 13.644V15.863h28.381l-.003 1.012-.023 6.345 3.661-6.82.29-.537h17.139l-.746 1.471-1.305 2.571a14.456 14.456 0 0 1 2.7-2.273c2.39-1.546 5.342-2.435 8.827-2.375 5.341.092 9.44 1.97 12.262 4.963 3.062 3.256 4.583 7.81 4.517 12.822l-.012.848-.84.135ZM399.26 54.903l-.028-.43 1.038-.057 12.798-.684 1.081-.059-.013 1.077c-.017 1.533.139 2.872.416 3.989.287 1.148.695 2.036 1.168 2.622.362.452.733.692 1.065.695a.717.717 0 0 0 .19-.024c.193-.055.367-.16.506-.305.257-.248.473-.62.59-1.092.13-.518.138-1.143-.041-1.86-.281-1.126-1.013-2.446-2.428-3.89-1.194-1.216-2.507-2.367-3.849-3.538-1.726-1.51-3.495-3.058-5.224-4.946a49.328 49.328 0 0 1-1.564-1.796 17.442 17.442 0 0 1-1.074-1.426 20.673 20.673 0 0 1-3.362-11.66c.025-1.302.172-2.59.444-3.83l-7.126 14.037 5.413 13.177ZM174.395 40.744c.753-.023 1.306-.086 1.621-.295.376-.247.552-.882.551-2.217l-.014-6.079c-.001-.874-.945-.979-2.101-.987l-.057 9.578Zm136.806-9.875h-5.249l-.153 31.657 5.402-31.657Zm-18.384-1.015-.081 44.27h10.97l.216-44.273.005-1.012h8.299l-.026-10.952h-27.751l.026 10.952h8.344l-.002 1.015Zm-20.722 6.127-.034 38.143h8.035l.034-14.358.003-1.014h6.882l.023-7.86h-6.934l.008-1.023.038-4.855.009-1.008h9.453l-.016-8.021h-17.5v-.004h-.001Zm-2.531 28.952V45.174l.004-.008v-.005h-.004a9.076 9.076 0 0 0-.701-3.513 9.135 9.135 0 0 0-2.007-2.975 9.198 9.198 0 0 0-2.995-1.993 9.256 9.256 0 0 0-3.537-.697 9.245 9.245 0 0 0-3.537.696 9.197 9.197 0 0 0-2.996 1.994 9.112 9.112 0 0 0-2.707 6.488V64.94a9.125 9.125 0 0 0 2.707 6.494 9.257 9.257 0 0 0 6.533 2.69 9.237 9.237 0 0 0 6.532-2.69 9.135 9.135 0 0 0 2.708-6.494h.004v-.002l-.004-.004Zm-11.673-19.546a2.395 2.395 0 0 1 .711-1.711 2.433 2.433 0 0 1 1.722-.707c.669 0 1.276.27 1.716.708l.004.005c.44.436.712 1.038.712 1.705v19.33c0 .667-.272 1.27-.712 1.708l-.004.003a2.414 2.414 0 0 1-1.716.707 2.43 2.43 0 0 1-1.72-.707l.003-.003a2.422 2.422 0 0 1-.529-.783 2.425 2.425 0 0 1-.186-.924l-.001-19.331Zm-40.766 28.737.025-11.413h-13.529l.001-1.015.079-43.808h-11.057l-.119 56.237 24.6-.001Zm2.154-56.237-.087 42.79h.012l.002 1.015.028 12.432h15.529c3.238 0 6.428-1.684 8.85-4.14 2.532-2.57 4.209-5.953 4.211-9.119l.037-29.095h-.004v-.016h.004c0-3.359-1.506-6.83-3.898-9.47-2.375-2.617-5.608-4.397-9.092-4.403v.006h-15.592Zm13.37 43.16c.628-.052 1.114-.162 1.442-.38.388-.256.591-.775.594-1.692l.095-26.796c.001-.403-.047-.715-.174-.89-.068-.091-.216-.145-.477-.145h-1.443l-.037 29.902Zm2.566 1.31c-.888.589-2.078.755-3.585.755h-1.02l.001-1.014.041-31.969.002-1.014h3.475c.996 0 1.681.368 2.139 1 .396.551.552 1.261.548 2.066l-.094 26.795c-.007 1.686-.521 2.73-1.507 3.38Zm-42.991 11.767-6.678-23.907-.198-.723.641-.4c.782-.487 1.711-1.534 2.421-2.774.603-1.054 1.024-2.213 1.027-3.227l.04-12.658v-.051h-.003c0-4.384-1.876-7.499-4.381-9.517-2.529-2.038-5.686-2.98-8.215-2.986h-.034v.006h-15.591l-.117 56.237h11.204l.031-21.182.002-1.017h1.951l.195.772 5.47 21.427h12.235Zm-1.677-13.491.029-14.06a11.03 11.03 0 0 1-.392.746c-.699 1.22-1.613 2.313-2.488 3.033l2.851 10.28ZM177.139 42.14c-.937.615-2.126.64-3.77.64h-1.023l.008-1.017.069-11.611.007-1.01h1.013c.632 0 .366.002.475 0 2.453-.02 4.67-.034 4.674 3.009l.012 6.076c.004 2.122-.463 3.254-1.459 3.91h-.005v.003h-.001Zm-44.995-16.984c-.932 2.485-1.274 5.62-1.383 8.745v26.6a13.99 13.99 0 0 0 4.15 9.955 14.127 14.127 0 0 0 4.594 3.055 14.202 14.202 0 0 0 5.423 1.068 14.16 14.16 0 0 0 10.018-4.123 14 14 0 0 0 4.151-9.952l-.001-.018v-29.24l.001-.02c0-3.886-1.586-7.406-4.151-9.951a14.132 14.132 0 0 0-4.595-3.057 14.195 14.195 0 0 0-5.423-1.069 14.183 14.183 0 0 0-5.423 1.069 14.112 14.112 0 0 0-4.594 3.057 13.966 13.966 0 0 0-2.767 3.881Zm11.719 6.402v28.613c0 .295.118.56.305.748l.007.003a1.042 1.042 0 0 0 .75.304c.297 0 .564-.118.753-.304l.004-.003c.198-.199.309-.468.308-.748V31.559a1.062 1.062 0 0 0-.312-.748l.003-.003-.003-.003a1.061 1.061 0 0 0-.753-.304 1.075 1.075 0 0 0-.715.269c-.011.015-.025.027-.037.04a1.042 1.042 0 0 0-.31.749Zm-2.045-.03a3.088 3.088 0 0 1 .909-2.156c.023-.022.047-.044.071-.064a3.12 3.12 0 0 1 2.127-.844c.855 0 1.631.349 2.197.907h.002a3.05 3.05 0 0 1 .911 2.168v28.656a3.085 3.085 0 0 1-.911 2.156l-.002.003-.003.003a3.105 3.105 0 0 1-2.193.903 3.112 3.112 0 0 1-2.194-.904l-.002-.002-.003-.003-.003-.002a3.076 3.076 0 0 1-.908-2.152V31.56l.002-.03Zm6.219 28.665a1.012 1.012 0 0 1-.309.701 1.03 1.03 0 0 1-.713.289l1.022-.99Zm-42.06 13.93 2.008-15 1.011-7.556 1.012 7.555 2.005 15h10.331l8.888-56.236h-11.42l-2.068 12.79-1.132 7.014-.887-7.05-1.604-12.752H103.16l-1.604 12.752-.887 7.05-1.134-7.014-2.064-12.79H86.064l9.581 56.237h10.332Zm209.509-56.237-9.596 56.237h11.558l2.232-11.566.16-.828h5.264l.138.856 1.853 11.534h11.407l-9.196-56.237h-13.821l.001.004Zm24.378 0-.049 56.237h11.568l.042-17.766.015-6.373 1.973 6.065 5.881 18.075h11.355l.048-56.237h-11.121v26.058l-2.001-6.566-5.935-19.492-11.776-.001Zm32.906 0-.05 56.237h11.105l.016-14.955.005-5.043 1.955 4.653 6.446 15.343h12.705L391.778 42.06l-.174-.423.21-.412 11.849-23.34h-12.606l-5.301 9.875-1.931 3.597.014-4.072.029-9.4H372.77Zm47.613 16.05 10.808-1.772c-.11-4.16-1.44-7.891-3.962-10.57-2.451-2.607-6.064-4.239-10.809-4.323-3.053-.053-5.622.716-7.682 2.052-1.966 1.274-3.482 3.074-4.518 5.17-1.049 2.12-1.61 4.551-1.655 7.058A18.665 18.665 0 0 0 405.6 42.08c.233.355.572.793.949 1.251.469.575 1.017 1.19 1.491 1.708 1.642 1.789 3.375 3.308 5.065 4.786 1.348 1.178 2.671 2.337 3.96 3.65 1.693 1.723 2.587 3.37 2.945 4.817.263 1.06.246 2.015.041 2.827a4.298 4.298 0 0 1-1.149 2.058 3.18 3.18 0 0 1-1.44.823 2.87 2.87 0 0 1-.693.08c-.97-.01-1.886-.518-2.643-1.458-.646-.802-1.19-1.956-1.552-3.402a16.859 16.859 0 0 1-.459-3.413l-10.695.575c.467 5.076 1.788 10.1 4.603 13.6 2.337 2.902 5.751 4.774 10.644 4.745 1.794-.01 4.096-.287 6.257-1.067 1.617-.584 3.148-1.45 4.304-2.692 1.177-1.264 2.327-3.115 3.146-5.15.73-1.806 1.185-3.736 1.156-5.493-.153-8.839-5.894-14.077-11.732-19.401a187.167 187.167 0 0 1-2.968-2.749c-1.983-1.891-2.846-4.007-2.979-5.815a6.105 6.105 0 0 1 .222-2.184c.207-.686.544-1.28.975-1.725.516-.535 1.161-.86 1.886-.912.017 0 .061-.003.135-.003 1.027-.013 1.852.619 2.421 1.849.437.949.737 2.313.861 4.056.015.165.023.33.032.497Z" fill="#000"/><mask id="a" fill="#fff"><path d="m322.398 42.772-1.086 7.906h2.139l-1.053-7.906Z"/></mask><path d="m322.398 42.772-1.086 7.906h2.139l-1.053-7.906Z" fill="#000"/><path d="m321.312 50.678-51.516-7.075-8.114 59.075h59.63v-52Zm1.086-7.906 51.545-6.864-103.062-.211 51.517 7.075Zm1.053 7.906v52h59.383l-7.838-58.864-51.545 6.864Zm-2.139 0 51.516 7.075 1.086-7.905-51.516-7.076-51.517-7.075-1.085 7.905 51.516 7.076Zm1.086-7.906-51.545 6.864 1.053 7.906 51.545-6.864 51.545-6.864-1.053-7.906-51.545 6.864Zm1.053 7.906v-52h-2.139v104h2.139v-52Z" fill="#000" mask="url(#a)"/></svg>