<svg width="376" height="158" fill="none" xmlns="http://www.w3.org/2000/svg"><path d="m217.249 22.21-6.853-6.914-7.358-7.229H172.96l-7.168 7.229-6.852 6.914h21.928v62.446l7.227 7.1 7.226-7.1V22.21h21.928Z" fill="#000"/><path d="M210.146 28.967h-6.898v27.862l-7.208 7.077 5.075 4.896 5.126 4.947 11.031-10.838.002-33.944h-7.128Zm-37.202 27.862V28.967h-14.028V62.91l11.035 10.838 5.126-4.947 5.071-4.896-7.204-7.077Z" fill="#000"/><path d="m171.878 4.26-17.751 17.631V64.63L188 97.662l33.872-33.032V21.893L204.122 4.26h-32.244Zm-21.009 15.505 18.88-18.744.559-.558h35.38l.559.558 18.881 18.744.567.564v45.88l-.574.558-35.786 34.899-1.336 1.302-1.338-1.302-35.785-34.899-.575-.558v-45.88l.568-.564Z" fill="#000"/><path d="m373.778 112.29-13.7 2.245-1.248.205-.017-1.26a27.61 27.61 0 0 0-.071-1.653c-.114-1.608-.368-2.815-.726-3.591-.217-.472-.416-.716-.581-.713-.027 0 .022 0-.016.003a.945.945 0 0 0-.599.316 2.342 2.342 0 0 0-.521.962 4.28 4.28 0 0 0-.151 1.562c.106 1.461.838 3.201 2.518 4.808 1.004.957 2.073 1.932 3.139 2.905 6.586 6.007 13.06 11.914 13.244 22.302.035 2.188-.513 4.536-1.388 6.709-.972 2.41-2.359 4.63-3.79 6.169-1.502 1.611-3.438 2.717-5.456 3.445-2.569.926-5.297 1.256-7.424 1.266-4.307.025-7.689-1.17-10.329-3.183l.433 1.05.615 1.492h-18.285l-.281-.67-5.084-12.097-.013 11.681-.001 1.084h-29.985l-.246-.756-4.424-13.595-.03 13.265-.004 1.085h-29.99l-.147-.915-1.98-12.331h-1.97l-2.386 12.367-.171.88h-30.399l.001-1.082.055-31.119h-9.168l-.025 3.02h7.402l-.002 1.085-.03 10.573-.003 1.085h-7.357l-.036 15.351-.003 1.082h-12.94v-1.082l.006-4.783a12.099 12.099 0 0 1-1.846 2.358 12.028 12.028 0 0 1-3.912 2.6 12.103 12.103 0 0 1-4.617.911 12.058 12.058 0 0 1-8.53-3.511 11.93 11.93 0 0 1-3.531-8.193c-.877 2.41-2.371 4.711-4.256 6.625-2.971 3.012-6.935 5.079-11.017 5.079h-60.247l-.209-.822-4.071-15.955-.026 15.692-.001 1.085H81.616l.003-1.085.015-7.307a17.183 17.183 0 0 1-2.912 3.834 17.28 17.28 0 0 1-5.62 3.739 17.367 17.367 0 0 1-6.635 1.307 17.365 17.365 0 0 1-6.634-1.308 17.286 17.286 0 0 1-5.62-3.738 17.165 17.165 0 0 1-3.762-5.585 17.079 17.079 0 0 1-1.316-6.593v-14.614l-4.81 30.429-.147.921h-14.81l-.127-.946-1.191-8.905-1.19 8.905-.127.946H11.931l-.153-.907L1.163 94.126l-.214-1.263h16.63l.147.915 1.147 7.091.887-7.052.12-.954h15.578l.12.954.887 7.052 1.148-7.091.147-.915h16.612l-.2 1.25-.577 3.654a17.278 17.278 0 0 1 5.826-4.21 17.377 17.377 0 0 1 7.048-1.483 17.383 17.383 0 0 1 6.635 1.308 17.293 17.293 0 0 1 5.621 3.738 17.386 17.386 0 0 1 3.01 4.018l.016-7.19.003-1.084h18.843v.006h.036c3.139.008 7.042 1.167 10.155 3.675 1.929 1.553 3.56 3.621 4.533 6.24l.021-8.836.006-1.085h16.136l-.003 1.085-.085 46.835h12.288l.097-46.835.003-1.085h18.84v.006c4.388.005 8.418 2.194 11.34 5.415 2.901 3.198 4.724 7.442 4.724 11.574h.004v.02h-.004l-.013 9.768a12.018 12.018 0 0 1 2.633-3.925 12.033 12.033 0 0 1 3.913-2.6 12.105 12.105 0 0 1 4.618-.911 12.074 12.074 0 0 1 10.402 5.918l.004-4.831.002-1.085h22.144l.006-3.295h-8.914l-.003-1.085-.029-13.88-.003-1.085h51.992l.146.91 7.07 43.231.038-43.056v-1.085h16.386l.236.774 4.442 14.587V92.873H324.1l-.003 1.081-.024 6.784 3.913-7.29.311-.575h18.323l-.798 1.573-1.395 2.749a15.451 15.451 0 0 1 2.886-2.43c2.555-1.654 5.711-2.604 9.437-2.54 5.711.099 10.093 2.106 13.109 5.306 3.274 3.481 4.901 8.349 4.83 13.708l-.013.906-.898.145Zm-35.407 22.321-.029-.461 1.11-.06 13.681-.731 1.157-.063-.014 1.151c-.019 1.639.148 3.07.444 4.264.307 1.228.743 2.177 1.249 2.804.387.483.784.739 1.138.742a.729.729 0 0 0 .203-.025c.206-.059.393-.171.541-.326.276-.265.506-.663.632-1.167.138-.554.146-1.222-.044-1.99-.301-1.203-1.083-2.614-2.596-4.158-1.277-1.299-2.68-2.53-4.115-3.782-1.846-1.614-3.737-3.269-5.585-5.287a52.473 52.473 0 0 1-1.672-1.921 18.625 18.625 0 0 1-1.148-1.524 22.1 22.1 0 0 1-3.595-12.466c.027-1.392.184-2.769.475-4.095l-7.619 15.007 5.787 14.088ZM97.969 119.473c.805-.025 1.397-.092 1.733-.315.402-.264.59-.943.589-2.37l-.014-6.499c-.002-.935-1.011-1.047-2.247-1.055l-.06 10.239Zm146.259-10.557h-5.612l-.164 33.844 5.776-33.844Zm-19.655-1.086-.086 47.329h11.728l.231-47.332.005-1.081h8.873l-.028-11.71h-29.669l.028 11.71h8.921l-.003 1.084Zm-22.153 6.551-.037 40.778h8.591l.036-15.349.003-1.085h7.358l.024-8.403h-7.413l.009-1.093.041-5.191.009-1.077h10.106l-.017-8.576h-18.709v-.004h-.001Zm-2.706 30.952V124.21l.004-.009v-.006h-.004a9.706 9.706 0 0 0-.75-3.755 9.762 9.762 0 0 0-2.145-3.181 9.852 9.852 0 0 0-6.983-2.875 9.84 9.84 0 0 0-6.985 2.875 9.778 9.778 0 0 0-2.143 3.181 9.73 9.73 0 0 0-.751 3.755v21.145a9.753 9.753 0 0 0 2.894 6.942 9.895 9.895 0 0 0 6.985 2.876 9.874 9.874 0 0 0 6.983-2.876 9.775 9.775 0 0 0 2.145-3.184 9.718 9.718 0 0 0 .75-3.758h.004v-.002l-.004-.005Zm-12.479-20.896a2.567 2.567 0 0 1 .76-1.83 2.604 2.604 0 0 1 1.841-.755c.714 0 1.364.288 1.834.756l.005.006c.47.466.761 1.11.761 1.823v20.666a2.57 2.57 0 0 1-.761 1.826l-.005.003a2.581 2.581 0 0 1-1.834.756 2.596 2.596 0 0 1-1.839-.756l.003-.003a2.584 2.584 0 0 1-.764-1.826l-.001-20.666Zm-43.584 30.722.027-12.201h-14.464l.002-1.085.084-46.835h-11.821l-.127 60.123 26.299-.002Zm2.303-60.122-.093 45.747h.013l.003 1.085.029 13.29h16.602c3.462 0 6.872-1.8 9.462-4.426 2.707-2.746 4.499-6.364 4.502-9.748l.04-31.106h-.005v-.017h.005c0-3.591-1.61-7.301-4.168-10.124-2.539-2.799-5.996-4.701-9.72-4.707v.005h-16.67Zm14.295 46.141c.671-.055 1.19-.172 1.54-.405.416-.274.633-.828.636-1.809l.102-28.647c.001-.431-.051-.765-.187-.952-.072-.098-.23-.155-.51-.155h-1.542l-.039 31.968Zm2.742 1.401c-.949.63-2.221.808-3.832.808h-1.091l.002-1.085.044-34.177.001-1.085h3.715c1.065 0 1.798.395 2.287 1.07.423.589.59 1.348.586 2.208l-.1 28.647c-.007 1.802-.557 2.918-1.612 3.614Zm-45.961 12.58-7.139-25.558-.212-.773.685-.428c.836-.521 1.829-1.639 2.589-2.965.644-1.127 1.094-2.366 1.097-3.451l.044-13.532v-.055h-.004c0-4.687-2.006-8.017-4.683-10.174-2.705-2.179-6.08-3.185-8.783-3.192h-.037v.005H83.919l-.126 60.123h11.979l.034-22.645.001-1.087h2.086l.209.825 5.848 22.907h13.08Zm-1.792-14.423.031-15.031c-.131.271-.27.537-.42.798-.747 1.305-1.724 2.472-2.66 3.243l3.049 10.99Zm-14.336-19.769c-1 .658-2.272.684-4.03.684h-1.093l.008-1.087.074-12.414.007-1.08h1.083c.676 0 .391.003.508 0 2.623-.02 4.993-.035 4.997 3.217l.012 6.496c.005 2.269-.494 3.479-1.559 4.181h-.005v.003h-.002Zm-48.104-18.158c-.995 2.657-1.36 6.008-1.478 9.349v28.439a14.96 14.96 0 0 0 4.437 10.643 15.121 15.121 0 0 0 4.912 3.266 15.2 15.2 0 0 0 5.797 1.142c4.183 0 7.97-1.683 10.71-4.408 2.74-2.725 4.437-6.485 4.439-10.64l-.002-.02v-31.261l.002-.019a14.94 14.94 0 0 0-4.44-10.64 15.103 15.103 0 0 0-4.911-3.268 15.18 15.18 0 0 0-5.798-1.143c-1.99-.003-3.96.385-5.798 1.142a15.089 15.089 0 0 0-4.91 3.269 14.947 14.947 0 0 0-2.96 4.149Zm12.53 6.844v30.591c0 .315.125.597.326.799l.007.003a1.116 1.116 0 0 0 .802.326c.318 0 .603-.126.805-.326l.004-.003c.212-.212.33-.5.33-.799v-30.591a1.123 1.123 0 0 0-.334-.8l.003-.003-.003-.002a1.123 1.123 0 0 0-.805-.326 1.148 1.148 0 0 0-.764.288c-.013.017-.027.029-.04.043a1.128 1.128 0 0 0-.331.8Zm-2.187-.031a3.296 3.296 0 0 1 .972-2.305c.024-.024.05-.047.076-.069a3.334 3.334 0 0 1 2.274-.902c.914 0 1.744.373 2.349.969h.002c.6.595.972 1.412.973 2.319v30.635a3.297 3.297 0 0 1-.973 2.305l-.002.003-.003.003a3.323 3.323 0 0 1-3.615.715 3.324 3.324 0 0 1-1.075-.715l-.003-.003-.003-.003-.003-.002a3.288 3.288 0 0 1-.971-2.3v-30.617l.002-.033Zm6.65 30.645a1.089 1.089 0 0 1-1.094 1.059l1.093-1.059Zm-44.967 14.892 2.147-16.037 1.08-8.077 1.082 8.077 2.143 16.037h11.045l9.503-60.122h-12.21l-2.21 13.673-1.21 7.499-.95-7.537-1.714-13.633H21.812l-1.715 13.633-.949 7.537-1.211-7.499-2.207-13.673H3.535l10.243 60.122h11.046ZM248.81 95.037l-10.259 60.122h12.357l2.386-12.364.171-.886h5.628l.147.915 1.981 12.331h12.196l-9.832-60.123h-14.776l.001.005Zm26.063 0-.053 60.122h12.367l.045-18.993.016-6.813 2.11 6.484 6.287 19.324h12.139l.052-60.123h-11.889v27.858l-2.14-7.019-6.345-20.84h-12.589Zm35.179 0-.054 60.122h11.873l.017-15.988.005-5.391 2.09 4.975 6.892 16.403h13.583l-14.084-34.277-.187-.452.225-.441 12.667-24.951h-13.476l-5.668 10.556-2.064 3.845.015-4.353.031-10.05-11.865.002Zm50.903 17.159 11.555-1.895c-.118-4.448-1.54-8.436-4.236-11.3-2.621-2.787-6.483-4.532-11.556-4.621-3.263-.058-6.01.764-8.213 2.193-2.101 1.363-3.723 3.287-4.83 5.528-1.121 2.266-1.721 4.865-1.769 7.545a19.946 19.946 0 0 0 3.245 11.255c.248.378.611.847 1.014 1.337a44.532 44.532 0 0 0 1.594 1.826c1.756 1.912 3.608 3.536 5.415 5.116 1.442 1.26 2.855 2.499 4.233 3.903 1.811 1.842 2.767 3.603 3.15 5.15.281 1.132.262 2.154.043 3.022a4.598 4.598 0 0 1-1.228 2.201 3.416 3.416 0 0 1-1.54.88 3.075 3.075 0 0 1-.741.085c-1.036-.011-2.017-.554-2.826-1.559-.69-.857-1.272-2.091-1.659-3.637a17.966 17.966 0 0 1-.49-3.649l-11.435.615c.5 5.426 1.912 10.798 4.922 14.539 2.498 3.103 6.149 5.104 11.379 5.073 1.918-.011 4.38-.307 6.69-1.141 1.728-.624 3.365-1.549 4.601-2.878 1.258-1.351 2.488-3.33 3.364-5.506.779-1.93 1.267-3.994 1.235-5.872-.163-9.449-6.301-15.05-12.543-20.742a200.149 200.149 0 0 1-3.173-2.938c-2.12-2.022-3.042-4.284-3.184-6.217a6.51 6.51 0 0 1 .237-2.335c.221-.734.582-1.368 1.042-1.844.552-.572 1.241-.92 2.017-.975.018 0 .065-.003.144-.003 1.098-.014 1.98.661 2.588 1.976.468 1.014.788 2.473.921 4.336.015.177.024.352.034.532Z" fill="#000"/><mask id="a" fill="#fff"><path d="m256.198 121.641-1.161 8.453h2.287l-1.126-8.453Z"/></mask><path d="m256.198 121.641-1.161 8.453h2.287l-1.126-8.453Z" fill="#000"/><path d="m255.037 130.094-51.516-7.076-8.114 59.076h59.63v-52Zm1.161-8.453 51.545-6.864-103.061-.211 51.516 7.075Zm1.126 8.453v52h59.383l-7.838-58.865-51.545 6.865Zm-2.287 0 51.517 7.075 1.16-8.452-51.516-7.076-51.516-7.075-1.161 8.452 51.516 7.076Zm1.161-8.453-51.545 6.865 1.126 8.452 51.545-6.864 51.545-6.865-1.126-8.452-51.545 6.864Zm1.126 8.453v-52h-2.287v104h2.287v-52Z" fill="#000" mask="url(#a)"/></svg>